M48
; DRILL file {KiCad (5.1.2)-1} date 7/15/2019 5:46:18 PM
; FORMAT={-:-/ absolute / inch / decimal}
; #@! TF.CreationDate,2019-07-15T17:46:18-04:00
; #@! TF.GenerationSoftware,Kicad,Pcbnew,(5.1.2)-1
FMAT,2
INCH
T1C0.0100
T2C0.0200
T3C0.0256
T4C0.0295
T5C0.0315
T6C0.0354
T7C0.0394
T8C0.0472
T9C0.0906
%
G90
G05
T1
X4.215Y-3.855
X4.28Y-3.525
X4.28Y-3.69
X4.38Y-3.585
X4.415Y-3.505
X4.525Y-3.505
X4.57Y-3.64
X4.6Y-3.56
X4.6Y-3.59
X4.6Y-3.62
X4.665Y-3.44
X4.7Y-3.815
X4.775Y-3.685
X4.775Y-3.775
X4.795Y-3.505
X4.825Y-3.685
X4.825Y-3.775
X4.85Y-3.51
X4.89Y-3.51
X4.9Y-3.59
X4.945Y-3.51
X4.49Y-3.5662
X4.49Y-3.5938
X4.395Y-3.8975
T2
X4.155Y-3.435
X4.2187Y-3.4137
X4.2513Y-3.4463
T3
X4.88Y-3.455
X4.93Y-3.455
X4.98Y-3.455
X5.03Y-3.455
X5.08Y-3.455
X4.75Y-3.915
X4.8Y-3.915
X4.85Y-3.915
X4.9Y-3.915
X4.95Y-3.915
T4
X5.2263Y-3.585
X5.305Y-3.585
T5
X5.115Y-3.915
X5.215Y-3.915
X5.315Y-3.915
T6
X5.5127Y-3.6992
X5.5133Y-3.5024
X5.5133Y-3.7976
X5.5137Y-3.6008
T7
X4.1327Y-3.5122
X4.1327Y-3.6106
X4.1327Y-3.6894
X4.1327Y-3.7878
T8
X4.05Y-3.5594
X4.05Y-3.7406
T9
X5.62Y-3.3913
X5.62Y-3.9087
T7
G00X4.0795Y-3.4197
M15
G01X4.0205Y-3.4197
M16
G05
G00X4.0795Y-3.8803
M15
G01X4.0205Y-3.8803
M16
G05
T0
M30
