G04 #@! TF.GenerationSoftware,KiCad,Pcbnew,(5.1.2)-1*
G04 #@! TF.CreationDate,2019-07-15T17:46:34-04:00*
G04 #@! TF.ProjectId,Charger Prototype,43686172-6765-4722-9050-726f746f7479,v1.0*
G04 #@! TF.SameCoordinates,Original*
G04 #@! TF.FileFunction,Other,User*
%FSLAX46Y46*%
G04 Gerber Fmt 4.6, Leading zero omitted, Abs format (unit mm)*
G04 Created by KiCad (PCBNEW (5.1.2)-1) date 2019-07-15 17:46:34*
%MOMM*%
%LPD*%
G04 APERTURE LIST*
%ADD10C,0.060000*%
%ADD11C,0.050000*%
G04 APERTURE END LIST*
D10*
X112946000Y-89832000D02*
X112946000Y-92032000D01*
X115146000Y-89832000D02*
X115146000Y-92032000D01*
X112946000Y-92032000D02*
X115146000Y-92032000D01*
X112946000Y-89832000D02*
X115146000Y-89832000D01*
X110533000Y-97646500D02*
X110533000Y-100346500D01*
X112733000Y-97646500D02*
X110533000Y-97646500D01*
X112733000Y-100346500D02*
X110533000Y-100346500D01*
X112733000Y-97646500D02*
X112733000Y-100346500D01*
D11*
X130182000Y-89307000D02*
X130182000Y-86207000D01*
X122782000Y-89307000D02*
X130182000Y-89307000D01*
X122782000Y-86207000D02*
X122782000Y-89307000D01*
X130182000Y-86207000D02*
X122782000Y-86207000D01*
X119500000Y-97891000D02*
X119500000Y-100991000D01*
X126900000Y-97891000D02*
X119500000Y-97891000D01*
X126900000Y-100991000D02*
X126900000Y-97891000D01*
X119500000Y-100991000D02*
X126900000Y-100991000D01*
X124732500Y-89948000D02*
X127692500Y-89948000D01*
X124732500Y-91408000D02*
X124732500Y-89948000D01*
X127692500Y-91408000D02*
X124732500Y-91408000D01*
X127692500Y-89948000D02*
X127692500Y-91408000D01*
X109061000Y-97237000D02*
X109061000Y-100197000D01*
X107601000Y-97237000D02*
X109061000Y-97237000D01*
X107601000Y-100197000D02*
X107601000Y-97237000D01*
X109061000Y-100197000D02*
X107601000Y-100197000D01*
X112706500Y-88614000D02*
X109746500Y-88614000D01*
X112706500Y-87154000D02*
X112706500Y-88614000D01*
X109746500Y-87154000D02*
X112706500Y-87154000D01*
X109746500Y-88614000D02*
X109746500Y-87154000D01*
X114369500Y-87154000D02*
X117329500Y-87154000D01*
X114369500Y-88614000D02*
X114369500Y-87154000D01*
X117329500Y-88614000D02*
X114369500Y-88614000D01*
X117329500Y-87154000D02*
X117329500Y-88614000D01*
X115665000Y-97516500D02*
X115665000Y-100476500D01*
X114205000Y-97516500D02*
X115665000Y-97516500D01*
X114205000Y-100476500D02*
X114205000Y-97516500D01*
X115665000Y-100476500D02*
X114205000Y-100476500D01*
D10*
X112176000Y-92618000D02*
X115026000Y-92618000D01*
X112176000Y-93818000D02*
X112176000Y-92618000D01*
X115026000Y-93818000D02*
X112176000Y-93818000D01*
X115026000Y-92618000D02*
X115026000Y-93818000D01*
X117948000Y-92492000D02*
X117948000Y-95342000D01*
X116748000Y-92492000D02*
X117948000Y-92492000D01*
X116748000Y-95342000D02*
X116748000Y-92492000D01*
X117948000Y-95342000D02*
X116748000Y-95342000D01*
D11*
X99970000Y-85610000D02*
X99970000Y-99810000D01*
X99970000Y-99810000D02*
X106120000Y-99810000D01*
X99970000Y-85610000D02*
X106120000Y-85610000D01*
X106120000Y-85610000D02*
X106120000Y-99810000D01*
X130297000Y-92909000D02*
X137197000Y-92909000D01*
X130297000Y-84309000D02*
X130297000Y-92909000D01*
X137197000Y-84309000D02*
X130297000Y-84309000D01*
X137197000Y-92909000D02*
X137197000Y-84309000D01*
X138808000Y-101160000D02*
X138808000Y-84260000D01*
X138808000Y-84260000D02*
X159698000Y-84260000D01*
X138808000Y-101160000D02*
X159698000Y-101160000D01*
X159698000Y-101160000D02*
X159698000Y-84260000D01*
X107994000Y-89948000D02*
X110954000Y-89948000D01*
X107994000Y-91408000D02*
X107994000Y-89948000D01*
X110954000Y-91408000D02*
X107994000Y-91408000D01*
X110954000Y-89948000D02*
X110954000Y-91408000D01*
X107994000Y-91726000D02*
X110954000Y-91726000D01*
X107994000Y-93186000D02*
X107994000Y-91726000D01*
X110954000Y-93186000D02*
X107994000Y-93186000D01*
X110954000Y-91726000D02*
X110954000Y-93186000D01*
X122636000Y-88453000D02*
X118936000Y-88453000D01*
X122636000Y-86553000D02*
X122636000Y-88453000D01*
X118936000Y-86553000D02*
X122636000Y-86553000D01*
X118936000Y-88453000D02*
X118936000Y-86553000D01*
X112083500Y-94266000D02*
X115043500Y-94266000D01*
X112083500Y-95726000D02*
X112083500Y-94266000D01*
X115043500Y-95726000D02*
X112083500Y-95726000D01*
X115043500Y-94266000D02*
X115043500Y-95726000D01*
X118840000Y-89172500D02*
X118840000Y-92132500D01*
X117380000Y-89172500D02*
X118840000Y-89172500D01*
X117380000Y-92132500D02*
X117380000Y-89172500D01*
X118840000Y-92132500D02*
X117380000Y-92132500D01*
X127383500Y-96231500D02*
X127383500Y-92871500D01*
X129283500Y-96231500D02*
X127383500Y-96231500D01*
X129283500Y-92871500D02*
X129283500Y-96231500D01*
X127383500Y-92871500D02*
X129283500Y-92871500D01*
X124251000Y-97758000D02*
X121291000Y-97758000D01*
X124251000Y-96298000D02*
X124251000Y-97758000D01*
X121291000Y-96298000D02*
X124251000Y-96298000D01*
X121291000Y-97758000D02*
X121291000Y-96298000D01*
X124251000Y-95472000D02*
X121291000Y-95472000D01*
X124251000Y-94012000D02*
X124251000Y-95472000D01*
X121291000Y-94012000D02*
X124251000Y-94012000D01*
X121291000Y-95472000D02*
X121291000Y-94012000D01*
X124251000Y-93186000D02*
X121291000Y-93186000D01*
X124251000Y-91726000D02*
X124251000Y-93186000D01*
X121291000Y-91726000D02*
X124251000Y-91726000D01*
X121291000Y-93186000D02*
X121291000Y-91726000D01*
X115983000Y-100476500D02*
X115983000Y-97516500D01*
X117443000Y-100476500D02*
X115983000Y-100476500D01*
X117443000Y-97516500D02*
X117443000Y-100476500D01*
X115983000Y-97516500D02*
X117443000Y-97516500D01*
X119157500Y-97516500D02*
X119157500Y-100476500D01*
X117697500Y-97516500D02*
X119157500Y-97516500D01*
X117697500Y-100476500D02*
X117697500Y-97516500D01*
X119157500Y-100476500D02*
X117697500Y-100476500D01*
D10*
X127361000Y-98141000D02*
X127361000Y-100741000D01*
X137561000Y-100741000D02*
X137561000Y-98141000D01*
X137561000Y-98141000D02*
X127361000Y-98141000D01*
X127361000Y-100741000D02*
X137561000Y-100741000D01*
X124693500Y-92951500D02*
X126893500Y-92951500D01*
X124693500Y-96151500D02*
X124693500Y-92951500D01*
X126893500Y-96151500D02*
X124693500Y-96151500D01*
X126893500Y-92951500D02*
X126893500Y-96151500D01*
M02*
