G04 #@! TF.GenerationSoftware,KiCad,Pcbnew,(5.1.2)-1*
G04 #@! TF.CreationDate,2019-07-15T17:46:34-04:00*
G04 #@! TF.ProjectId,Charger Prototype,43686172-6765-4722-9050-726f746f7479,v1.0*
G04 #@! TF.SameCoordinates,Original*
G04 #@! TF.FileFunction,Paste,Top*
G04 #@! TF.FilePolarity,Positive*
%FSLAX46Y46*%
G04 Gerber Fmt 4.6, Leading zero omitted, Abs format (unit mm)*
G04 Created by KiCad (PCBNEW (5.1.2)-1) date 2019-07-15 17:46:34*
%MOMM*%
%LPD*%
G04 APERTURE LIST*
%ADD10C,0.100000*%
%ADD11C,0.850000*%
%ADD12C,0.200000*%
%ADD13R,2.050000X0.325000*%
%ADD14R,0.900000X0.400000*%
%ADD15R,0.300000X0.300000*%
%ADD16C,0.875000*%
%ADD17R,0.800000X0.800000*%
%ADD18C,1.150000*%
%ADD19C,0.975000*%
%ADD20C,0.945000*%
%ADD21C,0.250000*%
G04 APERTURE END LIST*
D10*
G36*
X114434966Y-90242192D02*
G01*
X114438844Y-90242768D01*
X114442647Y-90243720D01*
X114446338Y-90245041D01*
X114449882Y-90246717D01*
X114453245Y-90248733D01*
X114456394Y-90251068D01*
X114459299Y-90253701D01*
X114461932Y-90256606D01*
X114464267Y-90259755D01*
X114466283Y-90263118D01*
X114467959Y-90266662D01*
X114469280Y-90270353D01*
X114470232Y-90274156D01*
X114470808Y-90278034D01*
X114471000Y-90281950D01*
X114471000Y-91582050D01*
X114470808Y-91585966D01*
X114470232Y-91589844D01*
X114469280Y-91593647D01*
X114467959Y-91597338D01*
X114466283Y-91600882D01*
X114464267Y-91604245D01*
X114461932Y-91607394D01*
X114459299Y-91610299D01*
X114456394Y-91612932D01*
X114453245Y-91615267D01*
X114449882Y-91617283D01*
X114446338Y-91618959D01*
X114442647Y-91620280D01*
X114438844Y-91621232D01*
X114434966Y-91621808D01*
X114431050Y-91622000D01*
X113660950Y-91622000D01*
X113657034Y-91621808D01*
X113653156Y-91621232D01*
X113649353Y-91620280D01*
X113645662Y-91618959D01*
X113642118Y-91617283D01*
X113638755Y-91615267D01*
X113635606Y-91612932D01*
X113632701Y-91610299D01*
X113630068Y-91607394D01*
X113627733Y-91604245D01*
X113625717Y-91600882D01*
X113624041Y-91597338D01*
X113622720Y-91593647D01*
X113621768Y-91589844D01*
X113621192Y-91585966D01*
X113621000Y-91582050D01*
X113621000Y-90281950D01*
X113621192Y-90278034D01*
X113621768Y-90274156D01*
X113622720Y-90270353D01*
X113624041Y-90266662D01*
X113625717Y-90263118D01*
X113627733Y-90259755D01*
X113630068Y-90256606D01*
X113632701Y-90253701D01*
X113635606Y-90251068D01*
X113638755Y-90248733D01*
X113642118Y-90246717D01*
X113645662Y-90245041D01*
X113649353Y-90243720D01*
X113653156Y-90242768D01*
X113657034Y-90242192D01*
X113660950Y-90242000D01*
X114431050Y-90242000D01*
X114434966Y-90242192D01*
X114434966Y-90242192D01*
G37*
D11*
X114046000Y-90932000D03*
D10*
G36*
X115234815Y-90032060D02*
G01*
X115236019Y-90032238D01*
X115237200Y-90032534D01*
X115238345Y-90032944D01*
X115239445Y-90033464D01*
X115240489Y-90034090D01*
X115241466Y-90034815D01*
X115242368Y-90035632D01*
X115243185Y-90036534D01*
X115243910Y-90037511D01*
X115244536Y-90038555D01*
X115245056Y-90039655D01*
X115245466Y-90040800D01*
X115245762Y-90041981D01*
X115245940Y-90043185D01*
X115246000Y-90044400D01*
X115246000Y-90219600D01*
X115245940Y-90220815D01*
X115245762Y-90222019D01*
X115245466Y-90223200D01*
X115245056Y-90224345D01*
X115244536Y-90225445D01*
X115243910Y-90226489D01*
X115243185Y-90227466D01*
X115242368Y-90228368D01*
X115241466Y-90229185D01*
X115240489Y-90229910D01*
X115239445Y-90230536D01*
X115238345Y-90231056D01*
X115237200Y-90231466D01*
X115236019Y-90231762D01*
X115234815Y-90231940D01*
X115233600Y-90232000D01*
X114758400Y-90232000D01*
X114757185Y-90231940D01*
X114755981Y-90231762D01*
X114754800Y-90231466D01*
X114753655Y-90231056D01*
X114752555Y-90230536D01*
X114751511Y-90229910D01*
X114750534Y-90229185D01*
X114749632Y-90228368D01*
X114748815Y-90227466D01*
X114748090Y-90226489D01*
X114747464Y-90225445D01*
X114746944Y-90224345D01*
X114746534Y-90223200D01*
X114746238Y-90222019D01*
X114746060Y-90220815D01*
X114746000Y-90219600D01*
X114746000Y-90044400D01*
X114746060Y-90043185D01*
X114746238Y-90041981D01*
X114746534Y-90040800D01*
X114746944Y-90039655D01*
X114747464Y-90038555D01*
X114748090Y-90037511D01*
X114748815Y-90036534D01*
X114749632Y-90035632D01*
X114750534Y-90034815D01*
X114751511Y-90034090D01*
X114752555Y-90033464D01*
X114753655Y-90032944D01*
X114754800Y-90032534D01*
X114755981Y-90032238D01*
X114757185Y-90032060D01*
X114758400Y-90032000D01*
X115233600Y-90032000D01*
X115234815Y-90032060D01*
X115234815Y-90032060D01*
G37*
D12*
X114996000Y-90132000D03*
D10*
G36*
X115234815Y-90432060D02*
G01*
X115236019Y-90432238D01*
X115237200Y-90432534D01*
X115238345Y-90432944D01*
X115239445Y-90433464D01*
X115240489Y-90434090D01*
X115241466Y-90434815D01*
X115242368Y-90435632D01*
X115243185Y-90436534D01*
X115243910Y-90437511D01*
X115244536Y-90438555D01*
X115245056Y-90439655D01*
X115245466Y-90440800D01*
X115245762Y-90441981D01*
X115245940Y-90443185D01*
X115246000Y-90444400D01*
X115246000Y-90619600D01*
X115245940Y-90620815D01*
X115245762Y-90622019D01*
X115245466Y-90623200D01*
X115245056Y-90624345D01*
X115244536Y-90625445D01*
X115243910Y-90626489D01*
X115243185Y-90627466D01*
X115242368Y-90628368D01*
X115241466Y-90629185D01*
X115240489Y-90629910D01*
X115239445Y-90630536D01*
X115238345Y-90631056D01*
X115237200Y-90631466D01*
X115236019Y-90631762D01*
X115234815Y-90631940D01*
X115233600Y-90632000D01*
X114758400Y-90632000D01*
X114757185Y-90631940D01*
X114755981Y-90631762D01*
X114754800Y-90631466D01*
X114753655Y-90631056D01*
X114752555Y-90630536D01*
X114751511Y-90629910D01*
X114750534Y-90629185D01*
X114749632Y-90628368D01*
X114748815Y-90627466D01*
X114748090Y-90626489D01*
X114747464Y-90625445D01*
X114746944Y-90624345D01*
X114746534Y-90623200D01*
X114746238Y-90622019D01*
X114746060Y-90620815D01*
X114746000Y-90619600D01*
X114746000Y-90444400D01*
X114746060Y-90443185D01*
X114746238Y-90441981D01*
X114746534Y-90440800D01*
X114746944Y-90439655D01*
X114747464Y-90438555D01*
X114748090Y-90437511D01*
X114748815Y-90436534D01*
X114749632Y-90435632D01*
X114750534Y-90434815D01*
X114751511Y-90434090D01*
X114752555Y-90433464D01*
X114753655Y-90432944D01*
X114754800Y-90432534D01*
X114755981Y-90432238D01*
X114757185Y-90432060D01*
X114758400Y-90432000D01*
X115233600Y-90432000D01*
X115234815Y-90432060D01*
X115234815Y-90432060D01*
G37*
D12*
X114996000Y-90532000D03*
D10*
G36*
X115234815Y-90832060D02*
G01*
X115236019Y-90832238D01*
X115237200Y-90832534D01*
X115238345Y-90832944D01*
X115239445Y-90833464D01*
X115240489Y-90834090D01*
X115241466Y-90834815D01*
X115242368Y-90835632D01*
X115243185Y-90836534D01*
X115243910Y-90837511D01*
X115244536Y-90838555D01*
X115245056Y-90839655D01*
X115245466Y-90840800D01*
X115245762Y-90841981D01*
X115245940Y-90843185D01*
X115246000Y-90844400D01*
X115246000Y-91019600D01*
X115245940Y-91020815D01*
X115245762Y-91022019D01*
X115245466Y-91023200D01*
X115245056Y-91024345D01*
X115244536Y-91025445D01*
X115243910Y-91026489D01*
X115243185Y-91027466D01*
X115242368Y-91028368D01*
X115241466Y-91029185D01*
X115240489Y-91029910D01*
X115239445Y-91030536D01*
X115238345Y-91031056D01*
X115237200Y-91031466D01*
X115236019Y-91031762D01*
X115234815Y-91031940D01*
X115233600Y-91032000D01*
X114758400Y-91032000D01*
X114757185Y-91031940D01*
X114755981Y-91031762D01*
X114754800Y-91031466D01*
X114753655Y-91031056D01*
X114752555Y-91030536D01*
X114751511Y-91029910D01*
X114750534Y-91029185D01*
X114749632Y-91028368D01*
X114748815Y-91027466D01*
X114748090Y-91026489D01*
X114747464Y-91025445D01*
X114746944Y-91024345D01*
X114746534Y-91023200D01*
X114746238Y-91022019D01*
X114746060Y-91020815D01*
X114746000Y-91019600D01*
X114746000Y-90844400D01*
X114746060Y-90843185D01*
X114746238Y-90841981D01*
X114746534Y-90840800D01*
X114746944Y-90839655D01*
X114747464Y-90838555D01*
X114748090Y-90837511D01*
X114748815Y-90836534D01*
X114749632Y-90835632D01*
X114750534Y-90834815D01*
X114751511Y-90834090D01*
X114752555Y-90833464D01*
X114753655Y-90832944D01*
X114754800Y-90832534D01*
X114755981Y-90832238D01*
X114757185Y-90832060D01*
X114758400Y-90832000D01*
X115233600Y-90832000D01*
X115234815Y-90832060D01*
X115234815Y-90832060D01*
G37*
D12*
X114996000Y-90932000D03*
D10*
G36*
X115234815Y-91232060D02*
G01*
X115236019Y-91232238D01*
X115237200Y-91232534D01*
X115238345Y-91232944D01*
X115239445Y-91233464D01*
X115240489Y-91234090D01*
X115241466Y-91234815D01*
X115242368Y-91235632D01*
X115243185Y-91236534D01*
X115243910Y-91237511D01*
X115244536Y-91238555D01*
X115245056Y-91239655D01*
X115245466Y-91240800D01*
X115245762Y-91241981D01*
X115245940Y-91243185D01*
X115246000Y-91244400D01*
X115246000Y-91419600D01*
X115245940Y-91420815D01*
X115245762Y-91422019D01*
X115245466Y-91423200D01*
X115245056Y-91424345D01*
X115244536Y-91425445D01*
X115243910Y-91426489D01*
X115243185Y-91427466D01*
X115242368Y-91428368D01*
X115241466Y-91429185D01*
X115240489Y-91429910D01*
X115239445Y-91430536D01*
X115238345Y-91431056D01*
X115237200Y-91431466D01*
X115236019Y-91431762D01*
X115234815Y-91431940D01*
X115233600Y-91432000D01*
X114758400Y-91432000D01*
X114757185Y-91431940D01*
X114755981Y-91431762D01*
X114754800Y-91431466D01*
X114753655Y-91431056D01*
X114752555Y-91430536D01*
X114751511Y-91429910D01*
X114750534Y-91429185D01*
X114749632Y-91428368D01*
X114748815Y-91427466D01*
X114748090Y-91426489D01*
X114747464Y-91425445D01*
X114746944Y-91424345D01*
X114746534Y-91423200D01*
X114746238Y-91422019D01*
X114746060Y-91420815D01*
X114746000Y-91419600D01*
X114746000Y-91244400D01*
X114746060Y-91243185D01*
X114746238Y-91241981D01*
X114746534Y-91240800D01*
X114746944Y-91239655D01*
X114747464Y-91238555D01*
X114748090Y-91237511D01*
X114748815Y-91236534D01*
X114749632Y-91235632D01*
X114750534Y-91234815D01*
X114751511Y-91234090D01*
X114752555Y-91233464D01*
X114753655Y-91232944D01*
X114754800Y-91232534D01*
X114755981Y-91232238D01*
X114757185Y-91232060D01*
X114758400Y-91232000D01*
X115233600Y-91232000D01*
X115234815Y-91232060D01*
X115234815Y-91232060D01*
G37*
D12*
X114996000Y-91332000D03*
D10*
G36*
X115234815Y-91632060D02*
G01*
X115236019Y-91632238D01*
X115237200Y-91632534D01*
X115238345Y-91632944D01*
X115239445Y-91633464D01*
X115240489Y-91634090D01*
X115241466Y-91634815D01*
X115242368Y-91635632D01*
X115243185Y-91636534D01*
X115243910Y-91637511D01*
X115244536Y-91638555D01*
X115245056Y-91639655D01*
X115245466Y-91640800D01*
X115245762Y-91641981D01*
X115245940Y-91643185D01*
X115246000Y-91644400D01*
X115246000Y-91819600D01*
X115245940Y-91820815D01*
X115245762Y-91822019D01*
X115245466Y-91823200D01*
X115245056Y-91824345D01*
X115244536Y-91825445D01*
X115243910Y-91826489D01*
X115243185Y-91827466D01*
X115242368Y-91828368D01*
X115241466Y-91829185D01*
X115240489Y-91829910D01*
X115239445Y-91830536D01*
X115238345Y-91831056D01*
X115237200Y-91831466D01*
X115236019Y-91831762D01*
X115234815Y-91831940D01*
X115233600Y-91832000D01*
X114758400Y-91832000D01*
X114757185Y-91831940D01*
X114755981Y-91831762D01*
X114754800Y-91831466D01*
X114753655Y-91831056D01*
X114752555Y-91830536D01*
X114751511Y-91829910D01*
X114750534Y-91829185D01*
X114749632Y-91828368D01*
X114748815Y-91827466D01*
X114748090Y-91826489D01*
X114747464Y-91825445D01*
X114746944Y-91824345D01*
X114746534Y-91823200D01*
X114746238Y-91822019D01*
X114746060Y-91820815D01*
X114746000Y-91819600D01*
X114746000Y-91644400D01*
X114746060Y-91643185D01*
X114746238Y-91641981D01*
X114746534Y-91640800D01*
X114746944Y-91639655D01*
X114747464Y-91638555D01*
X114748090Y-91637511D01*
X114748815Y-91636534D01*
X114749632Y-91635632D01*
X114750534Y-91634815D01*
X114751511Y-91634090D01*
X114752555Y-91633464D01*
X114753655Y-91632944D01*
X114754800Y-91632534D01*
X114755981Y-91632238D01*
X114757185Y-91632060D01*
X114758400Y-91632000D01*
X115233600Y-91632000D01*
X115234815Y-91632060D01*
X115234815Y-91632060D01*
G37*
D12*
X114996000Y-91732000D03*
D10*
G36*
X113334815Y-91632060D02*
G01*
X113336019Y-91632238D01*
X113337200Y-91632534D01*
X113338345Y-91632944D01*
X113339445Y-91633464D01*
X113340489Y-91634090D01*
X113341466Y-91634815D01*
X113342368Y-91635632D01*
X113343185Y-91636534D01*
X113343910Y-91637511D01*
X113344536Y-91638555D01*
X113345056Y-91639655D01*
X113345466Y-91640800D01*
X113345762Y-91641981D01*
X113345940Y-91643185D01*
X113346000Y-91644400D01*
X113346000Y-91819600D01*
X113345940Y-91820815D01*
X113345762Y-91822019D01*
X113345466Y-91823200D01*
X113345056Y-91824345D01*
X113344536Y-91825445D01*
X113343910Y-91826489D01*
X113343185Y-91827466D01*
X113342368Y-91828368D01*
X113341466Y-91829185D01*
X113340489Y-91829910D01*
X113339445Y-91830536D01*
X113338345Y-91831056D01*
X113337200Y-91831466D01*
X113336019Y-91831762D01*
X113334815Y-91831940D01*
X113333600Y-91832000D01*
X112858400Y-91832000D01*
X112857185Y-91831940D01*
X112855981Y-91831762D01*
X112854800Y-91831466D01*
X112853655Y-91831056D01*
X112852555Y-91830536D01*
X112851511Y-91829910D01*
X112850534Y-91829185D01*
X112849632Y-91828368D01*
X112848815Y-91827466D01*
X112848090Y-91826489D01*
X112847464Y-91825445D01*
X112846944Y-91824345D01*
X112846534Y-91823200D01*
X112846238Y-91822019D01*
X112846060Y-91820815D01*
X112846000Y-91819600D01*
X112846000Y-91644400D01*
X112846060Y-91643185D01*
X112846238Y-91641981D01*
X112846534Y-91640800D01*
X112846944Y-91639655D01*
X112847464Y-91638555D01*
X112848090Y-91637511D01*
X112848815Y-91636534D01*
X112849632Y-91635632D01*
X112850534Y-91634815D01*
X112851511Y-91634090D01*
X112852555Y-91633464D01*
X112853655Y-91632944D01*
X112854800Y-91632534D01*
X112855981Y-91632238D01*
X112857185Y-91632060D01*
X112858400Y-91632000D01*
X113333600Y-91632000D01*
X113334815Y-91632060D01*
X113334815Y-91632060D01*
G37*
D12*
X113096000Y-91732000D03*
D10*
G36*
X113334815Y-91232060D02*
G01*
X113336019Y-91232238D01*
X113337200Y-91232534D01*
X113338345Y-91232944D01*
X113339445Y-91233464D01*
X113340489Y-91234090D01*
X113341466Y-91234815D01*
X113342368Y-91235632D01*
X113343185Y-91236534D01*
X113343910Y-91237511D01*
X113344536Y-91238555D01*
X113345056Y-91239655D01*
X113345466Y-91240800D01*
X113345762Y-91241981D01*
X113345940Y-91243185D01*
X113346000Y-91244400D01*
X113346000Y-91419600D01*
X113345940Y-91420815D01*
X113345762Y-91422019D01*
X113345466Y-91423200D01*
X113345056Y-91424345D01*
X113344536Y-91425445D01*
X113343910Y-91426489D01*
X113343185Y-91427466D01*
X113342368Y-91428368D01*
X113341466Y-91429185D01*
X113340489Y-91429910D01*
X113339445Y-91430536D01*
X113338345Y-91431056D01*
X113337200Y-91431466D01*
X113336019Y-91431762D01*
X113334815Y-91431940D01*
X113333600Y-91432000D01*
X112858400Y-91432000D01*
X112857185Y-91431940D01*
X112855981Y-91431762D01*
X112854800Y-91431466D01*
X112853655Y-91431056D01*
X112852555Y-91430536D01*
X112851511Y-91429910D01*
X112850534Y-91429185D01*
X112849632Y-91428368D01*
X112848815Y-91427466D01*
X112848090Y-91426489D01*
X112847464Y-91425445D01*
X112846944Y-91424345D01*
X112846534Y-91423200D01*
X112846238Y-91422019D01*
X112846060Y-91420815D01*
X112846000Y-91419600D01*
X112846000Y-91244400D01*
X112846060Y-91243185D01*
X112846238Y-91241981D01*
X112846534Y-91240800D01*
X112846944Y-91239655D01*
X112847464Y-91238555D01*
X112848090Y-91237511D01*
X112848815Y-91236534D01*
X112849632Y-91235632D01*
X112850534Y-91234815D01*
X112851511Y-91234090D01*
X112852555Y-91233464D01*
X112853655Y-91232944D01*
X112854800Y-91232534D01*
X112855981Y-91232238D01*
X112857185Y-91232060D01*
X112858400Y-91232000D01*
X113333600Y-91232000D01*
X113334815Y-91232060D01*
X113334815Y-91232060D01*
G37*
D12*
X113096000Y-91332000D03*
D10*
G36*
X113334815Y-90832060D02*
G01*
X113336019Y-90832238D01*
X113337200Y-90832534D01*
X113338345Y-90832944D01*
X113339445Y-90833464D01*
X113340489Y-90834090D01*
X113341466Y-90834815D01*
X113342368Y-90835632D01*
X113343185Y-90836534D01*
X113343910Y-90837511D01*
X113344536Y-90838555D01*
X113345056Y-90839655D01*
X113345466Y-90840800D01*
X113345762Y-90841981D01*
X113345940Y-90843185D01*
X113346000Y-90844400D01*
X113346000Y-91019600D01*
X113345940Y-91020815D01*
X113345762Y-91022019D01*
X113345466Y-91023200D01*
X113345056Y-91024345D01*
X113344536Y-91025445D01*
X113343910Y-91026489D01*
X113343185Y-91027466D01*
X113342368Y-91028368D01*
X113341466Y-91029185D01*
X113340489Y-91029910D01*
X113339445Y-91030536D01*
X113338345Y-91031056D01*
X113337200Y-91031466D01*
X113336019Y-91031762D01*
X113334815Y-91031940D01*
X113333600Y-91032000D01*
X112858400Y-91032000D01*
X112857185Y-91031940D01*
X112855981Y-91031762D01*
X112854800Y-91031466D01*
X112853655Y-91031056D01*
X112852555Y-91030536D01*
X112851511Y-91029910D01*
X112850534Y-91029185D01*
X112849632Y-91028368D01*
X112848815Y-91027466D01*
X112848090Y-91026489D01*
X112847464Y-91025445D01*
X112846944Y-91024345D01*
X112846534Y-91023200D01*
X112846238Y-91022019D01*
X112846060Y-91020815D01*
X112846000Y-91019600D01*
X112846000Y-90844400D01*
X112846060Y-90843185D01*
X112846238Y-90841981D01*
X112846534Y-90840800D01*
X112846944Y-90839655D01*
X112847464Y-90838555D01*
X112848090Y-90837511D01*
X112848815Y-90836534D01*
X112849632Y-90835632D01*
X112850534Y-90834815D01*
X112851511Y-90834090D01*
X112852555Y-90833464D01*
X112853655Y-90832944D01*
X112854800Y-90832534D01*
X112855981Y-90832238D01*
X112857185Y-90832060D01*
X112858400Y-90832000D01*
X113333600Y-90832000D01*
X113334815Y-90832060D01*
X113334815Y-90832060D01*
G37*
D12*
X113096000Y-90932000D03*
D10*
G36*
X113334815Y-90432060D02*
G01*
X113336019Y-90432238D01*
X113337200Y-90432534D01*
X113338345Y-90432944D01*
X113339445Y-90433464D01*
X113340489Y-90434090D01*
X113341466Y-90434815D01*
X113342368Y-90435632D01*
X113343185Y-90436534D01*
X113343910Y-90437511D01*
X113344536Y-90438555D01*
X113345056Y-90439655D01*
X113345466Y-90440800D01*
X113345762Y-90441981D01*
X113345940Y-90443185D01*
X113346000Y-90444400D01*
X113346000Y-90619600D01*
X113345940Y-90620815D01*
X113345762Y-90622019D01*
X113345466Y-90623200D01*
X113345056Y-90624345D01*
X113344536Y-90625445D01*
X113343910Y-90626489D01*
X113343185Y-90627466D01*
X113342368Y-90628368D01*
X113341466Y-90629185D01*
X113340489Y-90629910D01*
X113339445Y-90630536D01*
X113338345Y-90631056D01*
X113337200Y-90631466D01*
X113336019Y-90631762D01*
X113334815Y-90631940D01*
X113333600Y-90632000D01*
X112858400Y-90632000D01*
X112857185Y-90631940D01*
X112855981Y-90631762D01*
X112854800Y-90631466D01*
X112853655Y-90631056D01*
X112852555Y-90630536D01*
X112851511Y-90629910D01*
X112850534Y-90629185D01*
X112849632Y-90628368D01*
X112848815Y-90627466D01*
X112848090Y-90626489D01*
X112847464Y-90625445D01*
X112846944Y-90624345D01*
X112846534Y-90623200D01*
X112846238Y-90622019D01*
X112846060Y-90620815D01*
X112846000Y-90619600D01*
X112846000Y-90444400D01*
X112846060Y-90443185D01*
X112846238Y-90441981D01*
X112846534Y-90440800D01*
X112846944Y-90439655D01*
X112847464Y-90438555D01*
X112848090Y-90437511D01*
X112848815Y-90436534D01*
X112849632Y-90435632D01*
X112850534Y-90434815D01*
X112851511Y-90434090D01*
X112852555Y-90433464D01*
X112853655Y-90432944D01*
X112854800Y-90432534D01*
X112855981Y-90432238D01*
X112857185Y-90432060D01*
X112858400Y-90432000D01*
X113333600Y-90432000D01*
X113334815Y-90432060D01*
X113334815Y-90432060D01*
G37*
D12*
X113096000Y-90532000D03*
D10*
G36*
X113334815Y-90032060D02*
G01*
X113336019Y-90032238D01*
X113337200Y-90032534D01*
X113338345Y-90032944D01*
X113339445Y-90033464D01*
X113340489Y-90034090D01*
X113341466Y-90034815D01*
X113342368Y-90035632D01*
X113343185Y-90036534D01*
X113343910Y-90037511D01*
X113344536Y-90038555D01*
X113345056Y-90039655D01*
X113345466Y-90040800D01*
X113345762Y-90041981D01*
X113345940Y-90043185D01*
X113346000Y-90044400D01*
X113346000Y-90219600D01*
X113345940Y-90220815D01*
X113345762Y-90222019D01*
X113345466Y-90223200D01*
X113345056Y-90224345D01*
X113344536Y-90225445D01*
X113343910Y-90226489D01*
X113343185Y-90227466D01*
X113342368Y-90228368D01*
X113341466Y-90229185D01*
X113340489Y-90229910D01*
X113339445Y-90230536D01*
X113338345Y-90231056D01*
X113337200Y-90231466D01*
X113336019Y-90231762D01*
X113334815Y-90231940D01*
X113333600Y-90232000D01*
X112858400Y-90232000D01*
X112857185Y-90231940D01*
X112855981Y-90231762D01*
X112854800Y-90231466D01*
X112853655Y-90231056D01*
X112852555Y-90230536D01*
X112851511Y-90229910D01*
X112850534Y-90229185D01*
X112849632Y-90228368D01*
X112848815Y-90227466D01*
X112848090Y-90226489D01*
X112847464Y-90225445D01*
X112846944Y-90224345D01*
X112846534Y-90223200D01*
X112846238Y-90222019D01*
X112846060Y-90220815D01*
X112846000Y-90219600D01*
X112846000Y-90044400D01*
X112846060Y-90043185D01*
X112846238Y-90041981D01*
X112846534Y-90040800D01*
X112846944Y-90039655D01*
X112847464Y-90038555D01*
X112848090Y-90037511D01*
X112848815Y-90036534D01*
X112849632Y-90035632D01*
X112850534Y-90034815D01*
X112851511Y-90034090D01*
X112852555Y-90033464D01*
X112853655Y-90032944D01*
X112854800Y-90032534D01*
X112855981Y-90032238D01*
X112857185Y-90032060D01*
X112858400Y-90032000D01*
X113333600Y-90032000D01*
X113334815Y-90032060D01*
X113334815Y-90032060D01*
G37*
D12*
X113096000Y-90132000D03*
D13*
X111633000Y-97734000D03*
X111633000Y-100259000D03*
D14*
X111633000Y-98546500D03*
X111633000Y-99446500D03*
D15*
X112583000Y-98446500D03*
X112583000Y-98996500D03*
X110683000Y-99546500D03*
X110683000Y-98446500D03*
X110683000Y-98996500D03*
X112583000Y-99546500D03*
D10*
G36*
X125665191Y-90204053D02*
G01*
X125686426Y-90207203D01*
X125707250Y-90212419D01*
X125727462Y-90219651D01*
X125746868Y-90228830D01*
X125765281Y-90239866D01*
X125782524Y-90252654D01*
X125798430Y-90267070D01*
X125812846Y-90282976D01*
X125825634Y-90300219D01*
X125836670Y-90318632D01*
X125845849Y-90338038D01*
X125853081Y-90358250D01*
X125858297Y-90379074D01*
X125861447Y-90400309D01*
X125862500Y-90421750D01*
X125862500Y-90934250D01*
X125861447Y-90955691D01*
X125858297Y-90976926D01*
X125853081Y-90997750D01*
X125845849Y-91017962D01*
X125836670Y-91037368D01*
X125825634Y-91055781D01*
X125812846Y-91073024D01*
X125798430Y-91088930D01*
X125782524Y-91103346D01*
X125765281Y-91116134D01*
X125746868Y-91127170D01*
X125727462Y-91136349D01*
X125707250Y-91143581D01*
X125686426Y-91148797D01*
X125665191Y-91151947D01*
X125643750Y-91153000D01*
X125206250Y-91153000D01*
X125184809Y-91151947D01*
X125163574Y-91148797D01*
X125142750Y-91143581D01*
X125122538Y-91136349D01*
X125103132Y-91127170D01*
X125084719Y-91116134D01*
X125067476Y-91103346D01*
X125051570Y-91088930D01*
X125037154Y-91073024D01*
X125024366Y-91055781D01*
X125013330Y-91037368D01*
X125004151Y-91017962D01*
X124996919Y-90997750D01*
X124991703Y-90976926D01*
X124988553Y-90955691D01*
X124987500Y-90934250D01*
X124987500Y-90421750D01*
X124988553Y-90400309D01*
X124991703Y-90379074D01*
X124996919Y-90358250D01*
X125004151Y-90338038D01*
X125013330Y-90318632D01*
X125024366Y-90300219D01*
X125037154Y-90282976D01*
X125051570Y-90267070D01*
X125067476Y-90252654D01*
X125084719Y-90239866D01*
X125103132Y-90228830D01*
X125122538Y-90219651D01*
X125142750Y-90212419D01*
X125163574Y-90207203D01*
X125184809Y-90204053D01*
X125206250Y-90203000D01*
X125643750Y-90203000D01*
X125665191Y-90204053D01*
X125665191Y-90204053D01*
G37*
D16*
X125425000Y-90678000D03*
D10*
G36*
X127240191Y-90204053D02*
G01*
X127261426Y-90207203D01*
X127282250Y-90212419D01*
X127302462Y-90219651D01*
X127321868Y-90228830D01*
X127340281Y-90239866D01*
X127357524Y-90252654D01*
X127373430Y-90267070D01*
X127387846Y-90282976D01*
X127400634Y-90300219D01*
X127411670Y-90318632D01*
X127420849Y-90338038D01*
X127428081Y-90358250D01*
X127433297Y-90379074D01*
X127436447Y-90400309D01*
X127437500Y-90421750D01*
X127437500Y-90934250D01*
X127436447Y-90955691D01*
X127433297Y-90976926D01*
X127428081Y-90997750D01*
X127420849Y-91017962D01*
X127411670Y-91037368D01*
X127400634Y-91055781D01*
X127387846Y-91073024D01*
X127373430Y-91088930D01*
X127357524Y-91103346D01*
X127340281Y-91116134D01*
X127321868Y-91127170D01*
X127302462Y-91136349D01*
X127282250Y-91143581D01*
X127261426Y-91148797D01*
X127240191Y-91151947D01*
X127218750Y-91153000D01*
X126781250Y-91153000D01*
X126759809Y-91151947D01*
X126738574Y-91148797D01*
X126717750Y-91143581D01*
X126697538Y-91136349D01*
X126678132Y-91127170D01*
X126659719Y-91116134D01*
X126642476Y-91103346D01*
X126626570Y-91088930D01*
X126612154Y-91073024D01*
X126599366Y-91055781D01*
X126588330Y-91037368D01*
X126579151Y-91017962D01*
X126571919Y-90997750D01*
X126566703Y-90976926D01*
X126563553Y-90955691D01*
X126562500Y-90934250D01*
X126562500Y-90421750D01*
X126563553Y-90400309D01*
X126566703Y-90379074D01*
X126571919Y-90358250D01*
X126579151Y-90338038D01*
X126588330Y-90318632D01*
X126599366Y-90300219D01*
X126612154Y-90282976D01*
X126626570Y-90267070D01*
X126642476Y-90252654D01*
X126659719Y-90239866D01*
X126678132Y-90228830D01*
X126697538Y-90219651D01*
X126717750Y-90212419D01*
X126738574Y-90207203D01*
X126759809Y-90204053D01*
X126781250Y-90203000D01*
X127218750Y-90203000D01*
X127240191Y-90204053D01*
X127240191Y-90204053D01*
G37*
D16*
X127000000Y-90678000D03*
D10*
G36*
X108608691Y-97493053D02*
G01*
X108629926Y-97496203D01*
X108650750Y-97501419D01*
X108670962Y-97508651D01*
X108690368Y-97517830D01*
X108708781Y-97528866D01*
X108726024Y-97541654D01*
X108741930Y-97556070D01*
X108756346Y-97571976D01*
X108769134Y-97589219D01*
X108780170Y-97607632D01*
X108789349Y-97627038D01*
X108796581Y-97647250D01*
X108801797Y-97668074D01*
X108804947Y-97689309D01*
X108806000Y-97710750D01*
X108806000Y-98148250D01*
X108804947Y-98169691D01*
X108801797Y-98190926D01*
X108796581Y-98211750D01*
X108789349Y-98231962D01*
X108780170Y-98251368D01*
X108769134Y-98269781D01*
X108756346Y-98287024D01*
X108741930Y-98302930D01*
X108726024Y-98317346D01*
X108708781Y-98330134D01*
X108690368Y-98341170D01*
X108670962Y-98350349D01*
X108650750Y-98357581D01*
X108629926Y-98362797D01*
X108608691Y-98365947D01*
X108587250Y-98367000D01*
X108074750Y-98367000D01*
X108053309Y-98365947D01*
X108032074Y-98362797D01*
X108011250Y-98357581D01*
X107991038Y-98350349D01*
X107971632Y-98341170D01*
X107953219Y-98330134D01*
X107935976Y-98317346D01*
X107920070Y-98302930D01*
X107905654Y-98287024D01*
X107892866Y-98269781D01*
X107881830Y-98251368D01*
X107872651Y-98231962D01*
X107865419Y-98211750D01*
X107860203Y-98190926D01*
X107857053Y-98169691D01*
X107856000Y-98148250D01*
X107856000Y-97710750D01*
X107857053Y-97689309D01*
X107860203Y-97668074D01*
X107865419Y-97647250D01*
X107872651Y-97627038D01*
X107881830Y-97607632D01*
X107892866Y-97589219D01*
X107905654Y-97571976D01*
X107920070Y-97556070D01*
X107935976Y-97541654D01*
X107953219Y-97528866D01*
X107971632Y-97517830D01*
X107991038Y-97508651D01*
X108011250Y-97501419D01*
X108032074Y-97496203D01*
X108053309Y-97493053D01*
X108074750Y-97492000D01*
X108587250Y-97492000D01*
X108608691Y-97493053D01*
X108608691Y-97493053D01*
G37*
D16*
X108331000Y-97929500D03*
D10*
G36*
X108608691Y-99068053D02*
G01*
X108629926Y-99071203D01*
X108650750Y-99076419D01*
X108670962Y-99083651D01*
X108690368Y-99092830D01*
X108708781Y-99103866D01*
X108726024Y-99116654D01*
X108741930Y-99131070D01*
X108756346Y-99146976D01*
X108769134Y-99164219D01*
X108780170Y-99182632D01*
X108789349Y-99202038D01*
X108796581Y-99222250D01*
X108801797Y-99243074D01*
X108804947Y-99264309D01*
X108806000Y-99285750D01*
X108806000Y-99723250D01*
X108804947Y-99744691D01*
X108801797Y-99765926D01*
X108796581Y-99786750D01*
X108789349Y-99806962D01*
X108780170Y-99826368D01*
X108769134Y-99844781D01*
X108756346Y-99862024D01*
X108741930Y-99877930D01*
X108726024Y-99892346D01*
X108708781Y-99905134D01*
X108690368Y-99916170D01*
X108670962Y-99925349D01*
X108650750Y-99932581D01*
X108629926Y-99937797D01*
X108608691Y-99940947D01*
X108587250Y-99942000D01*
X108074750Y-99942000D01*
X108053309Y-99940947D01*
X108032074Y-99937797D01*
X108011250Y-99932581D01*
X107991038Y-99925349D01*
X107971632Y-99916170D01*
X107953219Y-99905134D01*
X107935976Y-99892346D01*
X107920070Y-99877930D01*
X107905654Y-99862024D01*
X107892866Y-99844781D01*
X107881830Y-99826368D01*
X107872651Y-99806962D01*
X107865419Y-99786750D01*
X107860203Y-99765926D01*
X107857053Y-99744691D01*
X107856000Y-99723250D01*
X107856000Y-99285750D01*
X107857053Y-99264309D01*
X107860203Y-99243074D01*
X107865419Y-99222250D01*
X107872651Y-99202038D01*
X107881830Y-99182632D01*
X107892866Y-99164219D01*
X107905654Y-99146976D01*
X107920070Y-99131070D01*
X107935976Y-99116654D01*
X107953219Y-99103866D01*
X107971632Y-99092830D01*
X107991038Y-99083651D01*
X108011250Y-99076419D01*
X108032074Y-99071203D01*
X108053309Y-99068053D01*
X108074750Y-99067000D01*
X108587250Y-99067000D01*
X108608691Y-99068053D01*
X108608691Y-99068053D01*
G37*
D16*
X108331000Y-99504500D03*
D10*
G36*
X112254191Y-87410053D02*
G01*
X112275426Y-87413203D01*
X112296250Y-87418419D01*
X112316462Y-87425651D01*
X112335868Y-87434830D01*
X112354281Y-87445866D01*
X112371524Y-87458654D01*
X112387430Y-87473070D01*
X112401846Y-87488976D01*
X112414634Y-87506219D01*
X112425670Y-87524632D01*
X112434849Y-87544038D01*
X112442081Y-87564250D01*
X112447297Y-87585074D01*
X112450447Y-87606309D01*
X112451500Y-87627750D01*
X112451500Y-88140250D01*
X112450447Y-88161691D01*
X112447297Y-88182926D01*
X112442081Y-88203750D01*
X112434849Y-88223962D01*
X112425670Y-88243368D01*
X112414634Y-88261781D01*
X112401846Y-88279024D01*
X112387430Y-88294930D01*
X112371524Y-88309346D01*
X112354281Y-88322134D01*
X112335868Y-88333170D01*
X112316462Y-88342349D01*
X112296250Y-88349581D01*
X112275426Y-88354797D01*
X112254191Y-88357947D01*
X112232750Y-88359000D01*
X111795250Y-88359000D01*
X111773809Y-88357947D01*
X111752574Y-88354797D01*
X111731750Y-88349581D01*
X111711538Y-88342349D01*
X111692132Y-88333170D01*
X111673719Y-88322134D01*
X111656476Y-88309346D01*
X111640570Y-88294930D01*
X111626154Y-88279024D01*
X111613366Y-88261781D01*
X111602330Y-88243368D01*
X111593151Y-88223962D01*
X111585919Y-88203750D01*
X111580703Y-88182926D01*
X111577553Y-88161691D01*
X111576500Y-88140250D01*
X111576500Y-87627750D01*
X111577553Y-87606309D01*
X111580703Y-87585074D01*
X111585919Y-87564250D01*
X111593151Y-87544038D01*
X111602330Y-87524632D01*
X111613366Y-87506219D01*
X111626154Y-87488976D01*
X111640570Y-87473070D01*
X111656476Y-87458654D01*
X111673719Y-87445866D01*
X111692132Y-87434830D01*
X111711538Y-87425651D01*
X111731750Y-87418419D01*
X111752574Y-87413203D01*
X111773809Y-87410053D01*
X111795250Y-87409000D01*
X112232750Y-87409000D01*
X112254191Y-87410053D01*
X112254191Y-87410053D01*
G37*
D16*
X112014000Y-87884000D03*
D10*
G36*
X110679191Y-87410053D02*
G01*
X110700426Y-87413203D01*
X110721250Y-87418419D01*
X110741462Y-87425651D01*
X110760868Y-87434830D01*
X110779281Y-87445866D01*
X110796524Y-87458654D01*
X110812430Y-87473070D01*
X110826846Y-87488976D01*
X110839634Y-87506219D01*
X110850670Y-87524632D01*
X110859849Y-87544038D01*
X110867081Y-87564250D01*
X110872297Y-87585074D01*
X110875447Y-87606309D01*
X110876500Y-87627750D01*
X110876500Y-88140250D01*
X110875447Y-88161691D01*
X110872297Y-88182926D01*
X110867081Y-88203750D01*
X110859849Y-88223962D01*
X110850670Y-88243368D01*
X110839634Y-88261781D01*
X110826846Y-88279024D01*
X110812430Y-88294930D01*
X110796524Y-88309346D01*
X110779281Y-88322134D01*
X110760868Y-88333170D01*
X110741462Y-88342349D01*
X110721250Y-88349581D01*
X110700426Y-88354797D01*
X110679191Y-88357947D01*
X110657750Y-88359000D01*
X110220250Y-88359000D01*
X110198809Y-88357947D01*
X110177574Y-88354797D01*
X110156750Y-88349581D01*
X110136538Y-88342349D01*
X110117132Y-88333170D01*
X110098719Y-88322134D01*
X110081476Y-88309346D01*
X110065570Y-88294930D01*
X110051154Y-88279024D01*
X110038366Y-88261781D01*
X110027330Y-88243368D01*
X110018151Y-88223962D01*
X110010919Y-88203750D01*
X110005703Y-88182926D01*
X110002553Y-88161691D01*
X110001500Y-88140250D01*
X110001500Y-87627750D01*
X110002553Y-87606309D01*
X110005703Y-87585074D01*
X110010919Y-87564250D01*
X110018151Y-87544038D01*
X110027330Y-87524632D01*
X110038366Y-87506219D01*
X110051154Y-87488976D01*
X110065570Y-87473070D01*
X110081476Y-87458654D01*
X110098719Y-87445866D01*
X110117132Y-87434830D01*
X110136538Y-87425651D01*
X110156750Y-87418419D01*
X110177574Y-87413203D01*
X110198809Y-87410053D01*
X110220250Y-87409000D01*
X110657750Y-87409000D01*
X110679191Y-87410053D01*
X110679191Y-87410053D01*
G37*
D16*
X110439000Y-87884000D03*
D10*
G36*
X115302191Y-87410053D02*
G01*
X115323426Y-87413203D01*
X115344250Y-87418419D01*
X115364462Y-87425651D01*
X115383868Y-87434830D01*
X115402281Y-87445866D01*
X115419524Y-87458654D01*
X115435430Y-87473070D01*
X115449846Y-87488976D01*
X115462634Y-87506219D01*
X115473670Y-87524632D01*
X115482849Y-87544038D01*
X115490081Y-87564250D01*
X115495297Y-87585074D01*
X115498447Y-87606309D01*
X115499500Y-87627750D01*
X115499500Y-88140250D01*
X115498447Y-88161691D01*
X115495297Y-88182926D01*
X115490081Y-88203750D01*
X115482849Y-88223962D01*
X115473670Y-88243368D01*
X115462634Y-88261781D01*
X115449846Y-88279024D01*
X115435430Y-88294930D01*
X115419524Y-88309346D01*
X115402281Y-88322134D01*
X115383868Y-88333170D01*
X115364462Y-88342349D01*
X115344250Y-88349581D01*
X115323426Y-88354797D01*
X115302191Y-88357947D01*
X115280750Y-88359000D01*
X114843250Y-88359000D01*
X114821809Y-88357947D01*
X114800574Y-88354797D01*
X114779750Y-88349581D01*
X114759538Y-88342349D01*
X114740132Y-88333170D01*
X114721719Y-88322134D01*
X114704476Y-88309346D01*
X114688570Y-88294930D01*
X114674154Y-88279024D01*
X114661366Y-88261781D01*
X114650330Y-88243368D01*
X114641151Y-88223962D01*
X114633919Y-88203750D01*
X114628703Y-88182926D01*
X114625553Y-88161691D01*
X114624500Y-88140250D01*
X114624500Y-87627750D01*
X114625553Y-87606309D01*
X114628703Y-87585074D01*
X114633919Y-87564250D01*
X114641151Y-87544038D01*
X114650330Y-87524632D01*
X114661366Y-87506219D01*
X114674154Y-87488976D01*
X114688570Y-87473070D01*
X114704476Y-87458654D01*
X114721719Y-87445866D01*
X114740132Y-87434830D01*
X114759538Y-87425651D01*
X114779750Y-87418419D01*
X114800574Y-87413203D01*
X114821809Y-87410053D01*
X114843250Y-87409000D01*
X115280750Y-87409000D01*
X115302191Y-87410053D01*
X115302191Y-87410053D01*
G37*
D16*
X115062000Y-87884000D03*
D10*
G36*
X116877191Y-87410053D02*
G01*
X116898426Y-87413203D01*
X116919250Y-87418419D01*
X116939462Y-87425651D01*
X116958868Y-87434830D01*
X116977281Y-87445866D01*
X116994524Y-87458654D01*
X117010430Y-87473070D01*
X117024846Y-87488976D01*
X117037634Y-87506219D01*
X117048670Y-87524632D01*
X117057849Y-87544038D01*
X117065081Y-87564250D01*
X117070297Y-87585074D01*
X117073447Y-87606309D01*
X117074500Y-87627750D01*
X117074500Y-88140250D01*
X117073447Y-88161691D01*
X117070297Y-88182926D01*
X117065081Y-88203750D01*
X117057849Y-88223962D01*
X117048670Y-88243368D01*
X117037634Y-88261781D01*
X117024846Y-88279024D01*
X117010430Y-88294930D01*
X116994524Y-88309346D01*
X116977281Y-88322134D01*
X116958868Y-88333170D01*
X116939462Y-88342349D01*
X116919250Y-88349581D01*
X116898426Y-88354797D01*
X116877191Y-88357947D01*
X116855750Y-88359000D01*
X116418250Y-88359000D01*
X116396809Y-88357947D01*
X116375574Y-88354797D01*
X116354750Y-88349581D01*
X116334538Y-88342349D01*
X116315132Y-88333170D01*
X116296719Y-88322134D01*
X116279476Y-88309346D01*
X116263570Y-88294930D01*
X116249154Y-88279024D01*
X116236366Y-88261781D01*
X116225330Y-88243368D01*
X116216151Y-88223962D01*
X116208919Y-88203750D01*
X116203703Y-88182926D01*
X116200553Y-88161691D01*
X116199500Y-88140250D01*
X116199500Y-87627750D01*
X116200553Y-87606309D01*
X116203703Y-87585074D01*
X116208919Y-87564250D01*
X116216151Y-87544038D01*
X116225330Y-87524632D01*
X116236366Y-87506219D01*
X116249154Y-87488976D01*
X116263570Y-87473070D01*
X116279476Y-87458654D01*
X116296719Y-87445866D01*
X116315132Y-87434830D01*
X116334538Y-87425651D01*
X116354750Y-87418419D01*
X116375574Y-87413203D01*
X116396809Y-87410053D01*
X116418250Y-87409000D01*
X116855750Y-87409000D01*
X116877191Y-87410053D01*
X116877191Y-87410053D01*
G37*
D16*
X116637000Y-87884000D03*
D10*
G36*
X115212691Y-97772553D02*
G01*
X115233926Y-97775703D01*
X115254750Y-97780919D01*
X115274962Y-97788151D01*
X115294368Y-97797330D01*
X115312781Y-97808366D01*
X115330024Y-97821154D01*
X115345930Y-97835570D01*
X115360346Y-97851476D01*
X115373134Y-97868719D01*
X115384170Y-97887132D01*
X115393349Y-97906538D01*
X115400581Y-97926750D01*
X115405797Y-97947574D01*
X115408947Y-97968809D01*
X115410000Y-97990250D01*
X115410000Y-98427750D01*
X115408947Y-98449191D01*
X115405797Y-98470426D01*
X115400581Y-98491250D01*
X115393349Y-98511462D01*
X115384170Y-98530868D01*
X115373134Y-98549281D01*
X115360346Y-98566524D01*
X115345930Y-98582430D01*
X115330024Y-98596846D01*
X115312781Y-98609634D01*
X115294368Y-98620670D01*
X115274962Y-98629849D01*
X115254750Y-98637081D01*
X115233926Y-98642297D01*
X115212691Y-98645447D01*
X115191250Y-98646500D01*
X114678750Y-98646500D01*
X114657309Y-98645447D01*
X114636074Y-98642297D01*
X114615250Y-98637081D01*
X114595038Y-98629849D01*
X114575632Y-98620670D01*
X114557219Y-98609634D01*
X114539976Y-98596846D01*
X114524070Y-98582430D01*
X114509654Y-98566524D01*
X114496866Y-98549281D01*
X114485830Y-98530868D01*
X114476651Y-98511462D01*
X114469419Y-98491250D01*
X114464203Y-98470426D01*
X114461053Y-98449191D01*
X114460000Y-98427750D01*
X114460000Y-97990250D01*
X114461053Y-97968809D01*
X114464203Y-97947574D01*
X114469419Y-97926750D01*
X114476651Y-97906538D01*
X114485830Y-97887132D01*
X114496866Y-97868719D01*
X114509654Y-97851476D01*
X114524070Y-97835570D01*
X114539976Y-97821154D01*
X114557219Y-97808366D01*
X114575632Y-97797330D01*
X114595038Y-97788151D01*
X114615250Y-97780919D01*
X114636074Y-97775703D01*
X114657309Y-97772553D01*
X114678750Y-97771500D01*
X115191250Y-97771500D01*
X115212691Y-97772553D01*
X115212691Y-97772553D01*
G37*
D16*
X114935000Y-98209000D03*
D10*
G36*
X115212691Y-99347553D02*
G01*
X115233926Y-99350703D01*
X115254750Y-99355919D01*
X115274962Y-99363151D01*
X115294368Y-99372330D01*
X115312781Y-99383366D01*
X115330024Y-99396154D01*
X115345930Y-99410570D01*
X115360346Y-99426476D01*
X115373134Y-99443719D01*
X115384170Y-99462132D01*
X115393349Y-99481538D01*
X115400581Y-99501750D01*
X115405797Y-99522574D01*
X115408947Y-99543809D01*
X115410000Y-99565250D01*
X115410000Y-100002750D01*
X115408947Y-100024191D01*
X115405797Y-100045426D01*
X115400581Y-100066250D01*
X115393349Y-100086462D01*
X115384170Y-100105868D01*
X115373134Y-100124281D01*
X115360346Y-100141524D01*
X115345930Y-100157430D01*
X115330024Y-100171846D01*
X115312781Y-100184634D01*
X115294368Y-100195670D01*
X115274962Y-100204849D01*
X115254750Y-100212081D01*
X115233926Y-100217297D01*
X115212691Y-100220447D01*
X115191250Y-100221500D01*
X114678750Y-100221500D01*
X114657309Y-100220447D01*
X114636074Y-100217297D01*
X114615250Y-100212081D01*
X114595038Y-100204849D01*
X114575632Y-100195670D01*
X114557219Y-100184634D01*
X114539976Y-100171846D01*
X114524070Y-100157430D01*
X114509654Y-100141524D01*
X114496866Y-100124281D01*
X114485830Y-100105868D01*
X114476651Y-100086462D01*
X114469419Y-100066250D01*
X114464203Y-100045426D01*
X114461053Y-100024191D01*
X114460000Y-100002750D01*
X114460000Y-99565250D01*
X114461053Y-99543809D01*
X114464203Y-99522574D01*
X114469419Y-99501750D01*
X114476651Y-99481538D01*
X114485830Y-99462132D01*
X114496866Y-99443719D01*
X114509654Y-99426476D01*
X114524070Y-99410570D01*
X114539976Y-99396154D01*
X114557219Y-99383366D01*
X114575632Y-99372330D01*
X114595038Y-99363151D01*
X114615250Y-99355919D01*
X114636074Y-99350703D01*
X114657309Y-99347553D01*
X114678750Y-99346500D01*
X115191250Y-99346500D01*
X115212691Y-99347553D01*
X115212691Y-99347553D01*
G37*
D16*
X114935000Y-99784000D03*
D17*
X114426000Y-93218000D03*
X112776000Y-93218000D03*
X117348000Y-94742000D03*
X117348000Y-93092000D03*
D10*
G36*
X108926691Y-90204053D02*
G01*
X108947926Y-90207203D01*
X108968750Y-90212419D01*
X108988962Y-90219651D01*
X109008368Y-90228830D01*
X109026781Y-90239866D01*
X109044024Y-90252654D01*
X109059930Y-90267070D01*
X109074346Y-90282976D01*
X109087134Y-90300219D01*
X109098170Y-90318632D01*
X109107349Y-90338038D01*
X109114581Y-90358250D01*
X109119797Y-90379074D01*
X109122947Y-90400309D01*
X109124000Y-90421750D01*
X109124000Y-90934250D01*
X109122947Y-90955691D01*
X109119797Y-90976926D01*
X109114581Y-90997750D01*
X109107349Y-91017962D01*
X109098170Y-91037368D01*
X109087134Y-91055781D01*
X109074346Y-91073024D01*
X109059930Y-91088930D01*
X109044024Y-91103346D01*
X109026781Y-91116134D01*
X109008368Y-91127170D01*
X108988962Y-91136349D01*
X108968750Y-91143581D01*
X108947926Y-91148797D01*
X108926691Y-91151947D01*
X108905250Y-91153000D01*
X108467750Y-91153000D01*
X108446309Y-91151947D01*
X108425074Y-91148797D01*
X108404250Y-91143581D01*
X108384038Y-91136349D01*
X108364632Y-91127170D01*
X108346219Y-91116134D01*
X108328976Y-91103346D01*
X108313070Y-91088930D01*
X108298654Y-91073024D01*
X108285866Y-91055781D01*
X108274830Y-91037368D01*
X108265651Y-91017962D01*
X108258419Y-90997750D01*
X108253203Y-90976926D01*
X108250053Y-90955691D01*
X108249000Y-90934250D01*
X108249000Y-90421750D01*
X108250053Y-90400309D01*
X108253203Y-90379074D01*
X108258419Y-90358250D01*
X108265651Y-90338038D01*
X108274830Y-90318632D01*
X108285866Y-90300219D01*
X108298654Y-90282976D01*
X108313070Y-90267070D01*
X108328976Y-90252654D01*
X108346219Y-90239866D01*
X108364632Y-90228830D01*
X108384038Y-90219651D01*
X108404250Y-90212419D01*
X108425074Y-90207203D01*
X108446309Y-90204053D01*
X108467750Y-90203000D01*
X108905250Y-90203000D01*
X108926691Y-90204053D01*
X108926691Y-90204053D01*
G37*
D16*
X108686500Y-90678000D03*
D10*
G36*
X110501691Y-90204053D02*
G01*
X110522926Y-90207203D01*
X110543750Y-90212419D01*
X110563962Y-90219651D01*
X110583368Y-90228830D01*
X110601781Y-90239866D01*
X110619024Y-90252654D01*
X110634930Y-90267070D01*
X110649346Y-90282976D01*
X110662134Y-90300219D01*
X110673170Y-90318632D01*
X110682349Y-90338038D01*
X110689581Y-90358250D01*
X110694797Y-90379074D01*
X110697947Y-90400309D01*
X110699000Y-90421750D01*
X110699000Y-90934250D01*
X110697947Y-90955691D01*
X110694797Y-90976926D01*
X110689581Y-90997750D01*
X110682349Y-91017962D01*
X110673170Y-91037368D01*
X110662134Y-91055781D01*
X110649346Y-91073024D01*
X110634930Y-91088930D01*
X110619024Y-91103346D01*
X110601781Y-91116134D01*
X110583368Y-91127170D01*
X110563962Y-91136349D01*
X110543750Y-91143581D01*
X110522926Y-91148797D01*
X110501691Y-91151947D01*
X110480250Y-91153000D01*
X110042750Y-91153000D01*
X110021309Y-91151947D01*
X110000074Y-91148797D01*
X109979250Y-91143581D01*
X109959038Y-91136349D01*
X109939632Y-91127170D01*
X109921219Y-91116134D01*
X109903976Y-91103346D01*
X109888070Y-91088930D01*
X109873654Y-91073024D01*
X109860866Y-91055781D01*
X109849830Y-91037368D01*
X109840651Y-91017962D01*
X109833419Y-90997750D01*
X109828203Y-90976926D01*
X109825053Y-90955691D01*
X109824000Y-90934250D01*
X109824000Y-90421750D01*
X109825053Y-90400309D01*
X109828203Y-90379074D01*
X109833419Y-90358250D01*
X109840651Y-90338038D01*
X109849830Y-90318632D01*
X109860866Y-90300219D01*
X109873654Y-90282976D01*
X109888070Y-90267070D01*
X109903976Y-90252654D01*
X109921219Y-90239866D01*
X109939632Y-90228830D01*
X109959038Y-90219651D01*
X109979250Y-90212419D01*
X110000074Y-90207203D01*
X110021309Y-90204053D01*
X110042750Y-90203000D01*
X110480250Y-90203000D01*
X110501691Y-90204053D01*
X110501691Y-90204053D01*
G37*
D16*
X110261500Y-90678000D03*
D10*
G36*
X108926691Y-91982053D02*
G01*
X108947926Y-91985203D01*
X108968750Y-91990419D01*
X108988962Y-91997651D01*
X109008368Y-92006830D01*
X109026781Y-92017866D01*
X109044024Y-92030654D01*
X109059930Y-92045070D01*
X109074346Y-92060976D01*
X109087134Y-92078219D01*
X109098170Y-92096632D01*
X109107349Y-92116038D01*
X109114581Y-92136250D01*
X109119797Y-92157074D01*
X109122947Y-92178309D01*
X109124000Y-92199750D01*
X109124000Y-92712250D01*
X109122947Y-92733691D01*
X109119797Y-92754926D01*
X109114581Y-92775750D01*
X109107349Y-92795962D01*
X109098170Y-92815368D01*
X109087134Y-92833781D01*
X109074346Y-92851024D01*
X109059930Y-92866930D01*
X109044024Y-92881346D01*
X109026781Y-92894134D01*
X109008368Y-92905170D01*
X108988962Y-92914349D01*
X108968750Y-92921581D01*
X108947926Y-92926797D01*
X108926691Y-92929947D01*
X108905250Y-92931000D01*
X108467750Y-92931000D01*
X108446309Y-92929947D01*
X108425074Y-92926797D01*
X108404250Y-92921581D01*
X108384038Y-92914349D01*
X108364632Y-92905170D01*
X108346219Y-92894134D01*
X108328976Y-92881346D01*
X108313070Y-92866930D01*
X108298654Y-92851024D01*
X108285866Y-92833781D01*
X108274830Y-92815368D01*
X108265651Y-92795962D01*
X108258419Y-92775750D01*
X108253203Y-92754926D01*
X108250053Y-92733691D01*
X108249000Y-92712250D01*
X108249000Y-92199750D01*
X108250053Y-92178309D01*
X108253203Y-92157074D01*
X108258419Y-92136250D01*
X108265651Y-92116038D01*
X108274830Y-92096632D01*
X108285866Y-92078219D01*
X108298654Y-92060976D01*
X108313070Y-92045070D01*
X108328976Y-92030654D01*
X108346219Y-92017866D01*
X108364632Y-92006830D01*
X108384038Y-91997651D01*
X108404250Y-91990419D01*
X108425074Y-91985203D01*
X108446309Y-91982053D01*
X108467750Y-91981000D01*
X108905250Y-91981000D01*
X108926691Y-91982053D01*
X108926691Y-91982053D01*
G37*
D16*
X108686500Y-92456000D03*
D10*
G36*
X110501691Y-91982053D02*
G01*
X110522926Y-91985203D01*
X110543750Y-91990419D01*
X110563962Y-91997651D01*
X110583368Y-92006830D01*
X110601781Y-92017866D01*
X110619024Y-92030654D01*
X110634930Y-92045070D01*
X110649346Y-92060976D01*
X110662134Y-92078219D01*
X110673170Y-92096632D01*
X110682349Y-92116038D01*
X110689581Y-92136250D01*
X110694797Y-92157074D01*
X110697947Y-92178309D01*
X110699000Y-92199750D01*
X110699000Y-92712250D01*
X110697947Y-92733691D01*
X110694797Y-92754926D01*
X110689581Y-92775750D01*
X110682349Y-92795962D01*
X110673170Y-92815368D01*
X110662134Y-92833781D01*
X110649346Y-92851024D01*
X110634930Y-92866930D01*
X110619024Y-92881346D01*
X110601781Y-92894134D01*
X110583368Y-92905170D01*
X110563962Y-92914349D01*
X110543750Y-92921581D01*
X110522926Y-92926797D01*
X110501691Y-92929947D01*
X110480250Y-92931000D01*
X110042750Y-92931000D01*
X110021309Y-92929947D01*
X110000074Y-92926797D01*
X109979250Y-92921581D01*
X109959038Y-92914349D01*
X109939632Y-92905170D01*
X109921219Y-92894134D01*
X109903976Y-92881346D01*
X109888070Y-92866930D01*
X109873654Y-92851024D01*
X109860866Y-92833781D01*
X109849830Y-92815368D01*
X109840651Y-92795962D01*
X109833419Y-92775750D01*
X109828203Y-92754926D01*
X109825053Y-92733691D01*
X109824000Y-92712250D01*
X109824000Y-92199750D01*
X109825053Y-92178309D01*
X109828203Y-92157074D01*
X109833419Y-92136250D01*
X109840651Y-92116038D01*
X109849830Y-92096632D01*
X109860866Y-92078219D01*
X109873654Y-92060976D01*
X109888070Y-92045070D01*
X109903976Y-92030654D01*
X109921219Y-92017866D01*
X109939632Y-92006830D01*
X109959038Y-91997651D01*
X109979250Y-91990419D01*
X110000074Y-91985203D01*
X110021309Y-91982053D01*
X110042750Y-91981000D01*
X110480250Y-91981000D01*
X110501691Y-91982053D01*
X110501691Y-91982053D01*
G37*
D16*
X110261500Y-92456000D03*
D10*
G36*
X122160505Y-86804204D02*
G01*
X122184773Y-86807804D01*
X122208572Y-86813765D01*
X122231671Y-86822030D01*
X122253850Y-86832520D01*
X122274893Y-86845132D01*
X122294599Y-86859747D01*
X122312777Y-86876223D01*
X122329253Y-86894401D01*
X122343868Y-86914107D01*
X122356480Y-86935150D01*
X122366970Y-86957329D01*
X122375235Y-86980428D01*
X122381196Y-87004227D01*
X122384796Y-87028495D01*
X122386000Y-87052999D01*
X122386000Y-87953001D01*
X122384796Y-87977505D01*
X122381196Y-88001773D01*
X122375235Y-88025572D01*
X122366970Y-88048671D01*
X122356480Y-88070850D01*
X122343868Y-88091893D01*
X122329253Y-88111599D01*
X122312777Y-88129777D01*
X122294599Y-88146253D01*
X122274893Y-88160868D01*
X122253850Y-88173480D01*
X122231671Y-88183970D01*
X122208572Y-88192235D01*
X122184773Y-88198196D01*
X122160505Y-88201796D01*
X122136001Y-88203000D01*
X121485999Y-88203000D01*
X121461495Y-88201796D01*
X121437227Y-88198196D01*
X121413428Y-88192235D01*
X121390329Y-88183970D01*
X121368150Y-88173480D01*
X121347107Y-88160868D01*
X121327401Y-88146253D01*
X121309223Y-88129777D01*
X121292747Y-88111599D01*
X121278132Y-88091893D01*
X121265520Y-88070850D01*
X121255030Y-88048671D01*
X121246765Y-88025572D01*
X121240804Y-88001773D01*
X121237204Y-87977505D01*
X121236000Y-87953001D01*
X121236000Y-87052999D01*
X121237204Y-87028495D01*
X121240804Y-87004227D01*
X121246765Y-86980428D01*
X121255030Y-86957329D01*
X121265520Y-86935150D01*
X121278132Y-86914107D01*
X121292747Y-86894401D01*
X121309223Y-86876223D01*
X121327401Y-86859747D01*
X121347107Y-86845132D01*
X121368150Y-86832520D01*
X121390329Y-86822030D01*
X121413428Y-86813765D01*
X121437227Y-86807804D01*
X121461495Y-86804204D01*
X121485999Y-86803000D01*
X122136001Y-86803000D01*
X122160505Y-86804204D01*
X122160505Y-86804204D01*
G37*
D18*
X121811000Y-87503000D03*
D10*
G36*
X120110505Y-86804204D02*
G01*
X120134773Y-86807804D01*
X120158572Y-86813765D01*
X120181671Y-86822030D01*
X120203850Y-86832520D01*
X120224893Y-86845132D01*
X120244599Y-86859747D01*
X120262777Y-86876223D01*
X120279253Y-86894401D01*
X120293868Y-86914107D01*
X120306480Y-86935150D01*
X120316970Y-86957329D01*
X120325235Y-86980428D01*
X120331196Y-87004227D01*
X120334796Y-87028495D01*
X120336000Y-87052999D01*
X120336000Y-87953001D01*
X120334796Y-87977505D01*
X120331196Y-88001773D01*
X120325235Y-88025572D01*
X120316970Y-88048671D01*
X120306480Y-88070850D01*
X120293868Y-88091893D01*
X120279253Y-88111599D01*
X120262777Y-88129777D01*
X120244599Y-88146253D01*
X120224893Y-88160868D01*
X120203850Y-88173480D01*
X120181671Y-88183970D01*
X120158572Y-88192235D01*
X120134773Y-88198196D01*
X120110505Y-88201796D01*
X120086001Y-88203000D01*
X119435999Y-88203000D01*
X119411495Y-88201796D01*
X119387227Y-88198196D01*
X119363428Y-88192235D01*
X119340329Y-88183970D01*
X119318150Y-88173480D01*
X119297107Y-88160868D01*
X119277401Y-88146253D01*
X119259223Y-88129777D01*
X119242747Y-88111599D01*
X119228132Y-88091893D01*
X119215520Y-88070850D01*
X119205030Y-88048671D01*
X119196765Y-88025572D01*
X119190804Y-88001773D01*
X119187204Y-87977505D01*
X119186000Y-87953001D01*
X119186000Y-87052999D01*
X119187204Y-87028495D01*
X119190804Y-87004227D01*
X119196765Y-86980428D01*
X119205030Y-86957329D01*
X119215520Y-86935150D01*
X119228132Y-86914107D01*
X119242747Y-86894401D01*
X119259223Y-86876223D01*
X119277401Y-86859747D01*
X119297107Y-86845132D01*
X119318150Y-86832520D01*
X119340329Y-86822030D01*
X119363428Y-86813765D01*
X119387227Y-86807804D01*
X119411495Y-86804204D01*
X119435999Y-86803000D01*
X120086001Y-86803000D01*
X120110505Y-86804204D01*
X120110505Y-86804204D01*
G37*
D18*
X119761000Y-87503000D03*
D10*
G36*
X113016191Y-94522053D02*
G01*
X113037426Y-94525203D01*
X113058250Y-94530419D01*
X113078462Y-94537651D01*
X113097868Y-94546830D01*
X113116281Y-94557866D01*
X113133524Y-94570654D01*
X113149430Y-94585070D01*
X113163846Y-94600976D01*
X113176634Y-94618219D01*
X113187670Y-94636632D01*
X113196849Y-94656038D01*
X113204081Y-94676250D01*
X113209297Y-94697074D01*
X113212447Y-94718309D01*
X113213500Y-94739750D01*
X113213500Y-95252250D01*
X113212447Y-95273691D01*
X113209297Y-95294926D01*
X113204081Y-95315750D01*
X113196849Y-95335962D01*
X113187670Y-95355368D01*
X113176634Y-95373781D01*
X113163846Y-95391024D01*
X113149430Y-95406930D01*
X113133524Y-95421346D01*
X113116281Y-95434134D01*
X113097868Y-95445170D01*
X113078462Y-95454349D01*
X113058250Y-95461581D01*
X113037426Y-95466797D01*
X113016191Y-95469947D01*
X112994750Y-95471000D01*
X112557250Y-95471000D01*
X112535809Y-95469947D01*
X112514574Y-95466797D01*
X112493750Y-95461581D01*
X112473538Y-95454349D01*
X112454132Y-95445170D01*
X112435719Y-95434134D01*
X112418476Y-95421346D01*
X112402570Y-95406930D01*
X112388154Y-95391024D01*
X112375366Y-95373781D01*
X112364330Y-95355368D01*
X112355151Y-95335962D01*
X112347919Y-95315750D01*
X112342703Y-95294926D01*
X112339553Y-95273691D01*
X112338500Y-95252250D01*
X112338500Y-94739750D01*
X112339553Y-94718309D01*
X112342703Y-94697074D01*
X112347919Y-94676250D01*
X112355151Y-94656038D01*
X112364330Y-94636632D01*
X112375366Y-94618219D01*
X112388154Y-94600976D01*
X112402570Y-94585070D01*
X112418476Y-94570654D01*
X112435719Y-94557866D01*
X112454132Y-94546830D01*
X112473538Y-94537651D01*
X112493750Y-94530419D01*
X112514574Y-94525203D01*
X112535809Y-94522053D01*
X112557250Y-94521000D01*
X112994750Y-94521000D01*
X113016191Y-94522053D01*
X113016191Y-94522053D01*
G37*
D16*
X112776000Y-94996000D03*
D10*
G36*
X114591191Y-94522053D02*
G01*
X114612426Y-94525203D01*
X114633250Y-94530419D01*
X114653462Y-94537651D01*
X114672868Y-94546830D01*
X114691281Y-94557866D01*
X114708524Y-94570654D01*
X114724430Y-94585070D01*
X114738846Y-94600976D01*
X114751634Y-94618219D01*
X114762670Y-94636632D01*
X114771849Y-94656038D01*
X114779081Y-94676250D01*
X114784297Y-94697074D01*
X114787447Y-94718309D01*
X114788500Y-94739750D01*
X114788500Y-95252250D01*
X114787447Y-95273691D01*
X114784297Y-95294926D01*
X114779081Y-95315750D01*
X114771849Y-95335962D01*
X114762670Y-95355368D01*
X114751634Y-95373781D01*
X114738846Y-95391024D01*
X114724430Y-95406930D01*
X114708524Y-95421346D01*
X114691281Y-95434134D01*
X114672868Y-95445170D01*
X114653462Y-95454349D01*
X114633250Y-95461581D01*
X114612426Y-95466797D01*
X114591191Y-95469947D01*
X114569750Y-95471000D01*
X114132250Y-95471000D01*
X114110809Y-95469947D01*
X114089574Y-95466797D01*
X114068750Y-95461581D01*
X114048538Y-95454349D01*
X114029132Y-95445170D01*
X114010719Y-95434134D01*
X113993476Y-95421346D01*
X113977570Y-95406930D01*
X113963154Y-95391024D01*
X113950366Y-95373781D01*
X113939330Y-95355368D01*
X113930151Y-95335962D01*
X113922919Y-95315750D01*
X113917703Y-95294926D01*
X113914553Y-95273691D01*
X113913500Y-95252250D01*
X113913500Y-94739750D01*
X113914553Y-94718309D01*
X113917703Y-94697074D01*
X113922919Y-94676250D01*
X113930151Y-94656038D01*
X113939330Y-94636632D01*
X113950366Y-94618219D01*
X113963154Y-94600976D01*
X113977570Y-94585070D01*
X113993476Y-94570654D01*
X114010719Y-94557866D01*
X114029132Y-94546830D01*
X114048538Y-94537651D01*
X114068750Y-94530419D01*
X114089574Y-94525203D01*
X114110809Y-94522053D01*
X114132250Y-94521000D01*
X114569750Y-94521000D01*
X114591191Y-94522053D01*
X114591191Y-94522053D01*
G37*
D16*
X114351000Y-94996000D03*
D10*
G36*
X118387691Y-89428553D02*
G01*
X118408926Y-89431703D01*
X118429750Y-89436919D01*
X118449962Y-89444151D01*
X118469368Y-89453330D01*
X118487781Y-89464366D01*
X118505024Y-89477154D01*
X118520930Y-89491570D01*
X118535346Y-89507476D01*
X118548134Y-89524719D01*
X118559170Y-89543132D01*
X118568349Y-89562538D01*
X118575581Y-89582750D01*
X118580797Y-89603574D01*
X118583947Y-89624809D01*
X118585000Y-89646250D01*
X118585000Y-90083750D01*
X118583947Y-90105191D01*
X118580797Y-90126426D01*
X118575581Y-90147250D01*
X118568349Y-90167462D01*
X118559170Y-90186868D01*
X118548134Y-90205281D01*
X118535346Y-90222524D01*
X118520930Y-90238430D01*
X118505024Y-90252846D01*
X118487781Y-90265634D01*
X118469368Y-90276670D01*
X118449962Y-90285849D01*
X118429750Y-90293081D01*
X118408926Y-90298297D01*
X118387691Y-90301447D01*
X118366250Y-90302500D01*
X117853750Y-90302500D01*
X117832309Y-90301447D01*
X117811074Y-90298297D01*
X117790250Y-90293081D01*
X117770038Y-90285849D01*
X117750632Y-90276670D01*
X117732219Y-90265634D01*
X117714976Y-90252846D01*
X117699070Y-90238430D01*
X117684654Y-90222524D01*
X117671866Y-90205281D01*
X117660830Y-90186868D01*
X117651651Y-90167462D01*
X117644419Y-90147250D01*
X117639203Y-90126426D01*
X117636053Y-90105191D01*
X117635000Y-90083750D01*
X117635000Y-89646250D01*
X117636053Y-89624809D01*
X117639203Y-89603574D01*
X117644419Y-89582750D01*
X117651651Y-89562538D01*
X117660830Y-89543132D01*
X117671866Y-89524719D01*
X117684654Y-89507476D01*
X117699070Y-89491570D01*
X117714976Y-89477154D01*
X117732219Y-89464366D01*
X117750632Y-89453330D01*
X117770038Y-89444151D01*
X117790250Y-89436919D01*
X117811074Y-89431703D01*
X117832309Y-89428553D01*
X117853750Y-89427500D01*
X118366250Y-89427500D01*
X118387691Y-89428553D01*
X118387691Y-89428553D01*
G37*
D16*
X118110000Y-89865000D03*
D10*
G36*
X118387691Y-91003553D02*
G01*
X118408926Y-91006703D01*
X118429750Y-91011919D01*
X118449962Y-91019151D01*
X118469368Y-91028330D01*
X118487781Y-91039366D01*
X118505024Y-91052154D01*
X118520930Y-91066570D01*
X118535346Y-91082476D01*
X118548134Y-91099719D01*
X118559170Y-91118132D01*
X118568349Y-91137538D01*
X118575581Y-91157750D01*
X118580797Y-91178574D01*
X118583947Y-91199809D01*
X118585000Y-91221250D01*
X118585000Y-91658750D01*
X118583947Y-91680191D01*
X118580797Y-91701426D01*
X118575581Y-91722250D01*
X118568349Y-91742462D01*
X118559170Y-91761868D01*
X118548134Y-91780281D01*
X118535346Y-91797524D01*
X118520930Y-91813430D01*
X118505024Y-91827846D01*
X118487781Y-91840634D01*
X118469368Y-91851670D01*
X118449962Y-91860849D01*
X118429750Y-91868081D01*
X118408926Y-91873297D01*
X118387691Y-91876447D01*
X118366250Y-91877500D01*
X117853750Y-91877500D01*
X117832309Y-91876447D01*
X117811074Y-91873297D01*
X117790250Y-91868081D01*
X117770038Y-91860849D01*
X117750632Y-91851670D01*
X117732219Y-91840634D01*
X117714976Y-91827846D01*
X117699070Y-91813430D01*
X117684654Y-91797524D01*
X117671866Y-91780281D01*
X117660830Y-91761868D01*
X117651651Y-91742462D01*
X117644419Y-91722250D01*
X117639203Y-91701426D01*
X117636053Y-91680191D01*
X117635000Y-91658750D01*
X117635000Y-91221250D01*
X117636053Y-91199809D01*
X117639203Y-91178574D01*
X117644419Y-91157750D01*
X117651651Y-91137538D01*
X117660830Y-91118132D01*
X117671866Y-91099719D01*
X117684654Y-91082476D01*
X117699070Y-91066570D01*
X117714976Y-91052154D01*
X117732219Y-91039366D01*
X117750632Y-91028330D01*
X117770038Y-91019151D01*
X117790250Y-91011919D01*
X117811074Y-91006703D01*
X117832309Y-91003553D01*
X117853750Y-91002500D01*
X118366250Y-91002500D01*
X118387691Y-91003553D01*
X118387691Y-91003553D01*
G37*
D16*
X118110000Y-91440000D03*
D10*
G36*
X128813642Y-95002674D02*
G01*
X128837303Y-95006184D01*
X128860507Y-95011996D01*
X128883029Y-95020054D01*
X128904653Y-95030282D01*
X128925170Y-95042579D01*
X128944383Y-95056829D01*
X128962107Y-95072893D01*
X128978171Y-95090617D01*
X128992421Y-95109830D01*
X129004718Y-95130347D01*
X129014946Y-95151971D01*
X129023004Y-95174493D01*
X129028816Y-95197697D01*
X129032326Y-95221358D01*
X129033500Y-95245250D01*
X129033500Y-95732750D01*
X129032326Y-95756642D01*
X129028816Y-95780303D01*
X129023004Y-95803507D01*
X129014946Y-95826029D01*
X129004718Y-95847653D01*
X128992421Y-95868170D01*
X128978171Y-95887383D01*
X128962107Y-95905107D01*
X128944383Y-95921171D01*
X128925170Y-95935421D01*
X128904653Y-95947718D01*
X128883029Y-95957946D01*
X128860507Y-95966004D01*
X128837303Y-95971816D01*
X128813642Y-95975326D01*
X128789750Y-95976500D01*
X127877250Y-95976500D01*
X127853358Y-95975326D01*
X127829697Y-95971816D01*
X127806493Y-95966004D01*
X127783971Y-95957946D01*
X127762347Y-95947718D01*
X127741830Y-95935421D01*
X127722617Y-95921171D01*
X127704893Y-95905107D01*
X127688829Y-95887383D01*
X127674579Y-95868170D01*
X127662282Y-95847653D01*
X127652054Y-95826029D01*
X127643996Y-95803507D01*
X127638184Y-95780303D01*
X127634674Y-95756642D01*
X127633500Y-95732750D01*
X127633500Y-95245250D01*
X127634674Y-95221358D01*
X127638184Y-95197697D01*
X127643996Y-95174493D01*
X127652054Y-95151971D01*
X127662282Y-95130347D01*
X127674579Y-95109830D01*
X127688829Y-95090617D01*
X127704893Y-95072893D01*
X127722617Y-95056829D01*
X127741830Y-95042579D01*
X127762347Y-95030282D01*
X127783971Y-95020054D01*
X127806493Y-95011996D01*
X127829697Y-95006184D01*
X127853358Y-95002674D01*
X127877250Y-95001500D01*
X128789750Y-95001500D01*
X128813642Y-95002674D01*
X128813642Y-95002674D01*
G37*
D19*
X128333500Y-95489000D03*
D10*
G36*
X128813642Y-93127674D02*
G01*
X128837303Y-93131184D01*
X128860507Y-93136996D01*
X128883029Y-93145054D01*
X128904653Y-93155282D01*
X128925170Y-93167579D01*
X128944383Y-93181829D01*
X128962107Y-93197893D01*
X128978171Y-93215617D01*
X128992421Y-93234830D01*
X129004718Y-93255347D01*
X129014946Y-93276971D01*
X129023004Y-93299493D01*
X129028816Y-93322697D01*
X129032326Y-93346358D01*
X129033500Y-93370250D01*
X129033500Y-93857750D01*
X129032326Y-93881642D01*
X129028816Y-93905303D01*
X129023004Y-93928507D01*
X129014946Y-93951029D01*
X129004718Y-93972653D01*
X128992421Y-93993170D01*
X128978171Y-94012383D01*
X128962107Y-94030107D01*
X128944383Y-94046171D01*
X128925170Y-94060421D01*
X128904653Y-94072718D01*
X128883029Y-94082946D01*
X128860507Y-94091004D01*
X128837303Y-94096816D01*
X128813642Y-94100326D01*
X128789750Y-94101500D01*
X127877250Y-94101500D01*
X127853358Y-94100326D01*
X127829697Y-94096816D01*
X127806493Y-94091004D01*
X127783971Y-94082946D01*
X127762347Y-94072718D01*
X127741830Y-94060421D01*
X127722617Y-94046171D01*
X127704893Y-94030107D01*
X127688829Y-94012383D01*
X127674579Y-93993170D01*
X127662282Y-93972653D01*
X127652054Y-93951029D01*
X127643996Y-93928507D01*
X127638184Y-93905303D01*
X127634674Y-93881642D01*
X127633500Y-93857750D01*
X127633500Y-93370250D01*
X127634674Y-93346358D01*
X127638184Y-93322697D01*
X127643996Y-93299493D01*
X127652054Y-93276971D01*
X127662282Y-93255347D01*
X127674579Y-93234830D01*
X127688829Y-93215617D01*
X127704893Y-93197893D01*
X127722617Y-93181829D01*
X127741830Y-93167579D01*
X127762347Y-93155282D01*
X127783971Y-93145054D01*
X127806493Y-93136996D01*
X127829697Y-93131184D01*
X127853358Y-93127674D01*
X127877250Y-93126500D01*
X128789750Y-93126500D01*
X128813642Y-93127674D01*
X128813642Y-93127674D01*
G37*
D19*
X128333500Y-93614000D03*
D10*
G36*
X123798691Y-96554053D02*
G01*
X123819926Y-96557203D01*
X123840750Y-96562419D01*
X123860962Y-96569651D01*
X123880368Y-96578830D01*
X123898781Y-96589866D01*
X123916024Y-96602654D01*
X123931930Y-96617070D01*
X123946346Y-96632976D01*
X123959134Y-96650219D01*
X123970170Y-96668632D01*
X123979349Y-96688038D01*
X123986581Y-96708250D01*
X123991797Y-96729074D01*
X123994947Y-96750309D01*
X123996000Y-96771750D01*
X123996000Y-97284250D01*
X123994947Y-97305691D01*
X123991797Y-97326926D01*
X123986581Y-97347750D01*
X123979349Y-97367962D01*
X123970170Y-97387368D01*
X123959134Y-97405781D01*
X123946346Y-97423024D01*
X123931930Y-97438930D01*
X123916024Y-97453346D01*
X123898781Y-97466134D01*
X123880368Y-97477170D01*
X123860962Y-97486349D01*
X123840750Y-97493581D01*
X123819926Y-97498797D01*
X123798691Y-97501947D01*
X123777250Y-97503000D01*
X123339750Y-97503000D01*
X123318309Y-97501947D01*
X123297074Y-97498797D01*
X123276250Y-97493581D01*
X123256038Y-97486349D01*
X123236632Y-97477170D01*
X123218219Y-97466134D01*
X123200976Y-97453346D01*
X123185070Y-97438930D01*
X123170654Y-97423024D01*
X123157866Y-97405781D01*
X123146830Y-97387368D01*
X123137651Y-97367962D01*
X123130419Y-97347750D01*
X123125203Y-97326926D01*
X123122053Y-97305691D01*
X123121000Y-97284250D01*
X123121000Y-96771750D01*
X123122053Y-96750309D01*
X123125203Y-96729074D01*
X123130419Y-96708250D01*
X123137651Y-96688038D01*
X123146830Y-96668632D01*
X123157866Y-96650219D01*
X123170654Y-96632976D01*
X123185070Y-96617070D01*
X123200976Y-96602654D01*
X123218219Y-96589866D01*
X123236632Y-96578830D01*
X123256038Y-96569651D01*
X123276250Y-96562419D01*
X123297074Y-96557203D01*
X123318309Y-96554053D01*
X123339750Y-96553000D01*
X123777250Y-96553000D01*
X123798691Y-96554053D01*
X123798691Y-96554053D01*
G37*
D16*
X123558500Y-97028000D03*
D10*
G36*
X122223691Y-96554053D02*
G01*
X122244926Y-96557203D01*
X122265750Y-96562419D01*
X122285962Y-96569651D01*
X122305368Y-96578830D01*
X122323781Y-96589866D01*
X122341024Y-96602654D01*
X122356930Y-96617070D01*
X122371346Y-96632976D01*
X122384134Y-96650219D01*
X122395170Y-96668632D01*
X122404349Y-96688038D01*
X122411581Y-96708250D01*
X122416797Y-96729074D01*
X122419947Y-96750309D01*
X122421000Y-96771750D01*
X122421000Y-97284250D01*
X122419947Y-97305691D01*
X122416797Y-97326926D01*
X122411581Y-97347750D01*
X122404349Y-97367962D01*
X122395170Y-97387368D01*
X122384134Y-97405781D01*
X122371346Y-97423024D01*
X122356930Y-97438930D01*
X122341024Y-97453346D01*
X122323781Y-97466134D01*
X122305368Y-97477170D01*
X122285962Y-97486349D01*
X122265750Y-97493581D01*
X122244926Y-97498797D01*
X122223691Y-97501947D01*
X122202250Y-97503000D01*
X121764750Y-97503000D01*
X121743309Y-97501947D01*
X121722074Y-97498797D01*
X121701250Y-97493581D01*
X121681038Y-97486349D01*
X121661632Y-97477170D01*
X121643219Y-97466134D01*
X121625976Y-97453346D01*
X121610070Y-97438930D01*
X121595654Y-97423024D01*
X121582866Y-97405781D01*
X121571830Y-97387368D01*
X121562651Y-97367962D01*
X121555419Y-97347750D01*
X121550203Y-97326926D01*
X121547053Y-97305691D01*
X121546000Y-97284250D01*
X121546000Y-96771750D01*
X121547053Y-96750309D01*
X121550203Y-96729074D01*
X121555419Y-96708250D01*
X121562651Y-96688038D01*
X121571830Y-96668632D01*
X121582866Y-96650219D01*
X121595654Y-96632976D01*
X121610070Y-96617070D01*
X121625976Y-96602654D01*
X121643219Y-96589866D01*
X121661632Y-96578830D01*
X121681038Y-96569651D01*
X121701250Y-96562419D01*
X121722074Y-96557203D01*
X121743309Y-96554053D01*
X121764750Y-96553000D01*
X122202250Y-96553000D01*
X122223691Y-96554053D01*
X122223691Y-96554053D01*
G37*
D16*
X121983500Y-97028000D03*
D10*
G36*
X123798691Y-94268053D02*
G01*
X123819926Y-94271203D01*
X123840750Y-94276419D01*
X123860962Y-94283651D01*
X123880368Y-94292830D01*
X123898781Y-94303866D01*
X123916024Y-94316654D01*
X123931930Y-94331070D01*
X123946346Y-94346976D01*
X123959134Y-94364219D01*
X123970170Y-94382632D01*
X123979349Y-94402038D01*
X123986581Y-94422250D01*
X123991797Y-94443074D01*
X123994947Y-94464309D01*
X123996000Y-94485750D01*
X123996000Y-94998250D01*
X123994947Y-95019691D01*
X123991797Y-95040926D01*
X123986581Y-95061750D01*
X123979349Y-95081962D01*
X123970170Y-95101368D01*
X123959134Y-95119781D01*
X123946346Y-95137024D01*
X123931930Y-95152930D01*
X123916024Y-95167346D01*
X123898781Y-95180134D01*
X123880368Y-95191170D01*
X123860962Y-95200349D01*
X123840750Y-95207581D01*
X123819926Y-95212797D01*
X123798691Y-95215947D01*
X123777250Y-95217000D01*
X123339750Y-95217000D01*
X123318309Y-95215947D01*
X123297074Y-95212797D01*
X123276250Y-95207581D01*
X123256038Y-95200349D01*
X123236632Y-95191170D01*
X123218219Y-95180134D01*
X123200976Y-95167346D01*
X123185070Y-95152930D01*
X123170654Y-95137024D01*
X123157866Y-95119781D01*
X123146830Y-95101368D01*
X123137651Y-95081962D01*
X123130419Y-95061750D01*
X123125203Y-95040926D01*
X123122053Y-95019691D01*
X123121000Y-94998250D01*
X123121000Y-94485750D01*
X123122053Y-94464309D01*
X123125203Y-94443074D01*
X123130419Y-94422250D01*
X123137651Y-94402038D01*
X123146830Y-94382632D01*
X123157866Y-94364219D01*
X123170654Y-94346976D01*
X123185070Y-94331070D01*
X123200976Y-94316654D01*
X123218219Y-94303866D01*
X123236632Y-94292830D01*
X123256038Y-94283651D01*
X123276250Y-94276419D01*
X123297074Y-94271203D01*
X123318309Y-94268053D01*
X123339750Y-94267000D01*
X123777250Y-94267000D01*
X123798691Y-94268053D01*
X123798691Y-94268053D01*
G37*
D16*
X123558500Y-94742000D03*
D10*
G36*
X122223691Y-94268053D02*
G01*
X122244926Y-94271203D01*
X122265750Y-94276419D01*
X122285962Y-94283651D01*
X122305368Y-94292830D01*
X122323781Y-94303866D01*
X122341024Y-94316654D01*
X122356930Y-94331070D01*
X122371346Y-94346976D01*
X122384134Y-94364219D01*
X122395170Y-94382632D01*
X122404349Y-94402038D01*
X122411581Y-94422250D01*
X122416797Y-94443074D01*
X122419947Y-94464309D01*
X122421000Y-94485750D01*
X122421000Y-94998250D01*
X122419947Y-95019691D01*
X122416797Y-95040926D01*
X122411581Y-95061750D01*
X122404349Y-95081962D01*
X122395170Y-95101368D01*
X122384134Y-95119781D01*
X122371346Y-95137024D01*
X122356930Y-95152930D01*
X122341024Y-95167346D01*
X122323781Y-95180134D01*
X122305368Y-95191170D01*
X122285962Y-95200349D01*
X122265750Y-95207581D01*
X122244926Y-95212797D01*
X122223691Y-95215947D01*
X122202250Y-95217000D01*
X121764750Y-95217000D01*
X121743309Y-95215947D01*
X121722074Y-95212797D01*
X121701250Y-95207581D01*
X121681038Y-95200349D01*
X121661632Y-95191170D01*
X121643219Y-95180134D01*
X121625976Y-95167346D01*
X121610070Y-95152930D01*
X121595654Y-95137024D01*
X121582866Y-95119781D01*
X121571830Y-95101368D01*
X121562651Y-95081962D01*
X121555419Y-95061750D01*
X121550203Y-95040926D01*
X121547053Y-95019691D01*
X121546000Y-94998250D01*
X121546000Y-94485750D01*
X121547053Y-94464309D01*
X121550203Y-94443074D01*
X121555419Y-94422250D01*
X121562651Y-94402038D01*
X121571830Y-94382632D01*
X121582866Y-94364219D01*
X121595654Y-94346976D01*
X121610070Y-94331070D01*
X121625976Y-94316654D01*
X121643219Y-94303866D01*
X121661632Y-94292830D01*
X121681038Y-94283651D01*
X121701250Y-94276419D01*
X121722074Y-94271203D01*
X121743309Y-94268053D01*
X121764750Y-94267000D01*
X122202250Y-94267000D01*
X122223691Y-94268053D01*
X122223691Y-94268053D01*
G37*
D16*
X121983500Y-94742000D03*
D10*
G36*
X123798691Y-91982053D02*
G01*
X123819926Y-91985203D01*
X123840750Y-91990419D01*
X123860962Y-91997651D01*
X123880368Y-92006830D01*
X123898781Y-92017866D01*
X123916024Y-92030654D01*
X123931930Y-92045070D01*
X123946346Y-92060976D01*
X123959134Y-92078219D01*
X123970170Y-92096632D01*
X123979349Y-92116038D01*
X123986581Y-92136250D01*
X123991797Y-92157074D01*
X123994947Y-92178309D01*
X123996000Y-92199750D01*
X123996000Y-92712250D01*
X123994947Y-92733691D01*
X123991797Y-92754926D01*
X123986581Y-92775750D01*
X123979349Y-92795962D01*
X123970170Y-92815368D01*
X123959134Y-92833781D01*
X123946346Y-92851024D01*
X123931930Y-92866930D01*
X123916024Y-92881346D01*
X123898781Y-92894134D01*
X123880368Y-92905170D01*
X123860962Y-92914349D01*
X123840750Y-92921581D01*
X123819926Y-92926797D01*
X123798691Y-92929947D01*
X123777250Y-92931000D01*
X123339750Y-92931000D01*
X123318309Y-92929947D01*
X123297074Y-92926797D01*
X123276250Y-92921581D01*
X123256038Y-92914349D01*
X123236632Y-92905170D01*
X123218219Y-92894134D01*
X123200976Y-92881346D01*
X123185070Y-92866930D01*
X123170654Y-92851024D01*
X123157866Y-92833781D01*
X123146830Y-92815368D01*
X123137651Y-92795962D01*
X123130419Y-92775750D01*
X123125203Y-92754926D01*
X123122053Y-92733691D01*
X123121000Y-92712250D01*
X123121000Y-92199750D01*
X123122053Y-92178309D01*
X123125203Y-92157074D01*
X123130419Y-92136250D01*
X123137651Y-92116038D01*
X123146830Y-92096632D01*
X123157866Y-92078219D01*
X123170654Y-92060976D01*
X123185070Y-92045070D01*
X123200976Y-92030654D01*
X123218219Y-92017866D01*
X123236632Y-92006830D01*
X123256038Y-91997651D01*
X123276250Y-91990419D01*
X123297074Y-91985203D01*
X123318309Y-91982053D01*
X123339750Y-91981000D01*
X123777250Y-91981000D01*
X123798691Y-91982053D01*
X123798691Y-91982053D01*
G37*
D16*
X123558500Y-92456000D03*
D10*
G36*
X122223691Y-91982053D02*
G01*
X122244926Y-91985203D01*
X122265750Y-91990419D01*
X122285962Y-91997651D01*
X122305368Y-92006830D01*
X122323781Y-92017866D01*
X122341024Y-92030654D01*
X122356930Y-92045070D01*
X122371346Y-92060976D01*
X122384134Y-92078219D01*
X122395170Y-92096632D01*
X122404349Y-92116038D01*
X122411581Y-92136250D01*
X122416797Y-92157074D01*
X122419947Y-92178309D01*
X122421000Y-92199750D01*
X122421000Y-92712250D01*
X122419947Y-92733691D01*
X122416797Y-92754926D01*
X122411581Y-92775750D01*
X122404349Y-92795962D01*
X122395170Y-92815368D01*
X122384134Y-92833781D01*
X122371346Y-92851024D01*
X122356930Y-92866930D01*
X122341024Y-92881346D01*
X122323781Y-92894134D01*
X122305368Y-92905170D01*
X122285962Y-92914349D01*
X122265750Y-92921581D01*
X122244926Y-92926797D01*
X122223691Y-92929947D01*
X122202250Y-92931000D01*
X121764750Y-92931000D01*
X121743309Y-92929947D01*
X121722074Y-92926797D01*
X121701250Y-92921581D01*
X121681038Y-92914349D01*
X121661632Y-92905170D01*
X121643219Y-92894134D01*
X121625976Y-92881346D01*
X121610070Y-92866930D01*
X121595654Y-92851024D01*
X121582866Y-92833781D01*
X121571830Y-92815368D01*
X121562651Y-92795962D01*
X121555419Y-92775750D01*
X121550203Y-92754926D01*
X121547053Y-92733691D01*
X121546000Y-92712250D01*
X121546000Y-92199750D01*
X121547053Y-92178309D01*
X121550203Y-92157074D01*
X121555419Y-92136250D01*
X121562651Y-92116038D01*
X121571830Y-92096632D01*
X121582866Y-92078219D01*
X121595654Y-92060976D01*
X121610070Y-92045070D01*
X121625976Y-92030654D01*
X121643219Y-92017866D01*
X121661632Y-92006830D01*
X121681038Y-91997651D01*
X121701250Y-91990419D01*
X121722074Y-91985203D01*
X121743309Y-91982053D01*
X121764750Y-91981000D01*
X122202250Y-91981000D01*
X122223691Y-91982053D01*
X122223691Y-91982053D01*
G37*
D16*
X121983500Y-92456000D03*
D10*
G36*
X116990691Y-99347553D02*
G01*
X117011926Y-99350703D01*
X117032750Y-99355919D01*
X117052962Y-99363151D01*
X117072368Y-99372330D01*
X117090781Y-99383366D01*
X117108024Y-99396154D01*
X117123930Y-99410570D01*
X117138346Y-99426476D01*
X117151134Y-99443719D01*
X117162170Y-99462132D01*
X117171349Y-99481538D01*
X117178581Y-99501750D01*
X117183797Y-99522574D01*
X117186947Y-99543809D01*
X117188000Y-99565250D01*
X117188000Y-100002750D01*
X117186947Y-100024191D01*
X117183797Y-100045426D01*
X117178581Y-100066250D01*
X117171349Y-100086462D01*
X117162170Y-100105868D01*
X117151134Y-100124281D01*
X117138346Y-100141524D01*
X117123930Y-100157430D01*
X117108024Y-100171846D01*
X117090781Y-100184634D01*
X117072368Y-100195670D01*
X117052962Y-100204849D01*
X117032750Y-100212081D01*
X117011926Y-100217297D01*
X116990691Y-100220447D01*
X116969250Y-100221500D01*
X116456750Y-100221500D01*
X116435309Y-100220447D01*
X116414074Y-100217297D01*
X116393250Y-100212081D01*
X116373038Y-100204849D01*
X116353632Y-100195670D01*
X116335219Y-100184634D01*
X116317976Y-100171846D01*
X116302070Y-100157430D01*
X116287654Y-100141524D01*
X116274866Y-100124281D01*
X116263830Y-100105868D01*
X116254651Y-100086462D01*
X116247419Y-100066250D01*
X116242203Y-100045426D01*
X116239053Y-100024191D01*
X116238000Y-100002750D01*
X116238000Y-99565250D01*
X116239053Y-99543809D01*
X116242203Y-99522574D01*
X116247419Y-99501750D01*
X116254651Y-99481538D01*
X116263830Y-99462132D01*
X116274866Y-99443719D01*
X116287654Y-99426476D01*
X116302070Y-99410570D01*
X116317976Y-99396154D01*
X116335219Y-99383366D01*
X116353632Y-99372330D01*
X116373038Y-99363151D01*
X116393250Y-99355919D01*
X116414074Y-99350703D01*
X116435309Y-99347553D01*
X116456750Y-99346500D01*
X116969250Y-99346500D01*
X116990691Y-99347553D01*
X116990691Y-99347553D01*
G37*
D16*
X116713000Y-99784000D03*
D10*
G36*
X116990691Y-97772553D02*
G01*
X117011926Y-97775703D01*
X117032750Y-97780919D01*
X117052962Y-97788151D01*
X117072368Y-97797330D01*
X117090781Y-97808366D01*
X117108024Y-97821154D01*
X117123930Y-97835570D01*
X117138346Y-97851476D01*
X117151134Y-97868719D01*
X117162170Y-97887132D01*
X117171349Y-97906538D01*
X117178581Y-97926750D01*
X117183797Y-97947574D01*
X117186947Y-97968809D01*
X117188000Y-97990250D01*
X117188000Y-98427750D01*
X117186947Y-98449191D01*
X117183797Y-98470426D01*
X117178581Y-98491250D01*
X117171349Y-98511462D01*
X117162170Y-98530868D01*
X117151134Y-98549281D01*
X117138346Y-98566524D01*
X117123930Y-98582430D01*
X117108024Y-98596846D01*
X117090781Y-98609634D01*
X117072368Y-98620670D01*
X117052962Y-98629849D01*
X117032750Y-98637081D01*
X117011926Y-98642297D01*
X116990691Y-98645447D01*
X116969250Y-98646500D01*
X116456750Y-98646500D01*
X116435309Y-98645447D01*
X116414074Y-98642297D01*
X116393250Y-98637081D01*
X116373038Y-98629849D01*
X116353632Y-98620670D01*
X116335219Y-98609634D01*
X116317976Y-98596846D01*
X116302070Y-98582430D01*
X116287654Y-98566524D01*
X116274866Y-98549281D01*
X116263830Y-98530868D01*
X116254651Y-98511462D01*
X116247419Y-98491250D01*
X116242203Y-98470426D01*
X116239053Y-98449191D01*
X116238000Y-98427750D01*
X116238000Y-97990250D01*
X116239053Y-97968809D01*
X116242203Y-97947574D01*
X116247419Y-97926750D01*
X116254651Y-97906538D01*
X116263830Y-97887132D01*
X116274866Y-97868719D01*
X116287654Y-97851476D01*
X116302070Y-97835570D01*
X116317976Y-97821154D01*
X116335219Y-97808366D01*
X116353632Y-97797330D01*
X116373038Y-97788151D01*
X116393250Y-97780919D01*
X116414074Y-97775703D01*
X116435309Y-97772553D01*
X116456750Y-97771500D01*
X116969250Y-97771500D01*
X116990691Y-97772553D01*
X116990691Y-97772553D01*
G37*
D16*
X116713000Y-98209000D03*
D10*
G36*
X118705191Y-97772553D02*
G01*
X118726426Y-97775703D01*
X118747250Y-97780919D01*
X118767462Y-97788151D01*
X118786868Y-97797330D01*
X118805281Y-97808366D01*
X118822524Y-97821154D01*
X118838430Y-97835570D01*
X118852846Y-97851476D01*
X118865634Y-97868719D01*
X118876670Y-97887132D01*
X118885849Y-97906538D01*
X118893081Y-97926750D01*
X118898297Y-97947574D01*
X118901447Y-97968809D01*
X118902500Y-97990250D01*
X118902500Y-98427750D01*
X118901447Y-98449191D01*
X118898297Y-98470426D01*
X118893081Y-98491250D01*
X118885849Y-98511462D01*
X118876670Y-98530868D01*
X118865634Y-98549281D01*
X118852846Y-98566524D01*
X118838430Y-98582430D01*
X118822524Y-98596846D01*
X118805281Y-98609634D01*
X118786868Y-98620670D01*
X118767462Y-98629849D01*
X118747250Y-98637081D01*
X118726426Y-98642297D01*
X118705191Y-98645447D01*
X118683750Y-98646500D01*
X118171250Y-98646500D01*
X118149809Y-98645447D01*
X118128574Y-98642297D01*
X118107750Y-98637081D01*
X118087538Y-98629849D01*
X118068132Y-98620670D01*
X118049719Y-98609634D01*
X118032476Y-98596846D01*
X118016570Y-98582430D01*
X118002154Y-98566524D01*
X117989366Y-98549281D01*
X117978330Y-98530868D01*
X117969151Y-98511462D01*
X117961919Y-98491250D01*
X117956703Y-98470426D01*
X117953553Y-98449191D01*
X117952500Y-98427750D01*
X117952500Y-97990250D01*
X117953553Y-97968809D01*
X117956703Y-97947574D01*
X117961919Y-97926750D01*
X117969151Y-97906538D01*
X117978330Y-97887132D01*
X117989366Y-97868719D01*
X118002154Y-97851476D01*
X118016570Y-97835570D01*
X118032476Y-97821154D01*
X118049719Y-97808366D01*
X118068132Y-97797330D01*
X118087538Y-97788151D01*
X118107750Y-97780919D01*
X118128574Y-97775703D01*
X118149809Y-97772553D01*
X118171250Y-97771500D01*
X118683750Y-97771500D01*
X118705191Y-97772553D01*
X118705191Y-97772553D01*
G37*
D16*
X118427500Y-98209000D03*
D10*
G36*
X118705191Y-99347553D02*
G01*
X118726426Y-99350703D01*
X118747250Y-99355919D01*
X118767462Y-99363151D01*
X118786868Y-99372330D01*
X118805281Y-99383366D01*
X118822524Y-99396154D01*
X118838430Y-99410570D01*
X118852846Y-99426476D01*
X118865634Y-99443719D01*
X118876670Y-99462132D01*
X118885849Y-99481538D01*
X118893081Y-99501750D01*
X118898297Y-99522574D01*
X118901447Y-99543809D01*
X118902500Y-99565250D01*
X118902500Y-100002750D01*
X118901447Y-100024191D01*
X118898297Y-100045426D01*
X118893081Y-100066250D01*
X118885849Y-100086462D01*
X118876670Y-100105868D01*
X118865634Y-100124281D01*
X118852846Y-100141524D01*
X118838430Y-100157430D01*
X118822524Y-100171846D01*
X118805281Y-100184634D01*
X118786868Y-100195670D01*
X118767462Y-100204849D01*
X118747250Y-100212081D01*
X118726426Y-100217297D01*
X118705191Y-100220447D01*
X118683750Y-100221500D01*
X118171250Y-100221500D01*
X118149809Y-100220447D01*
X118128574Y-100217297D01*
X118107750Y-100212081D01*
X118087538Y-100204849D01*
X118068132Y-100195670D01*
X118049719Y-100184634D01*
X118032476Y-100171846D01*
X118016570Y-100157430D01*
X118002154Y-100141524D01*
X117989366Y-100124281D01*
X117978330Y-100105868D01*
X117969151Y-100086462D01*
X117961919Y-100066250D01*
X117956703Y-100045426D01*
X117953553Y-100024191D01*
X117952500Y-100002750D01*
X117952500Y-99565250D01*
X117953553Y-99543809D01*
X117956703Y-99522574D01*
X117961919Y-99501750D01*
X117969151Y-99481538D01*
X117978330Y-99462132D01*
X117989366Y-99443719D01*
X118002154Y-99426476D01*
X118016570Y-99410570D01*
X118032476Y-99396154D01*
X118049719Y-99383366D01*
X118068132Y-99372330D01*
X118087538Y-99363151D01*
X118107750Y-99355919D01*
X118128574Y-99350703D01*
X118149809Y-99347553D01*
X118171250Y-99346500D01*
X118683750Y-99346500D01*
X118705191Y-99347553D01*
X118705191Y-99347553D01*
G37*
D16*
X118427500Y-99784000D03*
D10*
G36*
X126234462Y-93974168D02*
G01*
X126237856Y-93974672D01*
X126241185Y-93975506D01*
X126244416Y-93976662D01*
X126247517Y-93978129D01*
X126250461Y-93979893D01*
X126253217Y-93981937D01*
X126255759Y-93984241D01*
X126258063Y-93986783D01*
X126260107Y-93989539D01*
X126261871Y-93992483D01*
X126263338Y-93995584D01*
X126264494Y-93998815D01*
X126265328Y-94002144D01*
X126265832Y-94005538D01*
X126266000Y-94008965D01*
X126266000Y-95094035D01*
X126265832Y-95097462D01*
X126265328Y-95100856D01*
X126264494Y-95104185D01*
X126263338Y-95107416D01*
X126261871Y-95110517D01*
X126260107Y-95113461D01*
X126258063Y-95116217D01*
X126255759Y-95118759D01*
X126253217Y-95121063D01*
X126250461Y-95123107D01*
X126247517Y-95124871D01*
X126244416Y-95126338D01*
X126241185Y-95127494D01*
X126237856Y-95128328D01*
X126234462Y-95128832D01*
X126231035Y-95129000D01*
X125355965Y-95129000D01*
X125352538Y-95128832D01*
X125349144Y-95128328D01*
X125345815Y-95127494D01*
X125342584Y-95126338D01*
X125339483Y-95124871D01*
X125336539Y-95123107D01*
X125333783Y-95121063D01*
X125331241Y-95118759D01*
X125328937Y-95116217D01*
X125326893Y-95113461D01*
X125325129Y-95110517D01*
X125323662Y-95107416D01*
X125322506Y-95104185D01*
X125321672Y-95100856D01*
X125321168Y-95097462D01*
X125321000Y-95094035D01*
X125321000Y-94008965D01*
X125321168Y-94005538D01*
X125321672Y-94002144D01*
X125322506Y-93998815D01*
X125323662Y-93995584D01*
X125325129Y-93992483D01*
X125326893Y-93989539D01*
X125328937Y-93986783D01*
X125331241Y-93984241D01*
X125333783Y-93981937D01*
X125336539Y-93979893D01*
X125339483Y-93978129D01*
X125342584Y-93976662D01*
X125345815Y-93975506D01*
X125349144Y-93974672D01*
X125352538Y-93974168D01*
X125355965Y-93974000D01*
X126231035Y-93974000D01*
X126234462Y-93974168D01*
X126234462Y-93974168D01*
G37*
D20*
X125793500Y-94551500D03*
D10*
G36*
X125314772Y-95627054D02*
G01*
X125325935Y-95628710D01*
X125336883Y-95631452D01*
X125347509Y-95635254D01*
X125357711Y-95640079D01*
X125367391Y-95645881D01*
X125376455Y-95652604D01*
X125384817Y-95660183D01*
X125392396Y-95668545D01*
X125399119Y-95677609D01*
X125404921Y-95687289D01*
X125409746Y-95697491D01*
X125413548Y-95708117D01*
X125416290Y-95719065D01*
X125417946Y-95730228D01*
X125418500Y-95741500D01*
X125418500Y-96211500D01*
X125417946Y-96222772D01*
X125416290Y-96233935D01*
X125413548Y-96244883D01*
X125409746Y-96255509D01*
X125404921Y-96265711D01*
X125399119Y-96275391D01*
X125392396Y-96284455D01*
X125384817Y-96292817D01*
X125376455Y-96300396D01*
X125367391Y-96307119D01*
X125357711Y-96312921D01*
X125347509Y-96317746D01*
X125336883Y-96321548D01*
X125325935Y-96324290D01*
X125314772Y-96325946D01*
X125303500Y-96326500D01*
X125283500Y-96326500D01*
X125272228Y-96325946D01*
X125261065Y-96324290D01*
X125250117Y-96321548D01*
X125239491Y-96317746D01*
X125229289Y-96312921D01*
X125219609Y-96307119D01*
X125210545Y-96300396D01*
X125202183Y-96292817D01*
X125194604Y-96284455D01*
X125187881Y-96275391D01*
X125182079Y-96265711D01*
X125177254Y-96255509D01*
X125173452Y-96244883D01*
X125170710Y-96233935D01*
X125169054Y-96222772D01*
X125168500Y-96211500D01*
X125168500Y-95741500D01*
X125169054Y-95730228D01*
X125170710Y-95719065D01*
X125173452Y-95708117D01*
X125177254Y-95697491D01*
X125182079Y-95687289D01*
X125187881Y-95677609D01*
X125194604Y-95668545D01*
X125202183Y-95660183D01*
X125210545Y-95652604D01*
X125219609Y-95645881D01*
X125229289Y-95640079D01*
X125239491Y-95635254D01*
X125250117Y-95631452D01*
X125261065Y-95628710D01*
X125272228Y-95627054D01*
X125283500Y-95626500D01*
X125303500Y-95626500D01*
X125314772Y-95627054D01*
X125314772Y-95627054D01*
G37*
D21*
X125293500Y-95976500D03*
D10*
G36*
X125814772Y-95627054D02*
G01*
X125825935Y-95628710D01*
X125836883Y-95631452D01*
X125847509Y-95635254D01*
X125857711Y-95640079D01*
X125867391Y-95645881D01*
X125876455Y-95652604D01*
X125884817Y-95660183D01*
X125892396Y-95668545D01*
X125899119Y-95677609D01*
X125904921Y-95687289D01*
X125909746Y-95697491D01*
X125913548Y-95708117D01*
X125916290Y-95719065D01*
X125917946Y-95730228D01*
X125918500Y-95741500D01*
X125918500Y-96211500D01*
X125917946Y-96222772D01*
X125916290Y-96233935D01*
X125913548Y-96244883D01*
X125909746Y-96255509D01*
X125904921Y-96265711D01*
X125899119Y-96275391D01*
X125892396Y-96284455D01*
X125884817Y-96292817D01*
X125876455Y-96300396D01*
X125867391Y-96307119D01*
X125857711Y-96312921D01*
X125847509Y-96317746D01*
X125836883Y-96321548D01*
X125825935Y-96324290D01*
X125814772Y-96325946D01*
X125803500Y-96326500D01*
X125783500Y-96326500D01*
X125772228Y-96325946D01*
X125761065Y-96324290D01*
X125750117Y-96321548D01*
X125739491Y-96317746D01*
X125729289Y-96312921D01*
X125719609Y-96307119D01*
X125710545Y-96300396D01*
X125702183Y-96292817D01*
X125694604Y-96284455D01*
X125687881Y-96275391D01*
X125682079Y-96265711D01*
X125677254Y-96255509D01*
X125673452Y-96244883D01*
X125670710Y-96233935D01*
X125669054Y-96222772D01*
X125668500Y-96211500D01*
X125668500Y-95741500D01*
X125669054Y-95730228D01*
X125670710Y-95719065D01*
X125673452Y-95708117D01*
X125677254Y-95697491D01*
X125682079Y-95687289D01*
X125687881Y-95677609D01*
X125694604Y-95668545D01*
X125702183Y-95660183D01*
X125710545Y-95652604D01*
X125719609Y-95645881D01*
X125729289Y-95640079D01*
X125739491Y-95635254D01*
X125750117Y-95631452D01*
X125761065Y-95628710D01*
X125772228Y-95627054D01*
X125783500Y-95626500D01*
X125803500Y-95626500D01*
X125814772Y-95627054D01*
X125814772Y-95627054D01*
G37*
D21*
X125793500Y-95976500D03*
D10*
G36*
X126314772Y-95627054D02*
G01*
X126325935Y-95628710D01*
X126336883Y-95631452D01*
X126347509Y-95635254D01*
X126357711Y-95640079D01*
X126367391Y-95645881D01*
X126376455Y-95652604D01*
X126384817Y-95660183D01*
X126392396Y-95668545D01*
X126399119Y-95677609D01*
X126404921Y-95687289D01*
X126409746Y-95697491D01*
X126413548Y-95708117D01*
X126416290Y-95719065D01*
X126417946Y-95730228D01*
X126418500Y-95741500D01*
X126418500Y-96211500D01*
X126417946Y-96222772D01*
X126416290Y-96233935D01*
X126413548Y-96244883D01*
X126409746Y-96255509D01*
X126404921Y-96265711D01*
X126399119Y-96275391D01*
X126392396Y-96284455D01*
X126384817Y-96292817D01*
X126376455Y-96300396D01*
X126367391Y-96307119D01*
X126357711Y-96312921D01*
X126347509Y-96317746D01*
X126336883Y-96321548D01*
X126325935Y-96324290D01*
X126314772Y-96325946D01*
X126303500Y-96326500D01*
X126283500Y-96326500D01*
X126272228Y-96325946D01*
X126261065Y-96324290D01*
X126250117Y-96321548D01*
X126239491Y-96317746D01*
X126229289Y-96312921D01*
X126219609Y-96307119D01*
X126210545Y-96300396D01*
X126202183Y-96292817D01*
X126194604Y-96284455D01*
X126187881Y-96275391D01*
X126182079Y-96265711D01*
X126177254Y-96255509D01*
X126173452Y-96244883D01*
X126170710Y-96233935D01*
X126169054Y-96222772D01*
X126168500Y-96211500D01*
X126168500Y-95741500D01*
X126169054Y-95730228D01*
X126170710Y-95719065D01*
X126173452Y-95708117D01*
X126177254Y-95697491D01*
X126182079Y-95687289D01*
X126187881Y-95677609D01*
X126194604Y-95668545D01*
X126202183Y-95660183D01*
X126210545Y-95652604D01*
X126219609Y-95645881D01*
X126229289Y-95640079D01*
X126239491Y-95635254D01*
X126250117Y-95631452D01*
X126261065Y-95628710D01*
X126272228Y-95627054D01*
X126283500Y-95626500D01*
X126303500Y-95626500D01*
X126314772Y-95627054D01*
X126314772Y-95627054D01*
G37*
D21*
X126293500Y-95976500D03*
D10*
G36*
X126314772Y-92777054D02*
G01*
X126325935Y-92778710D01*
X126336883Y-92781452D01*
X126347509Y-92785254D01*
X126357711Y-92790079D01*
X126367391Y-92795881D01*
X126376455Y-92802604D01*
X126384817Y-92810183D01*
X126392396Y-92818545D01*
X126399119Y-92827609D01*
X126404921Y-92837289D01*
X126409746Y-92847491D01*
X126413548Y-92858117D01*
X126416290Y-92869065D01*
X126417946Y-92880228D01*
X126418500Y-92891500D01*
X126418500Y-93361500D01*
X126417946Y-93372772D01*
X126416290Y-93383935D01*
X126413548Y-93394883D01*
X126409746Y-93405509D01*
X126404921Y-93415711D01*
X126399119Y-93425391D01*
X126392396Y-93434455D01*
X126384817Y-93442817D01*
X126376455Y-93450396D01*
X126367391Y-93457119D01*
X126357711Y-93462921D01*
X126347509Y-93467746D01*
X126336883Y-93471548D01*
X126325935Y-93474290D01*
X126314772Y-93475946D01*
X126303500Y-93476500D01*
X126283500Y-93476500D01*
X126272228Y-93475946D01*
X126261065Y-93474290D01*
X126250117Y-93471548D01*
X126239491Y-93467746D01*
X126229289Y-93462921D01*
X126219609Y-93457119D01*
X126210545Y-93450396D01*
X126202183Y-93442817D01*
X126194604Y-93434455D01*
X126187881Y-93425391D01*
X126182079Y-93415711D01*
X126177254Y-93405509D01*
X126173452Y-93394883D01*
X126170710Y-93383935D01*
X126169054Y-93372772D01*
X126168500Y-93361500D01*
X126168500Y-92891500D01*
X126169054Y-92880228D01*
X126170710Y-92869065D01*
X126173452Y-92858117D01*
X126177254Y-92847491D01*
X126182079Y-92837289D01*
X126187881Y-92827609D01*
X126194604Y-92818545D01*
X126202183Y-92810183D01*
X126210545Y-92802604D01*
X126219609Y-92795881D01*
X126229289Y-92790079D01*
X126239491Y-92785254D01*
X126250117Y-92781452D01*
X126261065Y-92778710D01*
X126272228Y-92777054D01*
X126283500Y-92776500D01*
X126303500Y-92776500D01*
X126314772Y-92777054D01*
X126314772Y-92777054D01*
G37*
D21*
X126293500Y-93126500D03*
D10*
G36*
X125314772Y-92777054D02*
G01*
X125325935Y-92778710D01*
X125336883Y-92781452D01*
X125347509Y-92785254D01*
X125357711Y-92790079D01*
X125367391Y-92795881D01*
X125376455Y-92802604D01*
X125384817Y-92810183D01*
X125392396Y-92818545D01*
X125399119Y-92827609D01*
X125404921Y-92837289D01*
X125409746Y-92847491D01*
X125413548Y-92858117D01*
X125416290Y-92869065D01*
X125417946Y-92880228D01*
X125418500Y-92891500D01*
X125418500Y-93361500D01*
X125417946Y-93372772D01*
X125416290Y-93383935D01*
X125413548Y-93394883D01*
X125409746Y-93405509D01*
X125404921Y-93415711D01*
X125399119Y-93425391D01*
X125392396Y-93434455D01*
X125384817Y-93442817D01*
X125376455Y-93450396D01*
X125367391Y-93457119D01*
X125357711Y-93462921D01*
X125347509Y-93467746D01*
X125336883Y-93471548D01*
X125325935Y-93474290D01*
X125314772Y-93475946D01*
X125303500Y-93476500D01*
X125283500Y-93476500D01*
X125272228Y-93475946D01*
X125261065Y-93474290D01*
X125250117Y-93471548D01*
X125239491Y-93467746D01*
X125229289Y-93462921D01*
X125219609Y-93457119D01*
X125210545Y-93450396D01*
X125202183Y-93442817D01*
X125194604Y-93434455D01*
X125187881Y-93425391D01*
X125182079Y-93415711D01*
X125177254Y-93405509D01*
X125173452Y-93394883D01*
X125170710Y-93383935D01*
X125169054Y-93372772D01*
X125168500Y-93361500D01*
X125168500Y-92891500D01*
X125169054Y-92880228D01*
X125170710Y-92869065D01*
X125173452Y-92858117D01*
X125177254Y-92847491D01*
X125182079Y-92837289D01*
X125187881Y-92827609D01*
X125194604Y-92818545D01*
X125202183Y-92810183D01*
X125210545Y-92802604D01*
X125219609Y-92795881D01*
X125229289Y-92790079D01*
X125239491Y-92785254D01*
X125250117Y-92781452D01*
X125261065Y-92778710D01*
X125272228Y-92777054D01*
X125283500Y-92776500D01*
X125303500Y-92776500D01*
X125314772Y-92777054D01*
X125314772Y-92777054D01*
G37*
D21*
X125293500Y-93126500D03*
D10*
G36*
X125814772Y-92777054D02*
G01*
X125825935Y-92778710D01*
X125836883Y-92781452D01*
X125847509Y-92785254D01*
X125857711Y-92790079D01*
X125867391Y-92795881D01*
X125876455Y-92802604D01*
X125884817Y-92810183D01*
X125892396Y-92818545D01*
X125899119Y-92827609D01*
X125904921Y-92837289D01*
X125909746Y-92847491D01*
X125913548Y-92858117D01*
X125916290Y-92869065D01*
X125917946Y-92880228D01*
X125918500Y-92891500D01*
X125918500Y-93361500D01*
X125917946Y-93372772D01*
X125916290Y-93383935D01*
X125913548Y-93394883D01*
X125909746Y-93405509D01*
X125904921Y-93415711D01*
X125899119Y-93425391D01*
X125892396Y-93434455D01*
X125884817Y-93442817D01*
X125876455Y-93450396D01*
X125867391Y-93457119D01*
X125857711Y-93462921D01*
X125847509Y-93467746D01*
X125836883Y-93471548D01*
X125825935Y-93474290D01*
X125814772Y-93475946D01*
X125803500Y-93476500D01*
X125783500Y-93476500D01*
X125772228Y-93475946D01*
X125761065Y-93474290D01*
X125750117Y-93471548D01*
X125739491Y-93467746D01*
X125729289Y-93462921D01*
X125719609Y-93457119D01*
X125710545Y-93450396D01*
X125702183Y-93442817D01*
X125694604Y-93434455D01*
X125687881Y-93425391D01*
X125682079Y-93415711D01*
X125677254Y-93405509D01*
X125673452Y-93394883D01*
X125670710Y-93383935D01*
X125669054Y-93372772D01*
X125668500Y-93361500D01*
X125668500Y-92891500D01*
X125669054Y-92880228D01*
X125670710Y-92869065D01*
X125673452Y-92858117D01*
X125677254Y-92847491D01*
X125682079Y-92837289D01*
X125687881Y-92827609D01*
X125694604Y-92818545D01*
X125702183Y-92810183D01*
X125710545Y-92802604D01*
X125719609Y-92795881D01*
X125729289Y-92790079D01*
X125739491Y-92785254D01*
X125750117Y-92781452D01*
X125761065Y-92778710D01*
X125772228Y-92777054D01*
X125783500Y-92776500D01*
X125803500Y-92776500D01*
X125814772Y-92777054D01*
X125814772Y-92777054D01*
G37*
D21*
X125793500Y-93126500D03*
M02*
