G04 #@! TF.GenerationSoftware,KiCad,Pcbnew,(5.1.2)-1*
G04 #@! TF.CreationDate,2019-07-15T17:46:34-04:00*
G04 #@! TF.ProjectId,Charger Prototype,43686172-6765-4722-9050-726f746f7479,v1.0*
G04 #@! TF.SameCoordinates,Original*
G04 #@! TF.FileFunction,Soldermask,Bot*
G04 #@! TF.FilePolarity,Negative*
%FSLAX46Y46*%
G04 Gerber Fmt 4.6, Leading zero omitted, Abs format (unit mm)*
G04 Created by KiCad (PCBNEW (5.1.2)-1) date 2019-07-15 17:46:34*
%MOMM*%
%LPD*%
G04 APERTURE LIST*
%ADD10O,1.101600X1.101600*%
%ADD11R,1.101600X1.101600*%
%ADD12C,1.901600*%
%ADD13C,2.301600*%
%ADD14O,3.601600X2.101600*%
%ADD15O,1.301600X1.851600*%
%ADD16C,0.100000*%
%ADD17C,1.301600*%
%ADD18C,2.001600*%
%ADD19C,3.401600*%
%ADD20C,1.701600*%
G04 APERTURE END LIST*
D10*
X123952000Y-87757000D03*
X125222000Y-87757000D03*
X126492000Y-87757000D03*
X127762000Y-87757000D03*
D11*
X129032000Y-87757000D03*
D10*
X125730000Y-99441000D03*
X124460000Y-99441000D03*
X123190000Y-99441000D03*
X121920000Y-99441000D03*
D11*
X120650000Y-99441000D03*
D12*
X104970000Y-96210000D03*
X104970000Y-93710000D03*
X104970000Y-91710000D03*
X104970000Y-89210000D03*
D13*
X102870000Y-95010000D03*
X102870000Y-90410000D03*
D14*
X102870000Y-98560000D03*
X102870000Y-86860000D03*
D15*
X132747000Y-91059000D03*
D16*
G36*
X135153213Y-90134506D02*
G01*
X135179536Y-90138410D01*
X135205349Y-90144876D01*
X135230405Y-90153841D01*
X135254461Y-90165219D01*
X135277286Y-90178900D01*
X135298660Y-90194752D01*
X135318377Y-90212623D01*
X135336248Y-90232340D01*
X135352100Y-90253714D01*
X135365781Y-90276539D01*
X135377159Y-90300595D01*
X135386124Y-90325651D01*
X135392590Y-90351464D01*
X135396494Y-90377787D01*
X135397800Y-90404366D01*
X135397800Y-91713634D01*
X135396494Y-91740213D01*
X135392590Y-91766536D01*
X135386124Y-91792349D01*
X135377159Y-91817405D01*
X135365781Y-91841461D01*
X135352100Y-91864286D01*
X135336248Y-91885660D01*
X135318377Y-91905377D01*
X135298660Y-91923248D01*
X135277286Y-91939100D01*
X135254461Y-91952781D01*
X135230405Y-91964159D01*
X135205349Y-91973124D01*
X135179536Y-91979590D01*
X135153213Y-91983494D01*
X135126634Y-91984800D01*
X134367366Y-91984800D01*
X134340787Y-91983494D01*
X134314464Y-91979590D01*
X134288651Y-91973124D01*
X134263595Y-91964159D01*
X134239539Y-91952781D01*
X134216714Y-91939100D01*
X134195340Y-91923248D01*
X134175623Y-91905377D01*
X134157752Y-91885660D01*
X134141900Y-91864286D01*
X134128219Y-91841461D01*
X134116841Y-91817405D01*
X134107876Y-91792349D01*
X134101410Y-91766536D01*
X134097506Y-91740213D01*
X134096200Y-91713634D01*
X134096200Y-90404366D01*
X134097506Y-90377787D01*
X134101410Y-90351464D01*
X134107876Y-90325651D01*
X134116841Y-90300595D01*
X134128219Y-90276539D01*
X134141900Y-90253714D01*
X134157752Y-90232340D01*
X134175623Y-90212623D01*
X134195340Y-90194752D01*
X134216714Y-90178900D01*
X134239539Y-90165219D01*
X134263595Y-90153841D01*
X134288651Y-90144876D01*
X134314464Y-90138410D01*
X134340787Y-90134506D01*
X134367366Y-90133200D01*
X135126634Y-90133200D01*
X135153213Y-90134506D01*
X135153213Y-90134506D01*
G37*
D17*
X134747000Y-91059000D03*
D18*
X140038000Y-88960000D03*
X140048000Y-91460000D03*
X140023000Y-93960000D03*
X140038000Y-96460000D03*
D19*
X142748000Y-86140000D03*
X142748000Y-99280000D03*
D20*
X129921000Y-99441000D03*
X135001000Y-99441000D03*
X132461000Y-99441000D03*
M02*
