G04 #@! TF.GenerationSoftware,KiCad,Pcbnew,(5.1.2)-1*
G04 #@! TF.CreationDate,2019-07-15T17:46:34-04:00*
G04 #@! TF.ProjectId,Charger Prototype,43686172-6765-4722-9050-726f746f7479,v1.0*
G04 #@! TF.SameCoordinates,Original*
G04 #@! TF.FileFunction,Copper,L2,Bot*
G04 #@! TF.FilePolarity,Positive*
%FSLAX46Y46*%
G04 Gerber Fmt 4.6, Leading zero omitted, Abs format (unit mm)*
G04 Created by KiCad (PCBNEW (5.1.2)-1) date 2019-07-15 17:46:34*
%MOMM*%
%LPD*%
G04 APERTURE LIST*
%ADD10C,0.100000*%
%ADD11C,0.800000*%
%ADD12R,1.100000X1.500000*%
%ADD13O,1.000000X1.000000*%
%ADD14R,1.000000X1.000000*%
%ADD15C,1.800000*%
%ADD16C,2.200000*%
%ADD17O,3.500000X2.000000*%
%ADD18O,1.200000X1.750000*%
%ADD19C,1.200000*%
%ADD20C,1.900000*%
%ADD21C,3.300000*%
%ADD22C,1.600000*%
%ADD23C,0.508000*%
%ADD24C,1.016000*%
%ADD25C,0.152400*%
%ADD26C,0.508000*%
%ADD27C,0.254000*%
G04 APERTURE END LIST*
D10*
G36*
X114459921Y-90182193D02*
G01*
X114463804Y-90182769D01*
X114467611Y-90183722D01*
X114471307Y-90185045D01*
X114474856Y-90186723D01*
X114478223Y-90188741D01*
X114481376Y-90191080D01*
X114484284Y-90193716D01*
X114486920Y-90196624D01*
X114489259Y-90199777D01*
X114491277Y-90203144D01*
X114492955Y-90206693D01*
X114494278Y-90210389D01*
X114495231Y-90214196D01*
X114495807Y-90218079D01*
X114496000Y-90222000D01*
X114496000Y-90942000D01*
X114495807Y-90945921D01*
X114495231Y-90949804D01*
X114494278Y-90953611D01*
X114492955Y-90957307D01*
X114491277Y-90960856D01*
X114489259Y-90964223D01*
X114486920Y-90967376D01*
X114484284Y-90970284D01*
X114481376Y-90972920D01*
X114478223Y-90975259D01*
X114474856Y-90977277D01*
X114471307Y-90978955D01*
X114467611Y-90980278D01*
X114463804Y-90981231D01*
X114459921Y-90981807D01*
X114456000Y-90982000D01*
X113636000Y-90982000D01*
X113632079Y-90981807D01*
X113628196Y-90981231D01*
X113624389Y-90980278D01*
X113620693Y-90978955D01*
X113617144Y-90977277D01*
X113613777Y-90975259D01*
X113610624Y-90972920D01*
X113607716Y-90970284D01*
X113605080Y-90967376D01*
X113602741Y-90964223D01*
X113600723Y-90960856D01*
X113599045Y-90957307D01*
X113597722Y-90953611D01*
X113596769Y-90949804D01*
X113596193Y-90945921D01*
X113596000Y-90942000D01*
X113596000Y-90222000D01*
X113596193Y-90218079D01*
X113596769Y-90214196D01*
X113597722Y-90210389D01*
X113599045Y-90206693D01*
X113600723Y-90203144D01*
X113602741Y-90199777D01*
X113605080Y-90196624D01*
X113607716Y-90193716D01*
X113610624Y-90191080D01*
X113613777Y-90188741D01*
X113617144Y-90186723D01*
X113620693Y-90185045D01*
X113624389Y-90183722D01*
X113628196Y-90182769D01*
X113632079Y-90182193D01*
X113636000Y-90182000D01*
X114456000Y-90182000D01*
X114459921Y-90182193D01*
X114459921Y-90182193D01*
G37*
D11*
X114046000Y-90582000D03*
D10*
G36*
X114459921Y-90882193D02*
G01*
X114463804Y-90882769D01*
X114467611Y-90883722D01*
X114471307Y-90885045D01*
X114474856Y-90886723D01*
X114478223Y-90888741D01*
X114481376Y-90891080D01*
X114484284Y-90893716D01*
X114486920Y-90896624D01*
X114489259Y-90899777D01*
X114491277Y-90903144D01*
X114492955Y-90906693D01*
X114494278Y-90910389D01*
X114495231Y-90914196D01*
X114495807Y-90918079D01*
X114496000Y-90922000D01*
X114496000Y-91642000D01*
X114495807Y-91645921D01*
X114495231Y-91649804D01*
X114494278Y-91653611D01*
X114492955Y-91657307D01*
X114491277Y-91660856D01*
X114489259Y-91664223D01*
X114486920Y-91667376D01*
X114484284Y-91670284D01*
X114481376Y-91672920D01*
X114478223Y-91675259D01*
X114474856Y-91677277D01*
X114471307Y-91678955D01*
X114467611Y-91680278D01*
X114463804Y-91681231D01*
X114459921Y-91681807D01*
X114456000Y-91682000D01*
X113636000Y-91682000D01*
X113632079Y-91681807D01*
X113628196Y-91681231D01*
X113624389Y-91680278D01*
X113620693Y-91678955D01*
X113617144Y-91677277D01*
X113613777Y-91675259D01*
X113610624Y-91672920D01*
X113607716Y-91670284D01*
X113605080Y-91667376D01*
X113602741Y-91664223D01*
X113600723Y-91660856D01*
X113599045Y-91657307D01*
X113597722Y-91653611D01*
X113596769Y-91649804D01*
X113596193Y-91645921D01*
X113596000Y-91642000D01*
X113596000Y-90922000D01*
X113596193Y-90918079D01*
X113596769Y-90914196D01*
X113597722Y-90910389D01*
X113599045Y-90906693D01*
X113600723Y-90903144D01*
X113602741Y-90899777D01*
X113605080Y-90896624D01*
X113607716Y-90893716D01*
X113610624Y-90891080D01*
X113613777Y-90888741D01*
X113617144Y-90886723D01*
X113620693Y-90885045D01*
X113624389Y-90883722D01*
X113628196Y-90882769D01*
X113632079Y-90882193D01*
X113636000Y-90882000D01*
X114456000Y-90882000D01*
X114459921Y-90882193D01*
X114459921Y-90882193D01*
G37*
D11*
X114046000Y-91282000D03*
D12*
X111633000Y-98996500D03*
D13*
X123952000Y-87757000D03*
X125222000Y-87757000D03*
X126492000Y-87757000D03*
X127762000Y-87757000D03*
D14*
X129032000Y-87757000D03*
D13*
X125730000Y-99441000D03*
X124460000Y-99441000D03*
X123190000Y-99441000D03*
X121920000Y-99441000D03*
D14*
X120650000Y-99441000D03*
D15*
X104970000Y-96210000D03*
X104970000Y-93710000D03*
X104970000Y-91710000D03*
X104970000Y-89210000D03*
D16*
X102870000Y-95010000D03*
X102870000Y-90410000D03*
D17*
X102870000Y-98560000D03*
X102870000Y-86860000D03*
D18*
X132747000Y-91059000D03*
D10*
G36*
X135121505Y-90185204D02*
G01*
X135145773Y-90188804D01*
X135169572Y-90194765D01*
X135192671Y-90203030D01*
X135214850Y-90213520D01*
X135235893Y-90226132D01*
X135255599Y-90240747D01*
X135273777Y-90257223D01*
X135290253Y-90275401D01*
X135304868Y-90295107D01*
X135317480Y-90316150D01*
X135327970Y-90338329D01*
X135336235Y-90361428D01*
X135342196Y-90385227D01*
X135345796Y-90409495D01*
X135347000Y-90433999D01*
X135347000Y-91684001D01*
X135345796Y-91708505D01*
X135342196Y-91732773D01*
X135336235Y-91756572D01*
X135327970Y-91779671D01*
X135317480Y-91801850D01*
X135304868Y-91822893D01*
X135290253Y-91842599D01*
X135273777Y-91860777D01*
X135255599Y-91877253D01*
X135235893Y-91891868D01*
X135214850Y-91904480D01*
X135192671Y-91914970D01*
X135169572Y-91923235D01*
X135145773Y-91929196D01*
X135121505Y-91932796D01*
X135097001Y-91934000D01*
X134396999Y-91934000D01*
X134372495Y-91932796D01*
X134348227Y-91929196D01*
X134324428Y-91923235D01*
X134301329Y-91914970D01*
X134279150Y-91904480D01*
X134258107Y-91891868D01*
X134238401Y-91877253D01*
X134220223Y-91860777D01*
X134203747Y-91842599D01*
X134189132Y-91822893D01*
X134176520Y-91801850D01*
X134166030Y-91779671D01*
X134157765Y-91756572D01*
X134151804Y-91732773D01*
X134148204Y-91708505D01*
X134147000Y-91684001D01*
X134147000Y-90433999D01*
X134148204Y-90409495D01*
X134151804Y-90385227D01*
X134157765Y-90361428D01*
X134166030Y-90338329D01*
X134176520Y-90316150D01*
X134189132Y-90295107D01*
X134203747Y-90275401D01*
X134220223Y-90257223D01*
X134238401Y-90240747D01*
X134258107Y-90226132D01*
X134279150Y-90213520D01*
X134301329Y-90203030D01*
X134324428Y-90194765D01*
X134348227Y-90188804D01*
X134372495Y-90185204D01*
X134396999Y-90184000D01*
X135097001Y-90184000D01*
X135121505Y-90185204D01*
X135121505Y-90185204D01*
G37*
D19*
X134747000Y-91059000D03*
D20*
X140038000Y-88960000D03*
X140048000Y-91460000D03*
X140023000Y-93960000D03*
X140038000Y-96460000D03*
D21*
X142748000Y-86140000D03*
X142748000Y-99280000D03*
D22*
X129921000Y-99441000D03*
X135001000Y-99441000D03*
X132461000Y-99441000D03*
D23*
X111252000Y-91059000D03*
X124460000Y-91186000D03*
X112141000Y-89027000D03*
X114935000Y-89027000D03*
X108712000Y-89535000D03*
X108712000Y-93726000D03*
X119380000Y-96901000D03*
X107061000Y-97917000D03*
D24*
X105537000Y-87249000D03*
D23*
X121793000Y-89027000D03*
X125603000Y-89154000D03*
X116078000Y-92456000D03*
X123190000Y-89154000D03*
X116840000Y-91186000D03*
D24*
X107155908Y-86708908D03*
X107982092Y-87535092D03*
D23*
X124206000Y-89154000D03*
X116840000Y-91948000D03*
X122555000Y-95885000D03*
X121285000Y-95885000D03*
X116840000Y-90424000D03*
X118491000Y-87376000D03*
X122555000Y-93599000D03*
X121285000Y-93599000D03*
D25*
X122301000Y-92456000D02*
X125603000Y-89154000D01*
X116078000Y-92456000D02*
X122301000Y-92456000D01*
X121158000Y-91186000D02*
X123190000Y-89154000D01*
X116840000Y-91186000D02*
X121158000Y-91186000D01*
D26*
X107155908Y-87068118D02*
X107155908Y-86708908D01*
X106476800Y-87747226D02*
X107155908Y-87068118D01*
X106476800Y-91269253D02*
X106476800Y-87747226D01*
X106036053Y-91710000D02*
X106476800Y-91269253D01*
X104970000Y-91710000D02*
X106036053Y-91710000D01*
X107622882Y-87535092D02*
X107982092Y-87535092D01*
X104970000Y-93710000D02*
X107137200Y-91542800D01*
X107137200Y-91542800D02*
X107137200Y-88020774D01*
X107137200Y-88020774D02*
X107622882Y-87535092D01*
D25*
X121412000Y-91948000D02*
X124206000Y-89154000D01*
X116840000Y-91948000D02*
X121412000Y-91948000D01*
X122555000Y-95885000D02*
X121285000Y-95885000D01*
X116840000Y-90424000D02*
X116840000Y-89027000D01*
X116840000Y-89027000D02*
X118491000Y-87376000D01*
X122555000Y-93599000D02*
X121285000Y-93599000D01*
D27*
G36*
X141785961Y-84340151D02*
G01*
X141453313Y-84562419D01*
X141170419Y-84845313D01*
X140948151Y-85177961D01*
X140795050Y-85547579D01*
X140717000Y-85939964D01*
X140717000Y-86340036D01*
X140795050Y-86732421D01*
X140948151Y-87102039D01*
X141170419Y-87434687D01*
X141453313Y-87717581D01*
X141785961Y-87939849D01*
X142155579Y-88092950D01*
X142547964Y-88171000D01*
X142948036Y-88171000D01*
X143340421Y-88092950D01*
X143710039Y-87939849D01*
X144042687Y-87717581D01*
X144325581Y-87434687D01*
X144547849Y-87102039D01*
X144700950Y-86732421D01*
X144779000Y-86340036D01*
X144779000Y-85939964D01*
X144700950Y-85547579D01*
X144547849Y-85177961D01*
X144325581Y-84845313D01*
X144042687Y-84562419D01*
X143710039Y-84340151D01*
X143404760Y-84213700D01*
X152514300Y-84213700D01*
X152514301Y-101206300D01*
X143404760Y-101206300D01*
X143710039Y-101079849D01*
X144042687Y-100857581D01*
X144325581Y-100574687D01*
X144547849Y-100242039D01*
X144700950Y-99872421D01*
X144779000Y-99480036D01*
X144779000Y-99079964D01*
X144700950Y-98687579D01*
X144547849Y-98317961D01*
X144325581Y-97985313D01*
X144042687Y-97702419D01*
X143710039Y-97480151D01*
X143340421Y-97327050D01*
X142948036Y-97249000D01*
X142547964Y-97249000D01*
X142155579Y-97327050D01*
X141785961Y-97480151D01*
X141453313Y-97702419D01*
X141170419Y-97985313D01*
X140948151Y-98317961D01*
X140795050Y-98687579D01*
X140717000Y-99079964D01*
X140717000Y-99480036D01*
X140795050Y-99872421D01*
X140948151Y-100242039D01*
X141170419Y-100574687D01*
X141453313Y-100857581D01*
X141785961Y-101079849D01*
X142091240Y-101206300D01*
X100520500Y-101206300D01*
X100520500Y-98560000D01*
X100732318Y-98560000D01*
X100758982Y-98830723D01*
X100837949Y-99091043D01*
X100966185Y-99330955D01*
X101138761Y-99541239D01*
X101349045Y-99713815D01*
X101588957Y-99842051D01*
X101849277Y-99921018D01*
X102052157Y-99941000D01*
X103687843Y-99941000D01*
X103890723Y-99921018D01*
X104151043Y-99842051D01*
X104329805Y-99746500D01*
X110444928Y-99746500D01*
X110457188Y-99870982D01*
X110493498Y-99990680D01*
X110552463Y-100100994D01*
X110631815Y-100197685D01*
X110728506Y-100277037D01*
X110838820Y-100336002D01*
X110958518Y-100372312D01*
X111083000Y-100384572D01*
X111347250Y-100381500D01*
X111506000Y-100222750D01*
X111506000Y-99123500D01*
X111760000Y-99123500D01*
X111760000Y-100222750D01*
X111918750Y-100381500D01*
X112183000Y-100384572D01*
X112307482Y-100372312D01*
X112427180Y-100336002D01*
X112537494Y-100277037D01*
X112634185Y-100197685D01*
X112713537Y-100100994D01*
X112772502Y-99990680D01*
X112808812Y-99870982D01*
X112821072Y-99746500D01*
X112818000Y-99282250D01*
X112659250Y-99123500D01*
X111760000Y-99123500D01*
X111506000Y-99123500D01*
X110606750Y-99123500D01*
X110448000Y-99282250D01*
X110444928Y-99746500D01*
X104329805Y-99746500D01*
X104390955Y-99713815D01*
X104601239Y-99541239D01*
X104773815Y-99330955D01*
X104902051Y-99091043D01*
X104947565Y-98941000D01*
X119767157Y-98941000D01*
X119767157Y-99941000D01*
X119774513Y-100015689D01*
X119796299Y-100087508D01*
X119831678Y-100153696D01*
X119879289Y-100211711D01*
X119937304Y-100259322D01*
X120003492Y-100294701D01*
X120075311Y-100316487D01*
X120150000Y-100323843D01*
X121150000Y-100323843D01*
X121224689Y-100316487D01*
X121296508Y-100294701D01*
X121362696Y-100259322D01*
X121420711Y-100211711D01*
X121442749Y-100184858D01*
X121581225Y-100258875D01*
X121747294Y-100309252D01*
X121876727Y-100322000D01*
X121963273Y-100322000D01*
X122092706Y-100309252D01*
X122258775Y-100258875D01*
X122411825Y-100177068D01*
X122545975Y-100066975D01*
X122555000Y-100055978D01*
X122564025Y-100066975D01*
X122698175Y-100177068D01*
X122851225Y-100258875D01*
X123017294Y-100309252D01*
X123146727Y-100322000D01*
X123233273Y-100322000D01*
X123362706Y-100309252D01*
X123528775Y-100258875D01*
X123681825Y-100177068D01*
X123815975Y-100066975D01*
X123825000Y-100055978D01*
X123834025Y-100066975D01*
X123968175Y-100177068D01*
X124121225Y-100258875D01*
X124287294Y-100309252D01*
X124416727Y-100322000D01*
X124503273Y-100322000D01*
X124632706Y-100309252D01*
X124798775Y-100258875D01*
X124951825Y-100177068D01*
X125085975Y-100066975D01*
X125095000Y-100055978D01*
X125104025Y-100066975D01*
X125238175Y-100177068D01*
X125391225Y-100258875D01*
X125557294Y-100309252D01*
X125686727Y-100322000D01*
X125773273Y-100322000D01*
X125902706Y-100309252D01*
X126068775Y-100258875D01*
X126221825Y-100177068D01*
X126355975Y-100066975D01*
X126466068Y-99932825D01*
X126547875Y-99779775D01*
X126598252Y-99613706D01*
X126615262Y-99441000D01*
X126603806Y-99324682D01*
X128740000Y-99324682D01*
X128740000Y-99557318D01*
X128785386Y-99785485D01*
X128874412Y-100000413D01*
X129003658Y-100193843D01*
X129168157Y-100358342D01*
X129361587Y-100487588D01*
X129576515Y-100576614D01*
X129804682Y-100622000D01*
X130037318Y-100622000D01*
X130265485Y-100576614D01*
X130480413Y-100487588D01*
X130673843Y-100358342D01*
X130838342Y-100193843D01*
X130967588Y-100000413D01*
X131056614Y-99785485D01*
X131102000Y-99557318D01*
X131102000Y-99324682D01*
X131280000Y-99324682D01*
X131280000Y-99557318D01*
X131325386Y-99785485D01*
X131414412Y-100000413D01*
X131543658Y-100193843D01*
X131708157Y-100358342D01*
X131901587Y-100487588D01*
X132116515Y-100576614D01*
X132344682Y-100622000D01*
X132577318Y-100622000D01*
X132805485Y-100576614D01*
X133020413Y-100487588D01*
X133213843Y-100358342D01*
X133378342Y-100193843D01*
X133507588Y-100000413D01*
X133596614Y-99785485D01*
X133642000Y-99557318D01*
X133642000Y-99324682D01*
X133820000Y-99324682D01*
X133820000Y-99557318D01*
X133865386Y-99785485D01*
X133954412Y-100000413D01*
X134083658Y-100193843D01*
X134248157Y-100358342D01*
X134441587Y-100487588D01*
X134656515Y-100576614D01*
X134884682Y-100622000D01*
X135117318Y-100622000D01*
X135345485Y-100576614D01*
X135560413Y-100487588D01*
X135753843Y-100358342D01*
X135918342Y-100193843D01*
X136047588Y-100000413D01*
X136136614Y-99785485D01*
X136182000Y-99557318D01*
X136182000Y-99324682D01*
X136136614Y-99096515D01*
X136047588Y-98881587D01*
X135918342Y-98688157D01*
X135753843Y-98523658D01*
X135560413Y-98394412D01*
X135345485Y-98305386D01*
X135117318Y-98260000D01*
X134884682Y-98260000D01*
X134656515Y-98305386D01*
X134441587Y-98394412D01*
X134248157Y-98523658D01*
X134083658Y-98688157D01*
X133954412Y-98881587D01*
X133865386Y-99096515D01*
X133820000Y-99324682D01*
X133642000Y-99324682D01*
X133596614Y-99096515D01*
X133507588Y-98881587D01*
X133378342Y-98688157D01*
X133213843Y-98523658D01*
X133020413Y-98394412D01*
X132805485Y-98305386D01*
X132577318Y-98260000D01*
X132344682Y-98260000D01*
X132116515Y-98305386D01*
X131901587Y-98394412D01*
X131708157Y-98523658D01*
X131543658Y-98688157D01*
X131414412Y-98881587D01*
X131325386Y-99096515D01*
X131280000Y-99324682D01*
X131102000Y-99324682D01*
X131056614Y-99096515D01*
X130967588Y-98881587D01*
X130838342Y-98688157D01*
X130673843Y-98523658D01*
X130480413Y-98394412D01*
X130265485Y-98305386D01*
X130037318Y-98260000D01*
X129804682Y-98260000D01*
X129576515Y-98305386D01*
X129361587Y-98394412D01*
X129168157Y-98523658D01*
X129003658Y-98688157D01*
X128874412Y-98881587D01*
X128785386Y-99096515D01*
X128740000Y-99324682D01*
X126603806Y-99324682D01*
X126598252Y-99268294D01*
X126547875Y-99102225D01*
X126466068Y-98949175D01*
X126355975Y-98815025D01*
X126221825Y-98704932D01*
X126068775Y-98623125D01*
X125902706Y-98572748D01*
X125773273Y-98560000D01*
X125686727Y-98560000D01*
X125557294Y-98572748D01*
X125391225Y-98623125D01*
X125238175Y-98704932D01*
X125104025Y-98815025D01*
X125095000Y-98826022D01*
X125085975Y-98815025D01*
X124951825Y-98704932D01*
X124798775Y-98623125D01*
X124632706Y-98572748D01*
X124503273Y-98560000D01*
X124416727Y-98560000D01*
X124287294Y-98572748D01*
X124121225Y-98623125D01*
X123968175Y-98704932D01*
X123834025Y-98815025D01*
X123825000Y-98826022D01*
X123815975Y-98815025D01*
X123681825Y-98704932D01*
X123528775Y-98623125D01*
X123362706Y-98572748D01*
X123233273Y-98560000D01*
X123146727Y-98560000D01*
X123017294Y-98572748D01*
X122851225Y-98623125D01*
X122698175Y-98704932D01*
X122564025Y-98815025D01*
X122555000Y-98826022D01*
X122545975Y-98815025D01*
X122411825Y-98704932D01*
X122258775Y-98623125D01*
X122092706Y-98572748D01*
X121963273Y-98560000D01*
X121876727Y-98560000D01*
X121747294Y-98572748D01*
X121581225Y-98623125D01*
X121442749Y-98697142D01*
X121420711Y-98670289D01*
X121362696Y-98622678D01*
X121296508Y-98587299D01*
X121224689Y-98565513D01*
X121150000Y-98558157D01*
X120150000Y-98558157D01*
X120075311Y-98565513D01*
X120003492Y-98587299D01*
X119937304Y-98622678D01*
X119879289Y-98670289D01*
X119831678Y-98728304D01*
X119796299Y-98794492D01*
X119774513Y-98866311D01*
X119767157Y-98941000D01*
X104947565Y-98941000D01*
X104981018Y-98830723D01*
X105007682Y-98560000D01*
X104981018Y-98289277D01*
X104968042Y-98246500D01*
X110444928Y-98246500D01*
X110448000Y-98710750D01*
X110606750Y-98869500D01*
X111506000Y-98869500D01*
X111506000Y-97770250D01*
X111760000Y-97770250D01*
X111760000Y-98869500D01*
X112659250Y-98869500D01*
X112818000Y-98710750D01*
X112821072Y-98246500D01*
X112808812Y-98122018D01*
X112772502Y-98002320D01*
X112713537Y-97892006D01*
X112634185Y-97795315D01*
X112537494Y-97715963D01*
X112427180Y-97656998D01*
X112307482Y-97620688D01*
X112183000Y-97608428D01*
X111918750Y-97611500D01*
X111760000Y-97770250D01*
X111506000Y-97770250D01*
X111347250Y-97611500D01*
X111083000Y-97608428D01*
X110958518Y-97620688D01*
X110838820Y-97656998D01*
X110728506Y-97715963D01*
X110631815Y-97795315D01*
X110552463Y-97892006D01*
X110493498Y-98002320D01*
X110457188Y-98122018D01*
X110444928Y-98246500D01*
X104968042Y-98246500D01*
X104902051Y-98028957D01*
X104773815Y-97789045D01*
X104601239Y-97578761D01*
X104390955Y-97406185D01*
X104151043Y-97277949D01*
X103890723Y-97198982D01*
X103687843Y-97179000D01*
X102052157Y-97179000D01*
X101849277Y-97198982D01*
X101588957Y-97277949D01*
X101349045Y-97406185D01*
X101138761Y-97578761D01*
X100966185Y-97789045D01*
X100837949Y-98028957D01*
X100758982Y-98289277D01*
X100732318Y-98560000D01*
X100520500Y-98560000D01*
X100520500Y-86860000D01*
X100732318Y-86860000D01*
X100758982Y-87130723D01*
X100837949Y-87391043D01*
X100966185Y-87630955D01*
X101138761Y-87841239D01*
X101349045Y-88013815D01*
X101588957Y-88142051D01*
X101849277Y-88221018D01*
X102052157Y-88241000D01*
X103687843Y-88241000D01*
X103809418Y-88229026D01*
X103905918Y-88325526D01*
X103651739Y-88409208D01*
X103520842Y-88681775D01*
X103445635Y-88974642D01*
X103441825Y-89043835D01*
X103301992Y-88985914D01*
X103015866Y-88929000D01*
X102724134Y-88929000D01*
X102438008Y-88985914D01*
X102168483Y-89097555D01*
X101925917Y-89259632D01*
X101719632Y-89465917D01*
X101557555Y-89708483D01*
X101445914Y-89978008D01*
X101389000Y-90264134D01*
X101389000Y-90555866D01*
X101445914Y-90841992D01*
X101557555Y-91111517D01*
X101719632Y-91354083D01*
X101925917Y-91560368D01*
X102168483Y-91722445D01*
X102438008Y-91834086D01*
X102724134Y-91891000D01*
X103015866Y-91891000D01*
X103301992Y-91834086D01*
X103571517Y-91722445D01*
X103689000Y-91643946D01*
X103689000Y-91836167D01*
X103738228Y-92083654D01*
X103834793Y-92316781D01*
X103974982Y-92526590D01*
X104153410Y-92705018D01*
X104160866Y-92710000D01*
X104153410Y-92714982D01*
X103974982Y-92893410D01*
X103834793Y-93103219D01*
X103738228Y-93336346D01*
X103689000Y-93583833D01*
X103689000Y-93776054D01*
X103571517Y-93697555D01*
X103301992Y-93585914D01*
X103015866Y-93529000D01*
X102724134Y-93529000D01*
X102438008Y-93585914D01*
X102168483Y-93697555D01*
X101925917Y-93859632D01*
X101719632Y-94065917D01*
X101557555Y-94308483D01*
X101445914Y-94578008D01*
X101389000Y-94864134D01*
X101389000Y-95155866D01*
X101445914Y-95441992D01*
X101557555Y-95711517D01*
X101719632Y-95954083D01*
X101925917Y-96160368D01*
X102168483Y-96322445D01*
X102438008Y-96434086D01*
X102724134Y-96491000D01*
X103015866Y-96491000D01*
X103301992Y-96434086D01*
X103571517Y-96322445D01*
X103689000Y-96243946D01*
X103689000Y-96336167D01*
X103738228Y-96583654D01*
X103834793Y-96816781D01*
X103974982Y-97026590D01*
X104153410Y-97205018D01*
X104363219Y-97345207D01*
X104596346Y-97441772D01*
X104843833Y-97491000D01*
X105096167Y-97491000D01*
X105343654Y-97441772D01*
X105576781Y-97345207D01*
X105786590Y-97205018D01*
X105965018Y-97026590D01*
X106105207Y-96816781D01*
X106201772Y-96583654D01*
X106251000Y-96336167D01*
X106251000Y-96083833D01*
X106201772Y-95836346D01*
X106196020Y-95822458D01*
X120650000Y-95822458D01*
X120650000Y-95947542D01*
X120674403Y-96070223D01*
X120722271Y-96185785D01*
X120791764Y-96289789D01*
X120880211Y-96378236D01*
X120984215Y-96447729D01*
X121099777Y-96495597D01*
X121222458Y-96520000D01*
X121347542Y-96520000D01*
X121470223Y-96495597D01*
X121585785Y-96447729D01*
X121689789Y-96378236D01*
X121725825Y-96342200D01*
X122114175Y-96342200D01*
X122150211Y-96378236D01*
X122254215Y-96447729D01*
X122369777Y-96495597D01*
X122492458Y-96520000D01*
X122617542Y-96520000D01*
X122740223Y-96495597D01*
X122855785Y-96447729D01*
X122959789Y-96378236D01*
X123048236Y-96289789D01*
X123117729Y-96185785D01*
X123165597Y-96070223D01*
X123190000Y-95947542D01*
X123190000Y-95822458D01*
X123165597Y-95699777D01*
X123117729Y-95584215D01*
X123048236Y-95480211D01*
X122959789Y-95391764D01*
X122855785Y-95322271D01*
X122740223Y-95274403D01*
X122617542Y-95250000D01*
X122492458Y-95250000D01*
X122369777Y-95274403D01*
X122254215Y-95322271D01*
X122150211Y-95391764D01*
X122114175Y-95427800D01*
X121725825Y-95427800D01*
X121689789Y-95391764D01*
X121585785Y-95322271D01*
X121470223Y-95274403D01*
X121347542Y-95250000D01*
X121222458Y-95250000D01*
X121099777Y-95274403D01*
X120984215Y-95322271D01*
X120880211Y-95391764D01*
X120791764Y-95480211D01*
X120722271Y-95584215D01*
X120674403Y-95699777D01*
X120650000Y-95822458D01*
X106196020Y-95822458D01*
X106105207Y-95603219D01*
X105965018Y-95393410D01*
X105786590Y-95214982D01*
X105576781Y-95074793D01*
X105343654Y-94978228D01*
X105252015Y-94960000D01*
X105343654Y-94941772D01*
X105576781Y-94845207D01*
X105786590Y-94705018D01*
X105965018Y-94526590D01*
X106105207Y-94316781D01*
X106201772Y-94083654D01*
X106251000Y-93836167D01*
X106251000Y-93583833D01*
X106241577Y-93536458D01*
X120650000Y-93536458D01*
X120650000Y-93661542D01*
X120674403Y-93784223D01*
X120722271Y-93899785D01*
X120791764Y-94003789D01*
X120880211Y-94092236D01*
X120984215Y-94161729D01*
X121099777Y-94209597D01*
X121222458Y-94234000D01*
X121347542Y-94234000D01*
X121470223Y-94209597D01*
X121585785Y-94161729D01*
X121689789Y-94092236D01*
X121725825Y-94056200D01*
X122114175Y-94056200D01*
X122150211Y-94092236D01*
X122254215Y-94161729D01*
X122369777Y-94209597D01*
X122492458Y-94234000D01*
X122617542Y-94234000D01*
X122740223Y-94209597D01*
X122855785Y-94161729D01*
X122959789Y-94092236D01*
X123048236Y-94003789D01*
X123117729Y-93899785D01*
X123147087Y-93828908D01*
X138692000Y-93828908D01*
X138692000Y-94091092D01*
X138743150Y-94348238D01*
X138843483Y-94590465D01*
X138989145Y-94808463D01*
X139174537Y-94993855D01*
X139392535Y-95139517D01*
X139570197Y-95213107D01*
X139407535Y-95280483D01*
X139189537Y-95426145D01*
X139004145Y-95611537D01*
X138858483Y-95829535D01*
X138758150Y-96071762D01*
X138707000Y-96328908D01*
X138707000Y-96591092D01*
X138758150Y-96848238D01*
X138858483Y-97090465D01*
X139004145Y-97308463D01*
X139189537Y-97493855D01*
X139407535Y-97639517D01*
X139649762Y-97739850D01*
X139906908Y-97791000D01*
X140169092Y-97791000D01*
X140426238Y-97739850D01*
X140668465Y-97639517D01*
X140886463Y-97493855D01*
X141071855Y-97308463D01*
X141217517Y-97090465D01*
X141317850Y-96848238D01*
X141369000Y-96591092D01*
X141369000Y-96328908D01*
X141317850Y-96071762D01*
X141217517Y-95829535D01*
X141071855Y-95611537D01*
X140886463Y-95426145D01*
X140668465Y-95280483D01*
X140490803Y-95206893D01*
X140653465Y-95139517D01*
X140871463Y-94993855D01*
X141056855Y-94808463D01*
X141202517Y-94590465D01*
X141302850Y-94348238D01*
X141354000Y-94091092D01*
X141354000Y-93828908D01*
X141302850Y-93571762D01*
X141202517Y-93329535D01*
X141056855Y-93111537D01*
X140871463Y-92926145D01*
X140653465Y-92780483D01*
X140495803Y-92715178D01*
X140678465Y-92639517D01*
X140896463Y-92493855D01*
X141081855Y-92308463D01*
X141227517Y-92090465D01*
X141327850Y-91848238D01*
X141379000Y-91591092D01*
X141379000Y-91328908D01*
X141327850Y-91071762D01*
X141227517Y-90829535D01*
X141081855Y-90611537D01*
X140896463Y-90426145D01*
X140794947Y-90358314D01*
X140868421Y-90319042D01*
X140958147Y-90059752D01*
X140038000Y-89139605D01*
X139117853Y-90059752D01*
X139207579Y-90319042D01*
X139295914Y-90361747D01*
X139199537Y-90426145D01*
X139014145Y-90611537D01*
X138868483Y-90829535D01*
X138768150Y-91071762D01*
X138717000Y-91328908D01*
X138717000Y-91591092D01*
X138768150Y-91848238D01*
X138868483Y-92090465D01*
X139014145Y-92308463D01*
X139199537Y-92493855D01*
X139417535Y-92639517D01*
X139575197Y-92704822D01*
X139392535Y-92780483D01*
X139174537Y-92926145D01*
X138989145Y-93111537D01*
X138843483Y-93329535D01*
X138743150Y-93571762D01*
X138692000Y-93828908D01*
X123147087Y-93828908D01*
X123165597Y-93784223D01*
X123190000Y-93661542D01*
X123190000Y-93536458D01*
X123165597Y-93413777D01*
X123117729Y-93298215D01*
X123048236Y-93194211D01*
X122959789Y-93105764D01*
X122855785Y-93036271D01*
X122740223Y-92988403D01*
X122617542Y-92964000D01*
X122492458Y-92964000D01*
X122369777Y-92988403D01*
X122254215Y-93036271D01*
X122150211Y-93105764D01*
X122114175Y-93141800D01*
X121725825Y-93141800D01*
X121689789Y-93105764D01*
X121585785Y-93036271D01*
X121470223Y-92988403D01*
X121347542Y-92964000D01*
X121222458Y-92964000D01*
X121099777Y-92988403D01*
X120984215Y-93036271D01*
X120880211Y-93105764D01*
X120791764Y-93194211D01*
X120722271Y-93298215D01*
X120674403Y-93413777D01*
X120650000Y-93536458D01*
X106241577Y-93536458D01*
X106208393Y-93369632D01*
X107184567Y-92393458D01*
X115443000Y-92393458D01*
X115443000Y-92518542D01*
X115467403Y-92641223D01*
X115515271Y-92756785D01*
X115584764Y-92860789D01*
X115673211Y-92949236D01*
X115777215Y-93018729D01*
X115892777Y-93066597D01*
X116015458Y-93091000D01*
X116140542Y-93091000D01*
X116263223Y-93066597D01*
X116378785Y-93018729D01*
X116482789Y-92949236D01*
X116518825Y-92913200D01*
X122278550Y-92913200D01*
X122301000Y-92915411D01*
X122323450Y-92913200D01*
X122323460Y-92913200D01*
X122390627Y-92906585D01*
X122476809Y-92880441D01*
X122556236Y-92837987D01*
X122625853Y-92780853D01*
X122640174Y-92763403D01*
X124217577Y-91186000D01*
X131512000Y-91186000D01*
X131512000Y-91461000D01*
X131560507Y-91699496D01*
X131654610Y-91923946D01*
X131790693Y-92125725D01*
X131963526Y-92297078D01*
X132166467Y-92431421D01*
X132391718Y-92523591D01*
X132429391Y-92527462D01*
X132620000Y-92402731D01*
X132620000Y-91186000D01*
X131512000Y-91186000D01*
X124217577Y-91186000D01*
X124746577Y-90657000D01*
X131512000Y-90657000D01*
X131512000Y-90932000D01*
X132620000Y-90932000D01*
X132620000Y-89715269D01*
X132874000Y-89715269D01*
X132874000Y-90932000D01*
X132894000Y-90932000D01*
X132894000Y-91186000D01*
X132874000Y-91186000D01*
X132874000Y-92402731D01*
X133064609Y-92527462D01*
X133102282Y-92523591D01*
X133327533Y-92431421D01*
X133530474Y-92297078D01*
X133703307Y-92125725D01*
X133823628Y-91947318D01*
X133870810Y-92035589D01*
X133949512Y-92131488D01*
X134045411Y-92210190D01*
X134154821Y-92268671D01*
X134273538Y-92304683D01*
X134396999Y-92316843D01*
X135097001Y-92316843D01*
X135220462Y-92304683D01*
X135339179Y-92268671D01*
X135448589Y-92210190D01*
X135544488Y-92131488D01*
X135623190Y-92035589D01*
X135681671Y-91926179D01*
X135717683Y-91807462D01*
X135729843Y-91684001D01*
X135729843Y-90433999D01*
X135717683Y-90310538D01*
X135681671Y-90191821D01*
X135623190Y-90082411D01*
X135544488Y-89986512D01*
X135448589Y-89907810D01*
X135339179Y-89849329D01*
X135220462Y-89813317D01*
X135097001Y-89801157D01*
X134396999Y-89801157D01*
X134273538Y-89813317D01*
X134154821Y-89849329D01*
X134045411Y-89907810D01*
X133949512Y-89986512D01*
X133870810Y-90082411D01*
X133823628Y-90170682D01*
X133703307Y-89992275D01*
X133530474Y-89820922D01*
X133327533Y-89686579D01*
X133102282Y-89594409D01*
X133064609Y-89590538D01*
X132874000Y-89715269D01*
X132620000Y-89715269D01*
X132429391Y-89590538D01*
X132391718Y-89594409D01*
X132166467Y-89686579D01*
X131963526Y-89820922D01*
X131790693Y-89992275D01*
X131654610Y-90194054D01*
X131560507Y-90418504D01*
X131512000Y-90657000D01*
X124746577Y-90657000D01*
X125614578Y-89789000D01*
X125665542Y-89789000D01*
X125788223Y-89764597D01*
X125903785Y-89716729D01*
X126007789Y-89647236D01*
X126096236Y-89558789D01*
X126165729Y-89454785D01*
X126213597Y-89339223D01*
X126238000Y-89216542D01*
X126238000Y-89091458D01*
X126224696Y-89024573D01*
X138446641Y-89024573D01*
X138489816Y-89333791D01*
X138592487Y-89628644D01*
X138678958Y-89790421D01*
X138938248Y-89880147D01*
X139858395Y-88960000D01*
X140217605Y-88960000D01*
X141137752Y-89880147D01*
X141397042Y-89790421D01*
X141532935Y-89509329D01*
X141611379Y-89207127D01*
X141629359Y-88895427D01*
X141586184Y-88586209D01*
X141483513Y-88291356D01*
X141397042Y-88129579D01*
X141137752Y-88039853D01*
X140217605Y-88960000D01*
X139858395Y-88960000D01*
X138938248Y-88039853D01*
X138678958Y-88129579D01*
X138543065Y-88410671D01*
X138464621Y-88712873D01*
X138446641Y-89024573D01*
X126224696Y-89024573D01*
X126213597Y-88968777D01*
X126165729Y-88853215D01*
X126157774Y-88841310D01*
X126190126Y-88851119D01*
X126365000Y-88724954D01*
X126365000Y-87884000D01*
X126345000Y-87884000D01*
X126345000Y-87630000D01*
X126365000Y-87630000D01*
X126365000Y-86789046D01*
X126619000Y-86789046D01*
X126619000Y-87630000D01*
X126639000Y-87630000D01*
X126639000Y-87884000D01*
X126619000Y-87884000D01*
X126619000Y-88724954D01*
X126793874Y-88851119D01*
X126848864Y-88834446D01*
X127052206Y-88744123D01*
X127234020Y-88615865D01*
X127323604Y-88521626D01*
X127423225Y-88574875D01*
X127589294Y-88625252D01*
X127718727Y-88638000D01*
X127805273Y-88638000D01*
X127934706Y-88625252D01*
X128100775Y-88574875D01*
X128239251Y-88500858D01*
X128261289Y-88527711D01*
X128319304Y-88575322D01*
X128385492Y-88610701D01*
X128457311Y-88632487D01*
X128532000Y-88639843D01*
X129532000Y-88639843D01*
X129606689Y-88632487D01*
X129678508Y-88610701D01*
X129744696Y-88575322D01*
X129802711Y-88527711D01*
X129850322Y-88469696D01*
X129885701Y-88403508D01*
X129907487Y-88331689D01*
X129914843Y-88257000D01*
X129914843Y-87860248D01*
X139117853Y-87860248D01*
X140038000Y-88780395D01*
X140958147Y-87860248D01*
X140868421Y-87600958D01*
X140587329Y-87465065D01*
X140285127Y-87386621D01*
X139973427Y-87368641D01*
X139664209Y-87411816D01*
X139369356Y-87514487D01*
X139207579Y-87600958D01*
X139117853Y-87860248D01*
X129914843Y-87860248D01*
X129914843Y-87257000D01*
X129907487Y-87182311D01*
X129885701Y-87110492D01*
X129850322Y-87044304D01*
X129802711Y-86986289D01*
X129744696Y-86938678D01*
X129678508Y-86903299D01*
X129606689Y-86881513D01*
X129532000Y-86874157D01*
X128532000Y-86874157D01*
X128457311Y-86881513D01*
X128385492Y-86903299D01*
X128319304Y-86938678D01*
X128261289Y-86986289D01*
X128239251Y-87013142D01*
X128100775Y-86939125D01*
X127934706Y-86888748D01*
X127805273Y-86876000D01*
X127718727Y-86876000D01*
X127589294Y-86888748D01*
X127423225Y-86939125D01*
X127323604Y-86992374D01*
X127234020Y-86898135D01*
X127052206Y-86769877D01*
X126848864Y-86679554D01*
X126793874Y-86662881D01*
X126619000Y-86789046D01*
X126365000Y-86789046D01*
X126190126Y-86662881D01*
X126135136Y-86679554D01*
X125931794Y-86769877D01*
X125749980Y-86898135D01*
X125660396Y-86992374D01*
X125560775Y-86939125D01*
X125394706Y-86888748D01*
X125265273Y-86876000D01*
X125178727Y-86876000D01*
X125049294Y-86888748D01*
X124883225Y-86939125D01*
X124730175Y-87020932D01*
X124596025Y-87131025D01*
X124587000Y-87142022D01*
X124577975Y-87131025D01*
X124443825Y-87020932D01*
X124290775Y-86939125D01*
X124124706Y-86888748D01*
X123995273Y-86876000D01*
X123908727Y-86876000D01*
X123779294Y-86888748D01*
X123613225Y-86939125D01*
X123460175Y-87020932D01*
X123326025Y-87131025D01*
X123215932Y-87265175D01*
X123134125Y-87418225D01*
X123083748Y-87584294D01*
X123066738Y-87757000D01*
X123083748Y-87929706D01*
X123134125Y-88095775D01*
X123215932Y-88248825D01*
X123326025Y-88382975D01*
X123460175Y-88493068D01*
X123613225Y-88574875D01*
X123779294Y-88625252D01*
X123844715Y-88631695D01*
X123801211Y-88660764D01*
X123712764Y-88749211D01*
X123698000Y-88771307D01*
X123683236Y-88749211D01*
X123594789Y-88660764D01*
X123490785Y-88591271D01*
X123375223Y-88543403D01*
X123252542Y-88519000D01*
X123127458Y-88519000D01*
X123004777Y-88543403D01*
X122889215Y-88591271D01*
X122785211Y-88660764D01*
X122696764Y-88749211D01*
X122627271Y-88853215D01*
X122579403Y-88968777D01*
X122555000Y-89091458D01*
X122555000Y-89142422D01*
X120968623Y-90728800D01*
X117400046Y-90728800D01*
X117402729Y-90724785D01*
X117450597Y-90609223D01*
X117475000Y-90486542D01*
X117475000Y-90361458D01*
X117450597Y-90238777D01*
X117402729Y-90123215D01*
X117333236Y-90019211D01*
X117297200Y-89983175D01*
X117297200Y-89216377D01*
X118502579Y-88011000D01*
X118553542Y-88011000D01*
X118676223Y-87986597D01*
X118791785Y-87938729D01*
X118895789Y-87869236D01*
X118984236Y-87780789D01*
X119053729Y-87676785D01*
X119101597Y-87561223D01*
X119126000Y-87438542D01*
X119126000Y-87313458D01*
X119101597Y-87190777D01*
X119053729Y-87075215D01*
X118984236Y-86971211D01*
X118895789Y-86882764D01*
X118791785Y-86813271D01*
X118676223Y-86765403D01*
X118553542Y-86741000D01*
X118428458Y-86741000D01*
X118305777Y-86765403D01*
X118190215Y-86813271D01*
X118086211Y-86882764D01*
X117997764Y-86971211D01*
X117928271Y-87075215D01*
X117880403Y-87190777D01*
X117856000Y-87313458D01*
X117856000Y-87364421D01*
X116532592Y-88687830D01*
X116515148Y-88702147D01*
X116500831Y-88719592D01*
X116500830Y-88719593D01*
X116458013Y-88771765D01*
X116424510Y-88834446D01*
X116415560Y-88851191D01*
X116401129Y-88898764D01*
X116389416Y-88937374D01*
X116380589Y-89027000D01*
X116382801Y-89049459D01*
X116382800Y-89983175D01*
X116346764Y-90019211D01*
X116277271Y-90123215D01*
X116229403Y-90238777D01*
X116205000Y-90361458D01*
X116205000Y-90486542D01*
X116229403Y-90609223D01*
X116277271Y-90724785D01*
X116330869Y-90805000D01*
X116277271Y-90885215D01*
X116229403Y-91000777D01*
X116205000Y-91123458D01*
X116205000Y-91248542D01*
X116229403Y-91371223D01*
X116277271Y-91486785D01*
X116330869Y-91567000D01*
X116277271Y-91647215D01*
X116229403Y-91762777D01*
X116214880Y-91835787D01*
X116140542Y-91821000D01*
X116015458Y-91821000D01*
X115892777Y-91845403D01*
X115777215Y-91893271D01*
X115673211Y-91962764D01*
X115584764Y-92051211D01*
X115515271Y-92155215D01*
X115467403Y-92270777D01*
X115443000Y-92393458D01*
X107184567Y-92393458D01*
X107564162Y-92013864D01*
X107588385Y-91993985D01*
X107608265Y-91969761D01*
X107608269Y-91969757D01*
X107667738Y-91897294D01*
X107726702Y-91786980D01*
X107746887Y-91720438D01*
X107763012Y-91667282D01*
X107772200Y-91573992D01*
X107772200Y-91573989D01*
X107775272Y-91542800D01*
X107772200Y-91511611D01*
X107772200Y-90182000D01*
X112957928Y-90182000D01*
X112961000Y-90296250D01*
X113119750Y-90455000D01*
X113124967Y-90455000D01*
X113065463Y-90527506D01*
X113006498Y-90637820D01*
X112970188Y-90757518D01*
X112957928Y-90882000D01*
X112959272Y-90932000D01*
X112957928Y-90982000D01*
X112970188Y-91106482D01*
X113006498Y-91226180D01*
X113065463Y-91336494D01*
X113124967Y-91409000D01*
X113119750Y-91409000D01*
X112961000Y-91567750D01*
X112957928Y-91682000D01*
X112970188Y-91806482D01*
X113006498Y-91926180D01*
X113065463Y-92036494D01*
X113144815Y-92133185D01*
X113241506Y-92212537D01*
X113351820Y-92271502D01*
X113471518Y-92307812D01*
X113596000Y-92320072D01*
X113760250Y-92317000D01*
X113919000Y-92158250D01*
X113919000Y-89705750D01*
X114173000Y-89705750D01*
X114173000Y-92158250D01*
X114331750Y-92317000D01*
X114496000Y-92320072D01*
X114620482Y-92307812D01*
X114740180Y-92271502D01*
X114850494Y-92212537D01*
X114947185Y-92133185D01*
X115026537Y-92036494D01*
X115085502Y-91926180D01*
X115121812Y-91806482D01*
X115134072Y-91682000D01*
X115131000Y-91567750D01*
X114972250Y-91409000D01*
X114967033Y-91409000D01*
X115026537Y-91336494D01*
X115085502Y-91226180D01*
X115121812Y-91106482D01*
X115134072Y-90982000D01*
X115132728Y-90932000D01*
X115134072Y-90882000D01*
X115121812Y-90757518D01*
X115085502Y-90637820D01*
X115026537Y-90527506D01*
X114967033Y-90455000D01*
X114972250Y-90455000D01*
X115131000Y-90296250D01*
X115134072Y-90182000D01*
X115121812Y-90057518D01*
X115085502Y-89937820D01*
X115026537Y-89827506D01*
X114947185Y-89730815D01*
X114850494Y-89651463D01*
X114740180Y-89592498D01*
X114620482Y-89556188D01*
X114496000Y-89543928D01*
X114331750Y-89547000D01*
X114173000Y-89705750D01*
X113919000Y-89705750D01*
X113760250Y-89547000D01*
X113596000Y-89543928D01*
X113471518Y-89556188D01*
X113351820Y-89592498D01*
X113241506Y-89651463D01*
X113144815Y-89730815D01*
X113065463Y-89827506D01*
X113006498Y-89937820D01*
X112970188Y-90057518D01*
X112957928Y-90182000D01*
X107772200Y-90182000D01*
X107772200Y-88399758D01*
X107894533Y-88424092D01*
X108069651Y-88424092D01*
X108241404Y-88389928D01*
X108403191Y-88322913D01*
X108548796Y-88225623D01*
X108672623Y-88101796D01*
X108769913Y-87956191D01*
X108836928Y-87794404D01*
X108871092Y-87622651D01*
X108871092Y-87447533D01*
X108836928Y-87275780D01*
X108769913Y-87113993D01*
X108672623Y-86968388D01*
X108548796Y-86844561D01*
X108403191Y-86747271D01*
X108241404Y-86680256D01*
X108069651Y-86646092D01*
X108044908Y-86646092D01*
X108044908Y-86621349D01*
X108010744Y-86449596D01*
X107943729Y-86287809D01*
X107846439Y-86142204D01*
X107722612Y-86018377D01*
X107577007Y-85921087D01*
X107415220Y-85854072D01*
X107243467Y-85819908D01*
X107068349Y-85819908D01*
X106896596Y-85854072D01*
X106734809Y-85921087D01*
X106589204Y-86018377D01*
X106465377Y-86142204D01*
X106368087Y-86287809D01*
X106301072Y-86449596D01*
X106266908Y-86621349D01*
X106266908Y-86796467D01*
X106301072Y-86968220D01*
X106317682Y-87008319D01*
X106049845Y-87276157D01*
X106025616Y-87296041D01*
X106005732Y-87320270D01*
X105946263Y-87392733D01*
X105887298Y-87503047D01*
X105869651Y-87561223D01*
X105850989Y-87622744D01*
X105845667Y-87676785D01*
X105838729Y-87747226D01*
X105841801Y-87778417D01*
X105841801Y-88107423D01*
X105770792Y-87891739D01*
X105498225Y-87760842D01*
X105205358Y-87685635D01*
X104903447Y-87669009D01*
X104721317Y-87694924D01*
X104773815Y-87630955D01*
X104902051Y-87391043D01*
X104981018Y-87130723D01*
X105007682Y-86860000D01*
X104981018Y-86589277D01*
X104902051Y-86328957D01*
X104773815Y-86089045D01*
X104601239Y-85878761D01*
X104390955Y-85706185D01*
X104151043Y-85577949D01*
X103890723Y-85498982D01*
X103687843Y-85479000D01*
X102052157Y-85479000D01*
X101849277Y-85498982D01*
X101588957Y-85577949D01*
X101349045Y-85706185D01*
X101138761Y-85878761D01*
X100966185Y-86089045D01*
X100837949Y-86328957D01*
X100758982Y-86589277D01*
X100732318Y-86860000D01*
X100520500Y-86860000D01*
X100520500Y-84213700D01*
X142091240Y-84213700D01*
X141785961Y-84340151D01*
X141785961Y-84340151D01*
G37*
X141785961Y-84340151D02*
X141453313Y-84562419D01*
X141170419Y-84845313D01*
X140948151Y-85177961D01*
X140795050Y-85547579D01*
X140717000Y-85939964D01*
X140717000Y-86340036D01*
X140795050Y-86732421D01*
X140948151Y-87102039D01*
X141170419Y-87434687D01*
X141453313Y-87717581D01*
X141785961Y-87939849D01*
X142155579Y-88092950D01*
X142547964Y-88171000D01*
X142948036Y-88171000D01*
X143340421Y-88092950D01*
X143710039Y-87939849D01*
X144042687Y-87717581D01*
X144325581Y-87434687D01*
X144547849Y-87102039D01*
X144700950Y-86732421D01*
X144779000Y-86340036D01*
X144779000Y-85939964D01*
X144700950Y-85547579D01*
X144547849Y-85177961D01*
X144325581Y-84845313D01*
X144042687Y-84562419D01*
X143710039Y-84340151D01*
X143404760Y-84213700D01*
X152514300Y-84213700D01*
X152514301Y-101206300D01*
X143404760Y-101206300D01*
X143710039Y-101079849D01*
X144042687Y-100857581D01*
X144325581Y-100574687D01*
X144547849Y-100242039D01*
X144700950Y-99872421D01*
X144779000Y-99480036D01*
X144779000Y-99079964D01*
X144700950Y-98687579D01*
X144547849Y-98317961D01*
X144325581Y-97985313D01*
X144042687Y-97702419D01*
X143710039Y-97480151D01*
X143340421Y-97327050D01*
X142948036Y-97249000D01*
X142547964Y-97249000D01*
X142155579Y-97327050D01*
X141785961Y-97480151D01*
X141453313Y-97702419D01*
X141170419Y-97985313D01*
X140948151Y-98317961D01*
X140795050Y-98687579D01*
X140717000Y-99079964D01*
X140717000Y-99480036D01*
X140795050Y-99872421D01*
X140948151Y-100242039D01*
X141170419Y-100574687D01*
X141453313Y-100857581D01*
X141785961Y-101079849D01*
X142091240Y-101206300D01*
X100520500Y-101206300D01*
X100520500Y-98560000D01*
X100732318Y-98560000D01*
X100758982Y-98830723D01*
X100837949Y-99091043D01*
X100966185Y-99330955D01*
X101138761Y-99541239D01*
X101349045Y-99713815D01*
X101588957Y-99842051D01*
X101849277Y-99921018D01*
X102052157Y-99941000D01*
X103687843Y-99941000D01*
X103890723Y-99921018D01*
X104151043Y-99842051D01*
X104329805Y-99746500D01*
X110444928Y-99746500D01*
X110457188Y-99870982D01*
X110493498Y-99990680D01*
X110552463Y-100100994D01*
X110631815Y-100197685D01*
X110728506Y-100277037D01*
X110838820Y-100336002D01*
X110958518Y-100372312D01*
X111083000Y-100384572D01*
X111347250Y-100381500D01*
X111506000Y-100222750D01*
X111506000Y-99123500D01*
X111760000Y-99123500D01*
X111760000Y-100222750D01*
X111918750Y-100381500D01*
X112183000Y-100384572D01*
X112307482Y-100372312D01*
X112427180Y-100336002D01*
X112537494Y-100277037D01*
X112634185Y-100197685D01*
X112713537Y-100100994D01*
X112772502Y-99990680D01*
X112808812Y-99870982D01*
X112821072Y-99746500D01*
X112818000Y-99282250D01*
X112659250Y-99123500D01*
X111760000Y-99123500D01*
X111506000Y-99123500D01*
X110606750Y-99123500D01*
X110448000Y-99282250D01*
X110444928Y-99746500D01*
X104329805Y-99746500D01*
X104390955Y-99713815D01*
X104601239Y-99541239D01*
X104773815Y-99330955D01*
X104902051Y-99091043D01*
X104947565Y-98941000D01*
X119767157Y-98941000D01*
X119767157Y-99941000D01*
X119774513Y-100015689D01*
X119796299Y-100087508D01*
X119831678Y-100153696D01*
X119879289Y-100211711D01*
X119937304Y-100259322D01*
X120003492Y-100294701D01*
X120075311Y-100316487D01*
X120150000Y-100323843D01*
X121150000Y-100323843D01*
X121224689Y-100316487D01*
X121296508Y-100294701D01*
X121362696Y-100259322D01*
X121420711Y-100211711D01*
X121442749Y-100184858D01*
X121581225Y-100258875D01*
X121747294Y-100309252D01*
X121876727Y-100322000D01*
X121963273Y-100322000D01*
X122092706Y-100309252D01*
X122258775Y-100258875D01*
X122411825Y-100177068D01*
X122545975Y-100066975D01*
X122555000Y-100055978D01*
X122564025Y-100066975D01*
X122698175Y-100177068D01*
X122851225Y-100258875D01*
X123017294Y-100309252D01*
X123146727Y-100322000D01*
X123233273Y-100322000D01*
X123362706Y-100309252D01*
X123528775Y-100258875D01*
X123681825Y-100177068D01*
X123815975Y-100066975D01*
X123825000Y-100055978D01*
X123834025Y-100066975D01*
X123968175Y-100177068D01*
X124121225Y-100258875D01*
X124287294Y-100309252D01*
X124416727Y-100322000D01*
X124503273Y-100322000D01*
X124632706Y-100309252D01*
X124798775Y-100258875D01*
X124951825Y-100177068D01*
X125085975Y-100066975D01*
X125095000Y-100055978D01*
X125104025Y-100066975D01*
X125238175Y-100177068D01*
X125391225Y-100258875D01*
X125557294Y-100309252D01*
X125686727Y-100322000D01*
X125773273Y-100322000D01*
X125902706Y-100309252D01*
X126068775Y-100258875D01*
X126221825Y-100177068D01*
X126355975Y-100066975D01*
X126466068Y-99932825D01*
X126547875Y-99779775D01*
X126598252Y-99613706D01*
X126615262Y-99441000D01*
X126603806Y-99324682D01*
X128740000Y-99324682D01*
X128740000Y-99557318D01*
X128785386Y-99785485D01*
X128874412Y-100000413D01*
X129003658Y-100193843D01*
X129168157Y-100358342D01*
X129361587Y-100487588D01*
X129576515Y-100576614D01*
X129804682Y-100622000D01*
X130037318Y-100622000D01*
X130265485Y-100576614D01*
X130480413Y-100487588D01*
X130673843Y-100358342D01*
X130838342Y-100193843D01*
X130967588Y-100000413D01*
X131056614Y-99785485D01*
X131102000Y-99557318D01*
X131102000Y-99324682D01*
X131280000Y-99324682D01*
X131280000Y-99557318D01*
X131325386Y-99785485D01*
X131414412Y-100000413D01*
X131543658Y-100193843D01*
X131708157Y-100358342D01*
X131901587Y-100487588D01*
X132116515Y-100576614D01*
X132344682Y-100622000D01*
X132577318Y-100622000D01*
X132805485Y-100576614D01*
X133020413Y-100487588D01*
X133213843Y-100358342D01*
X133378342Y-100193843D01*
X133507588Y-100000413D01*
X133596614Y-99785485D01*
X133642000Y-99557318D01*
X133642000Y-99324682D01*
X133820000Y-99324682D01*
X133820000Y-99557318D01*
X133865386Y-99785485D01*
X133954412Y-100000413D01*
X134083658Y-100193843D01*
X134248157Y-100358342D01*
X134441587Y-100487588D01*
X134656515Y-100576614D01*
X134884682Y-100622000D01*
X135117318Y-100622000D01*
X135345485Y-100576614D01*
X135560413Y-100487588D01*
X135753843Y-100358342D01*
X135918342Y-100193843D01*
X136047588Y-100000413D01*
X136136614Y-99785485D01*
X136182000Y-99557318D01*
X136182000Y-99324682D01*
X136136614Y-99096515D01*
X136047588Y-98881587D01*
X135918342Y-98688157D01*
X135753843Y-98523658D01*
X135560413Y-98394412D01*
X135345485Y-98305386D01*
X135117318Y-98260000D01*
X134884682Y-98260000D01*
X134656515Y-98305386D01*
X134441587Y-98394412D01*
X134248157Y-98523658D01*
X134083658Y-98688157D01*
X133954412Y-98881587D01*
X133865386Y-99096515D01*
X133820000Y-99324682D01*
X133642000Y-99324682D01*
X133596614Y-99096515D01*
X133507588Y-98881587D01*
X133378342Y-98688157D01*
X133213843Y-98523658D01*
X133020413Y-98394412D01*
X132805485Y-98305386D01*
X132577318Y-98260000D01*
X132344682Y-98260000D01*
X132116515Y-98305386D01*
X131901587Y-98394412D01*
X131708157Y-98523658D01*
X131543658Y-98688157D01*
X131414412Y-98881587D01*
X131325386Y-99096515D01*
X131280000Y-99324682D01*
X131102000Y-99324682D01*
X131056614Y-99096515D01*
X130967588Y-98881587D01*
X130838342Y-98688157D01*
X130673843Y-98523658D01*
X130480413Y-98394412D01*
X130265485Y-98305386D01*
X130037318Y-98260000D01*
X129804682Y-98260000D01*
X129576515Y-98305386D01*
X129361587Y-98394412D01*
X129168157Y-98523658D01*
X129003658Y-98688157D01*
X128874412Y-98881587D01*
X128785386Y-99096515D01*
X128740000Y-99324682D01*
X126603806Y-99324682D01*
X126598252Y-99268294D01*
X126547875Y-99102225D01*
X126466068Y-98949175D01*
X126355975Y-98815025D01*
X126221825Y-98704932D01*
X126068775Y-98623125D01*
X125902706Y-98572748D01*
X125773273Y-98560000D01*
X125686727Y-98560000D01*
X125557294Y-98572748D01*
X125391225Y-98623125D01*
X125238175Y-98704932D01*
X125104025Y-98815025D01*
X125095000Y-98826022D01*
X125085975Y-98815025D01*
X124951825Y-98704932D01*
X124798775Y-98623125D01*
X124632706Y-98572748D01*
X124503273Y-98560000D01*
X124416727Y-98560000D01*
X124287294Y-98572748D01*
X124121225Y-98623125D01*
X123968175Y-98704932D01*
X123834025Y-98815025D01*
X123825000Y-98826022D01*
X123815975Y-98815025D01*
X123681825Y-98704932D01*
X123528775Y-98623125D01*
X123362706Y-98572748D01*
X123233273Y-98560000D01*
X123146727Y-98560000D01*
X123017294Y-98572748D01*
X122851225Y-98623125D01*
X122698175Y-98704932D01*
X122564025Y-98815025D01*
X122555000Y-98826022D01*
X122545975Y-98815025D01*
X122411825Y-98704932D01*
X122258775Y-98623125D01*
X122092706Y-98572748D01*
X121963273Y-98560000D01*
X121876727Y-98560000D01*
X121747294Y-98572748D01*
X121581225Y-98623125D01*
X121442749Y-98697142D01*
X121420711Y-98670289D01*
X121362696Y-98622678D01*
X121296508Y-98587299D01*
X121224689Y-98565513D01*
X121150000Y-98558157D01*
X120150000Y-98558157D01*
X120075311Y-98565513D01*
X120003492Y-98587299D01*
X119937304Y-98622678D01*
X119879289Y-98670289D01*
X119831678Y-98728304D01*
X119796299Y-98794492D01*
X119774513Y-98866311D01*
X119767157Y-98941000D01*
X104947565Y-98941000D01*
X104981018Y-98830723D01*
X105007682Y-98560000D01*
X104981018Y-98289277D01*
X104968042Y-98246500D01*
X110444928Y-98246500D01*
X110448000Y-98710750D01*
X110606750Y-98869500D01*
X111506000Y-98869500D01*
X111506000Y-97770250D01*
X111760000Y-97770250D01*
X111760000Y-98869500D01*
X112659250Y-98869500D01*
X112818000Y-98710750D01*
X112821072Y-98246500D01*
X112808812Y-98122018D01*
X112772502Y-98002320D01*
X112713537Y-97892006D01*
X112634185Y-97795315D01*
X112537494Y-97715963D01*
X112427180Y-97656998D01*
X112307482Y-97620688D01*
X112183000Y-97608428D01*
X111918750Y-97611500D01*
X111760000Y-97770250D01*
X111506000Y-97770250D01*
X111347250Y-97611500D01*
X111083000Y-97608428D01*
X110958518Y-97620688D01*
X110838820Y-97656998D01*
X110728506Y-97715963D01*
X110631815Y-97795315D01*
X110552463Y-97892006D01*
X110493498Y-98002320D01*
X110457188Y-98122018D01*
X110444928Y-98246500D01*
X104968042Y-98246500D01*
X104902051Y-98028957D01*
X104773815Y-97789045D01*
X104601239Y-97578761D01*
X104390955Y-97406185D01*
X104151043Y-97277949D01*
X103890723Y-97198982D01*
X103687843Y-97179000D01*
X102052157Y-97179000D01*
X101849277Y-97198982D01*
X101588957Y-97277949D01*
X101349045Y-97406185D01*
X101138761Y-97578761D01*
X100966185Y-97789045D01*
X100837949Y-98028957D01*
X100758982Y-98289277D01*
X100732318Y-98560000D01*
X100520500Y-98560000D01*
X100520500Y-86860000D01*
X100732318Y-86860000D01*
X100758982Y-87130723D01*
X100837949Y-87391043D01*
X100966185Y-87630955D01*
X101138761Y-87841239D01*
X101349045Y-88013815D01*
X101588957Y-88142051D01*
X101849277Y-88221018D01*
X102052157Y-88241000D01*
X103687843Y-88241000D01*
X103809418Y-88229026D01*
X103905918Y-88325526D01*
X103651739Y-88409208D01*
X103520842Y-88681775D01*
X103445635Y-88974642D01*
X103441825Y-89043835D01*
X103301992Y-88985914D01*
X103015866Y-88929000D01*
X102724134Y-88929000D01*
X102438008Y-88985914D01*
X102168483Y-89097555D01*
X101925917Y-89259632D01*
X101719632Y-89465917D01*
X101557555Y-89708483D01*
X101445914Y-89978008D01*
X101389000Y-90264134D01*
X101389000Y-90555866D01*
X101445914Y-90841992D01*
X101557555Y-91111517D01*
X101719632Y-91354083D01*
X101925917Y-91560368D01*
X102168483Y-91722445D01*
X102438008Y-91834086D01*
X102724134Y-91891000D01*
X103015866Y-91891000D01*
X103301992Y-91834086D01*
X103571517Y-91722445D01*
X103689000Y-91643946D01*
X103689000Y-91836167D01*
X103738228Y-92083654D01*
X103834793Y-92316781D01*
X103974982Y-92526590D01*
X104153410Y-92705018D01*
X104160866Y-92710000D01*
X104153410Y-92714982D01*
X103974982Y-92893410D01*
X103834793Y-93103219D01*
X103738228Y-93336346D01*
X103689000Y-93583833D01*
X103689000Y-93776054D01*
X103571517Y-93697555D01*
X103301992Y-93585914D01*
X103015866Y-93529000D01*
X102724134Y-93529000D01*
X102438008Y-93585914D01*
X102168483Y-93697555D01*
X101925917Y-93859632D01*
X101719632Y-94065917D01*
X101557555Y-94308483D01*
X101445914Y-94578008D01*
X101389000Y-94864134D01*
X101389000Y-95155866D01*
X101445914Y-95441992D01*
X101557555Y-95711517D01*
X101719632Y-95954083D01*
X101925917Y-96160368D01*
X102168483Y-96322445D01*
X102438008Y-96434086D01*
X102724134Y-96491000D01*
X103015866Y-96491000D01*
X103301992Y-96434086D01*
X103571517Y-96322445D01*
X103689000Y-96243946D01*
X103689000Y-96336167D01*
X103738228Y-96583654D01*
X103834793Y-96816781D01*
X103974982Y-97026590D01*
X104153410Y-97205018D01*
X104363219Y-97345207D01*
X104596346Y-97441772D01*
X104843833Y-97491000D01*
X105096167Y-97491000D01*
X105343654Y-97441772D01*
X105576781Y-97345207D01*
X105786590Y-97205018D01*
X105965018Y-97026590D01*
X106105207Y-96816781D01*
X106201772Y-96583654D01*
X106251000Y-96336167D01*
X106251000Y-96083833D01*
X106201772Y-95836346D01*
X106196020Y-95822458D01*
X120650000Y-95822458D01*
X120650000Y-95947542D01*
X120674403Y-96070223D01*
X120722271Y-96185785D01*
X120791764Y-96289789D01*
X120880211Y-96378236D01*
X120984215Y-96447729D01*
X121099777Y-96495597D01*
X121222458Y-96520000D01*
X121347542Y-96520000D01*
X121470223Y-96495597D01*
X121585785Y-96447729D01*
X121689789Y-96378236D01*
X121725825Y-96342200D01*
X122114175Y-96342200D01*
X122150211Y-96378236D01*
X122254215Y-96447729D01*
X122369777Y-96495597D01*
X122492458Y-96520000D01*
X122617542Y-96520000D01*
X122740223Y-96495597D01*
X122855785Y-96447729D01*
X122959789Y-96378236D01*
X123048236Y-96289789D01*
X123117729Y-96185785D01*
X123165597Y-96070223D01*
X123190000Y-95947542D01*
X123190000Y-95822458D01*
X123165597Y-95699777D01*
X123117729Y-95584215D01*
X123048236Y-95480211D01*
X122959789Y-95391764D01*
X122855785Y-95322271D01*
X122740223Y-95274403D01*
X122617542Y-95250000D01*
X122492458Y-95250000D01*
X122369777Y-95274403D01*
X122254215Y-95322271D01*
X122150211Y-95391764D01*
X122114175Y-95427800D01*
X121725825Y-95427800D01*
X121689789Y-95391764D01*
X121585785Y-95322271D01*
X121470223Y-95274403D01*
X121347542Y-95250000D01*
X121222458Y-95250000D01*
X121099777Y-95274403D01*
X120984215Y-95322271D01*
X120880211Y-95391764D01*
X120791764Y-95480211D01*
X120722271Y-95584215D01*
X120674403Y-95699777D01*
X120650000Y-95822458D01*
X106196020Y-95822458D01*
X106105207Y-95603219D01*
X105965018Y-95393410D01*
X105786590Y-95214982D01*
X105576781Y-95074793D01*
X105343654Y-94978228D01*
X105252015Y-94960000D01*
X105343654Y-94941772D01*
X105576781Y-94845207D01*
X105786590Y-94705018D01*
X105965018Y-94526590D01*
X106105207Y-94316781D01*
X106201772Y-94083654D01*
X106251000Y-93836167D01*
X106251000Y-93583833D01*
X106241577Y-93536458D01*
X120650000Y-93536458D01*
X120650000Y-93661542D01*
X120674403Y-93784223D01*
X120722271Y-93899785D01*
X120791764Y-94003789D01*
X120880211Y-94092236D01*
X120984215Y-94161729D01*
X121099777Y-94209597D01*
X121222458Y-94234000D01*
X121347542Y-94234000D01*
X121470223Y-94209597D01*
X121585785Y-94161729D01*
X121689789Y-94092236D01*
X121725825Y-94056200D01*
X122114175Y-94056200D01*
X122150211Y-94092236D01*
X122254215Y-94161729D01*
X122369777Y-94209597D01*
X122492458Y-94234000D01*
X122617542Y-94234000D01*
X122740223Y-94209597D01*
X122855785Y-94161729D01*
X122959789Y-94092236D01*
X123048236Y-94003789D01*
X123117729Y-93899785D01*
X123147087Y-93828908D01*
X138692000Y-93828908D01*
X138692000Y-94091092D01*
X138743150Y-94348238D01*
X138843483Y-94590465D01*
X138989145Y-94808463D01*
X139174537Y-94993855D01*
X139392535Y-95139517D01*
X139570197Y-95213107D01*
X139407535Y-95280483D01*
X139189537Y-95426145D01*
X139004145Y-95611537D01*
X138858483Y-95829535D01*
X138758150Y-96071762D01*
X138707000Y-96328908D01*
X138707000Y-96591092D01*
X138758150Y-96848238D01*
X138858483Y-97090465D01*
X139004145Y-97308463D01*
X139189537Y-97493855D01*
X139407535Y-97639517D01*
X139649762Y-97739850D01*
X139906908Y-97791000D01*
X140169092Y-97791000D01*
X140426238Y-97739850D01*
X140668465Y-97639517D01*
X140886463Y-97493855D01*
X141071855Y-97308463D01*
X141217517Y-97090465D01*
X141317850Y-96848238D01*
X141369000Y-96591092D01*
X141369000Y-96328908D01*
X141317850Y-96071762D01*
X141217517Y-95829535D01*
X141071855Y-95611537D01*
X140886463Y-95426145D01*
X140668465Y-95280483D01*
X140490803Y-95206893D01*
X140653465Y-95139517D01*
X140871463Y-94993855D01*
X141056855Y-94808463D01*
X141202517Y-94590465D01*
X141302850Y-94348238D01*
X141354000Y-94091092D01*
X141354000Y-93828908D01*
X141302850Y-93571762D01*
X141202517Y-93329535D01*
X141056855Y-93111537D01*
X140871463Y-92926145D01*
X140653465Y-92780483D01*
X140495803Y-92715178D01*
X140678465Y-92639517D01*
X140896463Y-92493855D01*
X141081855Y-92308463D01*
X141227517Y-92090465D01*
X141327850Y-91848238D01*
X141379000Y-91591092D01*
X141379000Y-91328908D01*
X141327850Y-91071762D01*
X141227517Y-90829535D01*
X141081855Y-90611537D01*
X140896463Y-90426145D01*
X140794947Y-90358314D01*
X140868421Y-90319042D01*
X140958147Y-90059752D01*
X140038000Y-89139605D01*
X139117853Y-90059752D01*
X139207579Y-90319042D01*
X139295914Y-90361747D01*
X139199537Y-90426145D01*
X139014145Y-90611537D01*
X138868483Y-90829535D01*
X138768150Y-91071762D01*
X138717000Y-91328908D01*
X138717000Y-91591092D01*
X138768150Y-91848238D01*
X138868483Y-92090465D01*
X139014145Y-92308463D01*
X139199537Y-92493855D01*
X139417535Y-92639517D01*
X139575197Y-92704822D01*
X139392535Y-92780483D01*
X139174537Y-92926145D01*
X138989145Y-93111537D01*
X138843483Y-93329535D01*
X138743150Y-93571762D01*
X138692000Y-93828908D01*
X123147087Y-93828908D01*
X123165597Y-93784223D01*
X123190000Y-93661542D01*
X123190000Y-93536458D01*
X123165597Y-93413777D01*
X123117729Y-93298215D01*
X123048236Y-93194211D01*
X122959789Y-93105764D01*
X122855785Y-93036271D01*
X122740223Y-92988403D01*
X122617542Y-92964000D01*
X122492458Y-92964000D01*
X122369777Y-92988403D01*
X122254215Y-93036271D01*
X122150211Y-93105764D01*
X122114175Y-93141800D01*
X121725825Y-93141800D01*
X121689789Y-93105764D01*
X121585785Y-93036271D01*
X121470223Y-92988403D01*
X121347542Y-92964000D01*
X121222458Y-92964000D01*
X121099777Y-92988403D01*
X120984215Y-93036271D01*
X120880211Y-93105764D01*
X120791764Y-93194211D01*
X120722271Y-93298215D01*
X120674403Y-93413777D01*
X120650000Y-93536458D01*
X106241577Y-93536458D01*
X106208393Y-93369632D01*
X107184567Y-92393458D01*
X115443000Y-92393458D01*
X115443000Y-92518542D01*
X115467403Y-92641223D01*
X115515271Y-92756785D01*
X115584764Y-92860789D01*
X115673211Y-92949236D01*
X115777215Y-93018729D01*
X115892777Y-93066597D01*
X116015458Y-93091000D01*
X116140542Y-93091000D01*
X116263223Y-93066597D01*
X116378785Y-93018729D01*
X116482789Y-92949236D01*
X116518825Y-92913200D01*
X122278550Y-92913200D01*
X122301000Y-92915411D01*
X122323450Y-92913200D01*
X122323460Y-92913200D01*
X122390627Y-92906585D01*
X122476809Y-92880441D01*
X122556236Y-92837987D01*
X122625853Y-92780853D01*
X122640174Y-92763403D01*
X124217577Y-91186000D01*
X131512000Y-91186000D01*
X131512000Y-91461000D01*
X131560507Y-91699496D01*
X131654610Y-91923946D01*
X131790693Y-92125725D01*
X131963526Y-92297078D01*
X132166467Y-92431421D01*
X132391718Y-92523591D01*
X132429391Y-92527462D01*
X132620000Y-92402731D01*
X132620000Y-91186000D01*
X131512000Y-91186000D01*
X124217577Y-91186000D01*
X124746577Y-90657000D01*
X131512000Y-90657000D01*
X131512000Y-90932000D01*
X132620000Y-90932000D01*
X132620000Y-89715269D01*
X132874000Y-89715269D01*
X132874000Y-90932000D01*
X132894000Y-90932000D01*
X132894000Y-91186000D01*
X132874000Y-91186000D01*
X132874000Y-92402731D01*
X133064609Y-92527462D01*
X133102282Y-92523591D01*
X133327533Y-92431421D01*
X133530474Y-92297078D01*
X133703307Y-92125725D01*
X133823628Y-91947318D01*
X133870810Y-92035589D01*
X133949512Y-92131488D01*
X134045411Y-92210190D01*
X134154821Y-92268671D01*
X134273538Y-92304683D01*
X134396999Y-92316843D01*
X135097001Y-92316843D01*
X135220462Y-92304683D01*
X135339179Y-92268671D01*
X135448589Y-92210190D01*
X135544488Y-92131488D01*
X135623190Y-92035589D01*
X135681671Y-91926179D01*
X135717683Y-91807462D01*
X135729843Y-91684001D01*
X135729843Y-90433999D01*
X135717683Y-90310538D01*
X135681671Y-90191821D01*
X135623190Y-90082411D01*
X135544488Y-89986512D01*
X135448589Y-89907810D01*
X135339179Y-89849329D01*
X135220462Y-89813317D01*
X135097001Y-89801157D01*
X134396999Y-89801157D01*
X134273538Y-89813317D01*
X134154821Y-89849329D01*
X134045411Y-89907810D01*
X133949512Y-89986512D01*
X133870810Y-90082411D01*
X133823628Y-90170682D01*
X133703307Y-89992275D01*
X133530474Y-89820922D01*
X133327533Y-89686579D01*
X133102282Y-89594409D01*
X133064609Y-89590538D01*
X132874000Y-89715269D01*
X132620000Y-89715269D01*
X132429391Y-89590538D01*
X132391718Y-89594409D01*
X132166467Y-89686579D01*
X131963526Y-89820922D01*
X131790693Y-89992275D01*
X131654610Y-90194054D01*
X131560507Y-90418504D01*
X131512000Y-90657000D01*
X124746577Y-90657000D01*
X125614578Y-89789000D01*
X125665542Y-89789000D01*
X125788223Y-89764597D01*
X125903785Y-89716729D01*
X126007789Y-89647236D01*
X126096236Y-89558789D01*
X126165729Y-89454785D01*
X126213597Y-89339223D01*
X126238000Y-89216542D01*
X126238000Y-89091458D01*
X126224696Y-89024573D01*
X138446641Y-89024573D01*
X138489816Y-89333791D01*
X138592487Y-89628644D01*
X138678958Y-89790421D01*
X138938248Y-89880147D01*
X139858395Y-88960000D01*
X140217605Y-88960000D01*
X141137752Y-89880147D01*
X141397042Y-89790421D01*
X141532935Y-89509329D01*
X141611379Y-89207127D01*
X141629359Y-88895427D01*
X141586184Y-88586209D01*
X141483513Y-88291356D01*
X141397042Y-88129579D01*
X141137752Y-88039853D01*
X140217605Y-88960000D01*
X139858395Y-88960000D01*
X138938248Y-88039853D01*
X138678958Y-88129579D01*
X138543065Y-88410671D01*
X138464621Y-88712873D01*
X138446641Y-89024573D01*
X126224696Y-89024573D01*
X126213597Y-88968777D01*
X126165729Y-88853215D01*
X126157774Y-88841310D01*
X126190126Y-88851119D01*
X126365000Y-88724954D01*
X126365000Y-87884000D01*
X126345000Y-87884000D01*
X126345000Y-87630000D01*
X126365000Y-87630000D01*
X126365000Y-86789046D01*
X126619000Y-86789046D01*
X126619000Y-87630000D01*
X126639000Y-87630000D01*
X126639000Y-87884000D01*
X126619000Y-87884000D01*
X126619000Y-88724954D01*
X126793874Y-88851119D01*
X126848864Y-88834446D01*
X127052206Y-88744123D01*
X127234020Y-88615865D01*
X127323604Y-88521626D01*
X127423225Y-88574875D01*
X127589294Y-88625252D01*
X127718727Y-88638000D01*
X127805273Y-88638000D01*
X127934706Y-88625252D01*
X128100775Y-88574875D01*
X128239251Y-88500858D01*
X128261289Y-88527711D01*
X128319304Y-88575322D01*
X128385492Y-88610701D01*
X128457311Y-88632487D01*
X128532000Y-88639843D01*
X129532000Y-88639843D01*
X129606689Y-88632487D01*
X129678508Y-88610701D01*
X129744696Y-88575322D01*
X129802711Y-88527711D01*
X129850322Y-88469696D01*
X129885701Y-88403508D01*
X129907487Y-88331689D01*
X129914843Y-88257000D01*
X129914843Y-87860248D01*
X139117853Y-87860248D01*
X140038000Y-88780395D01*
X140958147Y-87860248D01*
X140868421Y-87600958D01*
X140587329Y-87465065D01*
X140285127Y-87386621D01*
X139973427Y-87368641D01*
X139664209Y-87411816D01*
X139369356Y-87514487D01*
X139207579Y-87600958D01*
X139117853Y-87860248D01*
X129914843Y-87860248D01*
X129914843Y-87257000D01*
X129907487Y-87182311D01*
X129885701Y-87110492D01*
X129850322Y-87044304D01*
X129802711Y-86986289D01*
X129744696Y-86938678D01*
X129678508Y-86903299D01*
X129606689Y-86881513D01*
X129532000Y-86874157D01*
X128532000Y-86874157D01*
X128457311Y-86881513D01*
X128385492Y-86903299D01*
X128319304Y-86938678D01*
X128261289Y-86986289D01*
X128239251Y-87013142D01*
X128100775Y-86939125D01*
X127934706Y-86888748D01*
X127805273Y-86876000D01*
X127718727Y-86876000D01*
X127589294Y-86888748D01*
X127423225Y-86939125D01*
X127323604Y-86992374D01*
X127234020Y-86898135D01*
X127052206Y-86769877D01*
X126848864Y-86679554D01*
X126793874Y-86662881D01*
X126619000Y-86789046D01*
X126365000Y-86789046D01*
X126190126Y-86662881D01*
X126135136Y-86679554D01*
X125931794Y-86769877D01*
X125749980Y-86898135D01*
X125660396Y-86992374D01*
X125560775Y-86939125D01*
X125394706Y-86888748D01*
X125265273Y-86876000D01*
X125178727Y-86876000D01*
X125049294Y-86888748D01*
X124883225Y-86939125D01*
X124730175Y-87020932D01*
X124596025Y-87131025D01*
X124587000Y-87142022D01*
X124577975Y-87131025D01*
X124443825Y-87020932D01*
X124290775Y-86939125D01*
X124124706Y-86888748D01*
X123995273Y-86876000D01*
X123908727Y-86876000D01*
X123779294Y-86888748D01*
X123613225Y-86939125D01*
X123460175Y-87020932D01*
X123326025Y-87131025D01*
X123215932Y-87265175D01*
X123134125Y-87418225D01*
X123083748Y-87584294D01*
X123066738Y-87757000D01*
X123083748Y-87929706D01*
X123134125Y-88095775D01*
X123215932Y-88248825D01*
X123326025Y-88382975D01*
X123460175Y-88493068D01*
X123613225Y-88574875D01*
X123779294Y-88625252D01*
X123844715Y-88631695D01*
X123801211Y-88660764D01*
X123712764Y-88749211D01*
X123698000Y-88771307D01*
X123683236Y-88749211D01*
X123594789Y-88660764D01*
X123490785Y-88591271D01*
X123375223Y-88543403D01*
X123252542Y-88519000D01*
X123127458Y-88519000D01*
X123004777Y-88543403D01*
X122889215Y-88591271D01*
X122785211Y-88660764D01*
X122696764Y-88749211D01*
X122627271Y-88853215D01*
X122579403Y-88968777D01*
X122555000Y-89091458D01*
X122555000Y-89142422D01*
X120968623Y-90728800D01*
X117400046Y-90728800D01*
X117402729Y-90724785D01*
X117450597Y-90609223D01*
X117475000Y-90486542D01*
X117475000Y-90361458D01*
X117450597Y-90238777D01*
X117402729Y-90123215D01*
X117333236Y-90019211D01*
X117297200Y-89983175D01*
X117297200Y-89216377D01*
X118502579Y-88011000D01*
X118553542Y-88011000D01*
X118676223Y-87986597D01*
X118791785Y-87938729D01*
X118895789Y-87869236D01*
X118984236Y-87780789D01*
X119053729Y-87676785D01*
X119101597Y-87561223D01*
X119126000Y-87438542D01*
X119126000Y-87313458D01*
X119101597Y-87190777D01*
X119053729Y-87075215D01*
X118984236Y-86971211D01*
X118895789Y-86882764D01*
X118791785Y-86813271D01*
X118676223Y-86765403D01*
X118553542Y-86741000D01*
X118428458Y-86741000D01*
X118305777Y-86765403D01*
X118190215Y-86813271D01*
X118086211Y-86882764D01*
X117997764Y-86971211D01*
X117928271Y-87075215D01*
X117880403Y-87190777D01*
X117856000Y-87313458D01*
X117856000Y-87364421D01*
X116532592Y-88687830D01*
X116515148Y-88702147D01*
X116500831Y-88719592D01*
X116500830Y-88719593D01*
X116458013Y-88771765D01*
X116424510Y-88834446D01*
X116415560Y-88851191D01*
X116401129Y-88898764D01*
X116389416Y-88937374D01*
X116380589Y-89027000D01*
X116382801Y-89049459D01*
X116382800Y-89983175D01*
X116346764Y-90019211D01*
X116277271Y-90123215D01*
X116229403Y-90238777D01*
X116205000Y-90361458D01*
X116205000Y-90486542D01*
X116229403Y-90609223D01*
X116277271Y-90724785D01*
X116330869Y-90805000D01*
X116277271Y-90885215D01*
X116229403Y-91000777D01*
X116205000Y-91123458D01*
X116205000Y-91248542D01*
X116229403Y-91371223D01*
X116277271Y-91486785D01*
X116330869Y-91567000D01*
X116277271Y-91647215D01*
X116229403Y-91762777D01*
X116214880Y-91835787D01*
X116140542Y-91821000D01*
X116015458Y-91821000D01*
X115892777Y-91845403D01*
X115777215Y-91893271D01*
X115673211Y-91962764D01*
X115584764Y-92051211D01*
X115515271Y-92155215D01*
X115467403Y-92270777D01*
X115443000Y-92393458D01*
X107184567Y-92393458D01*
X107564162Y-92013864D01*
X107588385Y-91993985D01*
X107608265Y-91969761D01*
X107608269Y-91969757D01*
X107667738Y-91897294D01*
X107726702Y-91786980D01*
X107746887Y-91720438D01*
X107763012Y-91667282D01*
X107772200Y-91573992D01*
X107772200Y-91573989D01*
X107775272Y-91542800D01*
X107772200Y-91511611D01*
X107772200Y-90182000D01*
X112957928Y-90182000D01*
X112961000Y-90296250D01*
X113119750Y-90455000D01*
X113124967Y-90455000D01*
X113065463Y-90527506D01*
X113006498Y-90637820D01*
X112970188Y-90757518D01*
X112957928Y-90882000D01*
X112959272Y-90932000D01*
X112957928Y-90982000D01*
X112970188Y-91106482D01*
X113006498Y-91226180D01*
X113065463Y-91336494D01*
X113124967Y-91409000D01*
X113119750Y-91409000D01*
X112961000Y-91567750D01*
X112957928Y-91682000D01*
X112970188Y-91806482D01*
X113006498Y-91926180D01*
X113065463Y-92036494D01*
X113144815Y-92133185D01*
X113241506Y-92212537D01*
X113351820Y-92271502D01*
X113471518Y-92307812D01*
X113596000Y-92320072D01*
X113760250Y-92317000D01*
X113919000Y-92158250D01*
X113919000Y-89705750D01*
X114173000Y-89705750D01*
X114173000Y-92158250D01*
X114331750Y-92317000D01*
X114496000Y-92320072D01*
X114620482Y-92307812D01*
X114740180Y-92271502D01*
X114850494Y-92212537D01*
X114947185Y-92133185D01*
X115026537Y-92036494D01*
X115085502Y-91926180D01*
X115121812Y-91806482D01*
X115134072Y-91682000D01*
X115131000Y-91567750D01*
X114972250Y-91409000D01*
X114967033Y-91409000D01*
X115026537Y-91336494D01*
X115085502Y-91226180D01*
X115121812Y-91106482D01*
X115134072Y-90982000D01*
X115132728Y-90932000D01*
X115134072Y-90882000D01*
X115121812Y-90757518D01*
X115085502Y-90637820D01*
X115026537Y-90527506D01*
X114967033Y-90455000D01*
X114972250Y-90455000D01*
X115131000Y-90296250D01*
X115134072Y-90182000D01*
X115121812Y-90057518D01*
X115085502Y-89937820D01*
X115026537Y-89827506D01*
X114947185Y-89730815D01*
X114850494Y-89651463D01*
X114740180Y-89592498D01*
X114620482Y-89556188D01*
X114496000Y-89543928D01*
X114331750Y-89547000D01*
X114173000Y-89705750D01*
X113919000Y-89705750D01*
X113760250Y-89547000D01*
X113596000Y-89543928D01*
X113471518Y-89556188D01*
X113351820Y-89592498D01*
X113241506Y-89651463D01*
X113144815Y-89730815D01*
X113065463Y-89827506D01*
X113006498Y-89937820D01*
X112970188Y-90057518D01*
X112957928Y-90182000D01*
X107772200Y-90182000D01*
X107772200Y-88399758D01*
X107894533Y-88424092D01*
X108069651Y-88424092D01*
X108241404Y-88389928D01*
X108403191Y-88322913D01*
X108548796Y-88225623D01*
X108672623Y-88101796D01*
X108769913Y-87956191D01*
X108836928Y-87794404D01*
X108871092Y-87622651D01*
X108871092Y-87447533D01*
X108836928Y-87275780D01*
X108769913Y-87113993D01*
X108672623Y-86968388D01*
X108548796Y-86844561D01*
X108403191Y-86747271D01*
X108241404Y-86680256D01*
X108069651Y-86646092D01*
X108044908Y-86646092D01*
X108044908Y-86621349D01*
X108010744Y-86449596D01*
X107943729Y-86287809D01*
X107846439Y-86142204D01*
X107722612Y-86018377D01*
X107577007Y-85921087D01*
X107415220Y-85854072D01*
X107243467Y-85819908D01*
X107068349Y-85819908D01*
X106896596Y-85854072D01*
X106734809Y-85921087D01*
X106589204Y-86018377D01*
X106465377Y-86142204D01*
X106368087Y-86287809D01*
X106301072Y-86449596D01*
X106266908Y-86621349D01*
X106266908Y-86796467D01*
X106301072Y-86968220D01*
X106317682Y-87008319D01*
X106049845Y-87276157D01*
X106025616Y-87296041D01*
X106005732Y-87320270D01*
X105946263Y-87392733D01*
X105887298Y-87503047D01*
X105869651Y-87561223D01*
X105850989Y-87622744D01*
X105845667Y-87676785D01*
X105838729Y-87747226D01*
X105841801Y-87778417D01*
X105841801Y-88107423D01*
X105770792Y-87891739D01*
X105498225Y-87760842D01*
X105205358Y-87685635D01*
X104903447Y-87669009D01*
X104721317Y-87694924D01*
X104773815Y-87630955D01*
X104902051Y-87391043D01*
X104981018Y-87130723D01*
X105007682Y-86860000D01*
X104981018Y-86589277D01*
X104902051Y-86328957D01*
X104773815Y-86089045D01*
X104601239Y-85878761D01*
X104390955Y-85706185D01*
X104151043Y-85577949D01*
X103890723Y-85498982D01*
X103687843Y-85479000D01*
X102052157Y-85479000D01*
X101849277Y-85498982D01*
X101588957Y-85577949D01*
X101349045Y-85706185D01*
X101138761Y-85878761D01*
X100966185Y-86089045D01*
X100837949Y-86328957D01*
X100758982Y-86589277D01*
X100732318Y-86860000D01*
X100520500Y-86860000D01*
X100520500Y-84213700D01*
X142091240Y-84213700D01*
X141785961Y-84340151D01*
G36*
X105163748Y-89195858D02*
G01*
X105149605Y-89210000D01*
X105163748Y-89224143D01*
X104984143Y-89403748D01*
X104970000Y-89389605D01*
X104955858Y-89403748D01*
X104776253Y-89224143D01*
X104790395Y-89210000D01*
X104776253Y-89195858D01*
X104955858Y-89016253D01*
X104970000Y-89030395D01*
X104984143Y-89016253D01*
X105163748Y-89195858D01*
X105163748Y-89195858D01*
G37*
X105163748Y-89195858D02*
X105149605Y-89210000D01*
X105163748Y-89224143D01*
X104984143Y-89403748D01*
X104970000Y-89389605D01*
X104955858Y-89403748D01*
X104776253Y-89224143D01*
X104790395Y-89210000D01*
X104776253Y-89195858D01*
X104955858Y-89016253D01*
X104970000Y-89030395D01*
X104984143Y-89016253D01*
X105163748Y-89195858D01*
M02*
